<ttFont>
    <TTGlyph name=".notdef" xMin="0" yMin="0" xMax="500" yMax="700">
      <contour>
        <pt x="0" y="700" on="1"/>
        <pt x="500" y="700" on="1"/>
        <pt x="500" y="0" on="1"/>
        <pt x="0" y="0" on="1"/>
      </contour>
      <contour>
        <pt x="50" y="650" on="1"/>
        <pt x="50" y="50" on="1"/>
        <pt x="450" y="50" on="1"/>
        <pt x="450" y="650" on="1"/>
      </contour>
      <contour>
        <pt x="229" y="278" on="1"/>
        <pt x="229" y="307" on="0"/>
        <pt x="256" y="345" on="0"/>
        <pt x="283" y="367" on="1"/>
        <pt x="311" y="390" on="0"/>
        <pt x="339" y="431" on="0"/>
        <pt x="339" y="465" on="1"/>
        <pt x="339" y="496" on="0"/>
        <pt x="301" y="552" on="0"/>
        <pt x="250" y="552" on="1"/>
        <pt x="192" y="552" on="0"/>
        <pt x="152" y="485" on="0"/>
        <pt x="152" y="452" on="1"/>
        <pt x="152" y="424" on="1"/>
        <pt x="103" y="424" on="1"/>
        <pt x="99" y="438" on="0"/>
        <pt x="99" y="455" on="1"/>
        <pt x="99" y="478" on="0"/>
        <pt x="120" y="544" on="0"/>
        <pt x="187" y="602" on="0"/>
        <pt x="250" y="602" on="1"/>
        <pt x="313" y="602" on="0"/>
        <pt x="376" y="546" on="0"/>
        <pt x="393" y="486" on="0"/>
        <pt x="393" y="467" on="1"/>
        <pt x="393" y="422" on="0"/>
        <pt x="356" y="364" on="0"/>
        <pt x="326" y="338" on="1"/>
        <pt x="304" y="320" on="0"/>
        <pt x="282" y="290" on="0"/>
        <pt x="282" y="268" on="1"/>
        <pt x="282" y="215" on="1"/>
        <pt x="229" y="215" on="1"/>
      </contour>
      <contour>
        <pt x="225" y="169" on="1"/>
        <pt x="285" y="169" on="1"/>
        <pt x="285" y="99" on="1"/>
        <pt x="225" y="99" on="1"/>
      </contour>
    </TTGlyph>
    <TTGlyph name=".ttfautohint" xMin="0" yMin="0" xMax="0" yMax="0">
      <contour>
        <pt x="0" y="0" on="1"/>
      </contour>
    </TTGlyph>
    <TTGlyph name="A" xMin="21" yMin="0" xMax="473" yMax="688">
      <contour>
        <pt x="356" y="200" on="1"/>
        <pt x="136" y="200" on="1"/>
        <pt x="83" y="0" on="1"/>
        <pt x="21" y="0" on="1"/>
        <pt x="208" y="688" on="1"/>
        <pt x="287" y="688" on="1"/>
        <pt x="473" y="0" on="1"/>
        <pt x="410" y="0" on="1"/>
      </contour>
      <contour>
        <pt x="243" y="606" on="1"/>
        <pt x="150" y="255" on="1"/>
        <pt x="342" y="255" on="1"/>
        <pt x="249" y="606" on="1"/>
      </contour>
    </TTGlyph>
    <TTGlyph name="A.ss01" xMin="68" yMin="0" xMax="449" yMax="696">
      <contour>
        <pt x="387" y="255" on="1"/>
        <pt x="130" y="255" on="1"/>
        <pt x="130" y="0" on="1"/>
        <pt x="68" y="0" on="1"/>
        <pt x="68" y="391" on="1"/>
        <pt x="68" y="524" on="0"/>
        <pt x="91" y="645" on="0"/>
        <pt x="170" y="696" on="0"/>
        <pt x="258" y="696" on="1"/>
        <pt x="347" y="696" on="0"/>
        <pt x="426" y="645" on="0"/>
        <pt x="449" y="523" on="0"/>
        <pt x="449" y="391" on="1"/>
        <pt x="449" y="0" on="1"/>
        <pt x="387" y="0" on="1"/>
      </contour>
      <contour>
        <pt x="387" y="522" on="0"/>
        <pt x="372" y="607" on="0"/>
        <pt x="319" y="641" on="0"/>
        <pt x="258" y="641" on="1"/>
        <pt x="197" y="641" on="0"/>
        <pt x="144" y="607" on="0"/>
        <pt x="130" y="522" on="0"/>
        <pt x="130" y="424" on="1"/>
        <pt x="130" y="311" on="1"/>
        <pt x="387" y="311" on="1"/>
        <pt x="387" y="424" on="1"/>
      </contour>
    </TTGlyph>
    <TTGlyph name="AE" xMin="-3" yMin="0" xMax="641" yMax="688">
      <contour>
        <pt x="349" y="200" on="1"/>
        <pt x="129" y="200" on="1"/>
        <pt x="59" y="0" on="1"/>
        <pt x="-3" y="0" on="1"/>
        <pt x="245" y="688" on="1"/>
        <pt x="641" y="688" on="1"/>
        <pt x="641" y="633" on="1"/>
        <pt x="333" y="633" on="1"/>
        <pt x="380" y="375" on="1"/>
        <pt x="607" y="375" on="1"/>
        <pt x="607" y="320" on="1"/>
        <pt x="390" y="320" on="1"/>
        <pt x="439" y="55" on="1"/>
        <pt x="641" y="55" on="1"/>
        <pt x="641" y="0" on="1"/>
        <pt x="385" y="0" on="1"/>
      </contour>
      <contour>
        <pt x="273" y="607" on="1"/>
        <pt x="148" y="255" on="1"/>
        <pt x="340" y="255" on="1"/>
        <pt x="278" y="607" on="1"/>
      </contour>
    </TTGlyph>
    <TTGlyph name="AEacute" xMin="-3" yMin="0" xMax="641" yMax="888">
      <component glyphName=".ttfautohint" x="0" y="0" flags="0x0"/>
      <component glyphName="AE" x="0" y="0" flags="0x0"/>
      <component glyphName="acutecomb.case" x="437" y="0" flags="0x0"/>
    </TTGlyph>
    <TTGlyph name="Aacute" xMin="21" yMin="0" xMax="473" yMax="890">
      <component glyphName=".ttfautohint" x="21" y="0" flags="0x0"/>
      <component glyphName="A" x="0" y="0" flags="0x0"/>
      <component glyphName="acute" x="210" y="147" flags="0x4"/>
    </TTGlyph>
    <TTGlyph name="Aacute.ss01" xMin="68" yMin="0" xMax="449" yMax="890">
      <component glyphName=".ttfautohint" x="68" y="0" flags="0x0"/>
      <component glyphName="A.ss01" x="0" y="0" flags="0x0"/>
      <component glyphName="acute" x="222" y="147" flags="0x4"/>
    </TTGlyph>
    <TTGlyph name="Abreve" xMin="21" yMin="0" xMax="473" yMax="888">
      <component glyphName=".ttfautohint" x="21" y="0" flags="0x0"/>
      <component glyphName="A" x="0" y="0" flags="0x0"/>
      <component glyphName="uni0306.case" x="363" y="0" flags="0x0"/>
    </TTGlyph>
    <TTGlyph name="Abreve.ss01" xMin="68" yMin="0" xMax="449" yMax="888">
      <component glyphName=".ttfautohint" x="68" y="0" flags="0x0"/>
      <component glyphName="A.ss01" x="0" y="0" flags="0x0"/>
      <component glyphName="uni0306.case" x="374" y="0" flags="0x0"/>
    </TTGlyph>
    <TTGlyph name="Acircumflex" xMin="21" yMin="0" xMax="473" yMax="888">
      <component glyphName=".ttfautohint" x="21" y="0" flags="0x0"/>
      <component glyphName="A" x="0" y="0" flags="0x0"/>
      <component glyphName="circumflex" x="129" y="145" flags="0x4"/>
    </TTGlyph>
    <TTGlyph name="Acircumflex.ss01" xMin="68" yMin="0" xMax="449" yMax="888">
      <component glyphName=".ttfautohint" x="68" y="0" flags="0x0"/>
      <component glyphName="A.ss01" x="0" y="0" flags="0x0"/>
      <component glyphName="circumflex" x="142" y="145" flags="0x4"/>
    </TTGlyph>
    <TTGlyph name="Adieresis" xMin="21" yMin="0" xMax="473" yMax="844">
      <component glyphName=".ttfautohint" x="21" y="0" flags="0x0"/>
      <component glyphName="A" x="0" y="0" flags="0x0"/>
      <component glyphName="dieresis" x="108" y="114" flags="0x4"/>
    </TTGlyph>
    <TTGlyph name="Adieresis.ss01" xMin="68" yMin="0" xMax="449" yMax="842">
      <component glyphName=".ttfautohint" x="68" y="0" flags="0x0"/>
      <component glyphName="A.ss01" x="0" y="0" flags="0x0"/>
      <component glyphName="dieresis" x="122" y="112" flags="0x4"/>
    </TTGlyph>
    <TTGlyph name="Agrave" xMin="21" yMin="0" xMax="473" yMax="890">
      <component glyphName=".ttfautohint" x="21" y="0" flags="0x0"/>
      <component glyphName="A" x="0" y="0" flags="0x0"/>
      <component glyphName="grave" x="152" y="147" flags="0x4"/>
    </TTGlyph>
    <TTGlyph name="Agrave.ss01" xMin="68" yMin="0" xMax="449" yMax="890">
      <component glyphName=".ttfautohint" x="68" y="0" flags="0x0"/>
      <component glyphName="A.ss01" x="0" y="0" flags="0x0"/>
      <component glyphName="grave" x="164" y="147" flags="0x4"/>
    </TTGlyph>
    <TTGlyph name="Amacron" xMin="21" yMin="0" xMax="473" yMax="888">
      <component glyphName=".ttfautohint" x="21" y="0" flags="0x0"/>
      <component glyphName="A" x="0" y="0" flags="0x0"/>
      <component glyphName="uni0304.case" x="402" y="0" flags="0x0"/>
    </TTGlyph>
    <TTGlyph name="Amacron.ss01" xMin="68" yMin="0" xMax="449" yMax="888">
      <component glyphName=".ttfautohint" x="68" y="0" flags="0x0"/>
      <component glyphName="A.ss01" x="0" y="0" flags="0x0"/>
      <component glyphName="uni0304.case" x="413" y="0" flags="0x0"/>
    </TTGlyph>
    <TTGlyph name="Aogonek" xMin="21" yMin="-196" xMax="474" yMax="688">
      <contour>
        <pt x="402" y="-154" on="0"/>
        <pt x="448" y="-154" on="1"/>
        <pt x="457" y="-154" on="0"/>
        <pt x="464" y="-153" on="1"/>
        <pt x="464" y="-194" on="1"/>
        <pt x="452" y="-196" on="0"/>
        <pt x="434" y="-196" on="1"/>
        <pt x="350" y="-196" on="0"/>
        <pt x="350" y="-121" on="1"/>
        <pt x="350" y="-92" on="0"/>
        <pt x="383" y="-25" on="0"/>
        <pt x="409" y="2" on="1"/>
        <pt x="356" y="200" on="1"/>
        <pt x="136" y="200" on="1"/>
        <pt x="83" y="0" on="1"/>
        <pt x="21" y="0" on="1"/>
        <pt x="208" y="688" on="1"/>
        <pt x="287" y="688" on="1"/>
        <pt x="474" y="0" on="1"/>
        <pt x="459" y="0" on="1"/>
        <pt x="438" y="-20" on="0"/>
        <pt x="402" y="-84" on="0"/>
        <pt x="402" y="-110" on="1"/>
      </contour>
      <contour>
        <pt x="342" y="254" on="1"/>
        <pt x="249" y="606" on="1"/>
        <pt x="243" y="606" on="1"/>
        <pt x="150" y="254" on="1"/>
      </contour>
    </TTGlyph>
    <TTGlyph name="Aogonek.ss01" xMin="68" yMin="-196" xMax="449" yMax="696">
      <contour>
        <pt x="415" y="-20" on="0"/>
        <pt x="379" y="-84" on="0"/>
        <pt x="379" y="-110" on="1"/>
        <pt x="379" y="-154" on="0"/>
        <pt x="425" y="-154" on="1"/>
        <pt x="441" y="-153" on="1"/>
        <pt x="441" y="-194" on="1"/>
        <pt x="430" y="-196" on="0"/>
        <pt x="411" y="-196" on="1"/>
        <pt x="367" y="-196" on="0"/>
        <pt x="327" y="-155" on="0"/>
        <pt x="327" y="-121" on="1"/>
        <pt x="327" y="-91" on="0"/>
        <pt x="360" y="-24" on="0"/>
        <pt x="387" y="3" on="1"/>
        <pt x="387" y="255" on="1"/>
        <pt x="130" y="255" on="1"/>
        <pt x="130" y="0" on="1"/>
        <pt x="68" y="0" on="1"/>
        <pt x="68" y="391" on="1"/>
        <pt x="68" y="524" on="0"/>
        <pt x="91" y="645" on="0"/>
        <pt x="170" y="696" on="0"/>
        <pt x="258" y="696" on="1"/>
        <pt x="347" y="696" on="0"/>
        <pt x="426" y="645" on="0"/>
        <pt x="449" y="523" on="0"/>
        <pt x="449" y="391" on="1"/>
        <pt x="449" y="0" on="1"/>
        <pt x="436" y="0" on="1"/>
      </contour>
      <contour>
        <pt x="387" y="311" on="1"/>
        <pt x="387" y="424" on="1"/>
        <pt x="387" y="522" on="0"/>
        <pt x="372" y="607" on="0"/>
        <pt x="319" y="641" on="0"/>
        <pt x="258" y="641" on="1"/>
        <pt x="197" y="641" on="0"/>
        <pt x="144" y="607" on="0"/>
        <pt x="130" y="522" on="0"/>
        <pt x="130" y="424" on="1"/>
        <pt x="130" y="311" on="1"/>
      </contour>
    </TTGlyph>
    <TTGlyph name="Aring" xMin="21" yMin="0" xMax="473" yMax="867">
      <contour>
        <pt x="473" y="0" on="1"/>
        <pt x="410" y="0" on="1"/>
        <pt x="356" y="200" on="1"/>
        <pt x="136" y="200" on="1"/>
        <pt x="83" y="0" on="1"/>
        <pt x="21" y="0" on="1"/>
        <pt x="205" y="681" on="1"/>
        <pt x="179" y="685" on="0"/>
        <pt x="155" y="706" on="0"/>
        <pt x="148" y="740" on="0"/>
        <pt x="148" y="772" on="1"/>
        <pt x="148" y="811" on="0"/>
        <pt x="160" y="849" on="0"/>
        <pt x="201" y="867" on="0"/>
        <pt x="246" y="867" on="1"/>
        <pt x="292" y="867" on="0"/>
        <pt x="334" y="849" on="0"/>
        <pt x="347" y="811" on="0"/>
        <pt x="347" y="772" on="1"/>
        <pt x="347" y="726" on="0"/>
        <pt x="326" y="687" on="0"/>
        <pt x="289" y="682" on="1"/>
      </contour>
      <contour>
        <pt x="192" y="747" on="0"/>
        <pt x="198" y="725" on="0"/>
        <pt x="220" y="715" on="0"/>
        <pt x="246" y="715" on="1"/>
        <pt x="273" y="715" on="0"/>
        <pt x="296" y="725" on="0"/>
        <pt x="302" y="747" on="0"/>
        <pt x="302" y="772" on="1"/>
        <pt x="302" y="797" on="0"/>
        <pt x="296" y="820" on="0"/>
        <pt x="272" y="830" on="0"/>
        <pt x="246" y="830" on="1"/>
        <pt x="221" y="830" on="0"/>
        <pt x="198" y="820" on="0"/>
        <pt x="192" y="797" on="0"/>
        <pt x="192" y="772" on="1"/>
      </contour>
      <contour>
        <pt x="342" y="255" on="1"/>
        <pt x="249" y="606" on="1"/>
        <pt x="243" y="606" on="1"/>
        <pt x="150" y="255" on="1"/>
      </contour>
    </TTGlyph>
    <TTGlyph name="Aring.ss01" xMin="68" yMin="0" xMax="449" yMax="929">
      <component glyphName=".ttfautohint" x="68" y="0" flags="0x0"/>
      <component glyphName="A.ss01" x="0" y="0" flags="0x0"/>
      <component glyphName="ring" x="153" y="128" flags="0x4"/>
    </TTGlyph>
    <TTGlyph name="Aringacute" xMin="21" yMin="0" xMax="473" yMax="1067">
      <component glyphName=".ttfautohint" x="21" y="0" flags="0x0"/>
      <component glyphName="Aring" x="0" y="0" flags="0x0"/>
      <component glyphName="acutecomb.case" x="345" y="179" flags="0x4"/>
    </TTGlyph>
    <TTGlyph name="Aringacute.ss01" xMin="68" yMin="0" xMax="449" yMax="1086">
      <component glyphName=".ttfautohint" x="68" y="0" flags="0x0"/>
      <component glyphName="A.ss01" x="0" y="0" flags="0x0"/>
      <component glyphName="uni030A.case" x="365" y="0" flags="0x0"/>
      <component glyphName="acutecomb.case" x="359" y="198" flags="0x4"/>
    </TTGlyph>
    <TTGlyph name="Atilde" xMin="21" yMin="0" xMax="473" yMax="865">
      <component glyphName=".ttfautohint" x="21" y="0" flags="0x0"/>
      <component glyphName="A" x="0" y="0" flags="0x0"/>
      <component glyphName="tilde" x="103" y="122" flags="0x4"/>
    </TTGlyph>
    <TTGlyph name="Atilde.ss01" xMin="68" yMin="0" xMax="449" yMax="865">
      <component glyphName=".ttfautohint" x="68" y="0" flags="0x0"/>
      <component glyphName="A.ss01" x="0" y="0" flags="0x0"/>
      <component glyphName="tilde" x="116" y="122" flags="0x4"/>
    </TTGlyph>
    <TTGlyph name="B" xMin="74" yMin="0" xMax="442" yMax="688">
      <contour>
        <pt x="74" y="688" on="1"/>
        <pt x="280" y="688" on="1"/>
        <pt x="365" y="688" on="0"/>
        <pt x="436" y="599" on="0"/>
        <pt x="436" y="516" on="1"/>
        <pt x="436" y="446" on="0"/>
        <pt x="388" y="366" on="0"/>
        <pt x="334" y="354" on="1"/>
        <pt x="334" y="350" on="1"/>
        <pt x="397" y="338" on="0"/>
        <pt x="442" y="251" on="0"/>
        <pt x="442" y="181" on="1"/>
        <pt x="442" y="98" on="0"/>
        <pt x="372" y="0" on="0"/>
        <pt x="275" y="0" on="1"/>
        <pt x="74" y="0" on="1"/>
      </contour>
      <contour>
        <pt x="374" y="376" on="0"/>
        <pt x="374" y="504" on="1"/>
        <pt x="374" y="575" on="0"/>
        <pt x="328" y="633" on="0"/>
        <pt x="264" y="633" on="1"/>
        <pt x="135" y="633" on="1"/>
        <pt x="135" y="376" on="1"/>
        <pt x="264" y="376" on="1"/>
      </contour>
      <contour>
        <pt x="331" y="55" on="0"/>
        <pt x="380" y="116" on="0"/>
        <pt x="380" y="188" on="1"/>
        <pt x="380" y="260" on="0"/>
        <pt x="328" y="322" on="0"/>
        <pt x="267" y="322" on="1"/>
        <pt x="135" y="322" on="1"/>
        <pt x="135" y="55" on="1"/>
        <pt x="267" y="55" on="1"/>
      </contour>
    </TTGlyph>
    <TTGlyph name="C" xMin="57" yMin="-8" xMax="367" yMax="696">
      <contour>
        <pt x="345" y="-1" on="0"/>
        <pt x="284" y="-8" on="0"/>
        <pt x="256" y="-8" on="1"/>
        <pt x="166" y="-8" on="0"/>
        <pt x="85" y="43" on="0"/>
        <pt x="57" y="186" on="0"/>
        <pt x="57" y="344" on="1"/>
        <pt x="57" y="500" on="0"/>
        <pt x="85" y="644" on="0"/>
        <pt x="167" y="696" on="0"/>
        <pt x="256" y="696" on="1"/>
        <pt x="283" y="696" on="0"/>
        <pt x="345" y="688" on="0"/>
        <pt x="364" y="683" on="1"/>
        <pt x="364" y="631" on="1"/>
        <pt x="314" y="641" on="0"/>
        <pt x="269" y="641" on="1"/>
        <pt x="196" y="641" on="0"/>
        <pt x="137" y="603" on="0"/>
        <pt x="119" y="487" on="0"/>
        <pt x="119" y="344" on="1"/>
        <pt x="119" y="201" on="0"/>
        <pt x="137" y="85" on="0"/>
        <pt x="196" y="47" on="0"/>
        <pt x="269" y="47" on="1"/>
        <pt x="324" y="47" on="0"/>
        <pt x="367" y="57" on="1"/>
        <pt x="367" y="4" on="1"/>
      </contour>
    </TTGlyph>
    <TTGlyph name="Cacute" xMin="57" yMin="-8" xMax="367" yMax="888">
      <component glyphName=".ttfautohint" x="57" y="0" flags="0x0"/>
      <component glyphName="C" x="0" y="0" flags="0x0"/>
      <component glyphName="acutecomb.case" x="299" y="0" flags="0x0"/>
    </TTGlyph>
    <TTGlyph name="Cacute.loclPLK" xMin="57" yMin="-8" xMax="367" yMax="888">
      <component glyphName=".ttfautohint" x="57" y="0" flags="0x0"/>
      <component glyphName="C" x="0" y="0" flags="0x0"/>
      <component glyphName="acute.case.loclPLK" x="167" y="0" flags="0x0"/>
    </TTGlyph>
    <TTGlyph name="Ccaron" xMin="57" yMin="-8" xMax="367" yMax="888">
      <component glyphName=".ttfautohint" x="57" y="0" flags="0x0"/>
      <component glyphName="C" x="0" y="0" flags="0x0"/>
      <component glyphName="uni030C.case" x="319" y="0" flags="0x0"/>
    </TTGlyph>
    <TTGlyph name="Ccedilla" xMin="57" yMin="-190" xMax="367" yMax="696">
      <contour>
        <pt x="324" y="47" on="0"/>
        <pt x="367" y="57" on="1"/>
        <pt x="367" y="4" on="1"/>
        <pt x="345" y="-1" on="0"/>
        <pt x="284" y="-8" on="0"/>
        <pt x="256" y="-8" on="1"/>
        <pt x="231" y="-8" on="0"/>
        <pt x="220" y="-7" on="1"/>
        <pt x="180" y="-190" on="1"/>
        <pt x="120" y="-190" on="1"/>
        <pt x="120" y="-185" on="1"/>
        <pt x="178" y="-2" on="1"/>
        <pt x="126" y="8" on="0"/>
        <pt x="75" y="75" on="0"/>
        <pt x="57" y="213" on="0"/>
        <pt x="57" y="344" on="1"/>
        <pt x="57" y="500" on="0"/>
        <pt x="85" y="644" on="0"/>
        <pt x="167" y="696" on="0"/>
        <pt x="256" y="696" on="1"/>
        <pt x="283" y="696" on="0"/>
        <pt x="345" y="688" on="0"/>
        <pt x="364" y="683" on="1"/>
        <pt x="364" y="631" on="1"/>
        <pt x="314" y="641" on="0"/>
        <pt x="269" y="641" on="1"/>
        <pt x="196" y="641" on="0"/>
        <pt x="137" y="603" on="0"/>
        <pt x="119" y="487" on="0"/>
        <pt x="119" y="344" on="1"/>
        <pt x="119" y="201" on="0"/>
        <pt x="137" y="85" on="0"/>
        <pt x="196" y="47" on="0"/>
        <pt x="269" y="47" on="1"/>
      </contour>
    </TTGlyph>
    <TTGlyph name="Ccircumflex" xMin="57" yMin="-8" xMax="367" yMax="888">
      <component glyphName=".ttfautohint" x="57" y="0" flags="0x0"/>
      <component glyphName="C" x="0" y="0" flags="0x0"/>
      <component glyphName="uni0302.case" x="319" y="0" flags="0x0"/>
    </TTGlyph>
    <TTGlyph name="Cdotaccent" xMin="57" yMin="-8" xMax="367" yMax="875">
      <component glyphName=".ttfautohint" x="57" y="0" flags="0x0"/>
      <component glyphName="C" x="0" y="0" flags="0x0"/>
      <component glyphName="uni0307.case" x="249" y="0" flags="0x0"/>
    </TTGlyph>
    <TTGlyph name="D" xMin="74" yMin="0" xMax="442" yMax="688">
      <contour>
        <pt x="74" y="688" on="1"/>
        <pt x="234" y="688" on="1"/>
        <pt x="333" y="688" on="0"/>
        <pt x="417" y="638" on="0"/>
        <pt x="442" y="503" on="0"/>
        <pt x="442" y="344" on="1"/>
        <pt x="442" y="185" on="0"/>
        <pt x="417" y="50" on="0"/>
        <pt x="333" y="0" on="0"/>
        <pt x="234" y="0" on="1"/>
        <pt x="74" y="0" on="1"/>
      </contour>
      <contour>
        <pt x="230" y="55" on="1"/>
        <pt x="304" y="55" on="0"/>
        <pt x="361" y="85" on="0"/>
        <pt x="380" y="198" on="0"/>
        <pt x="380" y="344" on="1"/>
        <pt x="380" y="489" on="0"/>
        <pt x="361" y="603" on="0"/>
        <pt x="304" y="633" on="0"/>
        <pt x="230" y="633" on="1"/>
        <pt x="136" y="633" on="1"/>
        <pt x="136" y="55" on="1"/>
      </contour>
    </TTGlyph>
    <TTGlyph name="Dcaron" xMin="74" yMin="0" xMax="442" yMax="888">
      <component glyphName=".ttfautohint" x="74" y="0" flags="0x0"/>
      <component glyphName="D" x="0" y="0" flags="0x0"/>
      <component glyphName="uni030C.case" x="368" y="0" flags="0x0"/>
    </TTGlyph>
    <TTGlyph name="Dcroat" xMin="16" yMin="0" xMax="442" yMax="688">
      <component glyphName=".ttfautohint" x="16" y="0" flags="0x0"/>
      <component glyphName="Eth" x="0" y="0" flags="0x0"/>
    </TTGlyph>
    <TTGlyph name="E" xMin="74" yMin="0" xMax="394" yMax="688">
      <contour>
        <pt x="74" y="688" on="1"/>
        <pt x="394" y="688" on="1"/>
        <pt x="394" y="633" on="1"/>
        <pt x="136" y="633" on="1"/>
        <pt x="136" y="375" on="1"/>
        <pt x="360" y="375" on="1"/>
        <pt x="360" y="320" on="1"/>
        <pt x="136" y="320" on="1"/>
        <pt x="136" y="55" on="1"/>
        <pt x="394" y="55" on="1"/>
        <pt x="394" y="0" on="1"/>
        <pt x="74" y="0" on="1"/>
      </contour>
    </TTGlyph>
    <TTGlyph name="Eacute" xMin="74" yMin="0" xMax="394" yMax="890">
      <component glyphName=".ttfautohint" x="74" y="0" flags="0x0"/>
      <component glyphName="E" x="0" y="0" flags="0x0"/>
      <component glyphName="acute" x="206" y="147" flags="0x4"/>
    </TTGlyph>
    <TTGlyph name="Ebreve" xMin="74" yMin="0" xMax="394" yMax="888">
      <component glyphName=".ttfautohint" x="74" y="0" flags="0x0"/>
      <component glyphName="E" x="0" y="0" flags="0x0"/>
      <component glyphName="uni0306.case" x="349" y="0" flags="0x0"/>
    </TTGlyph>
    <TTGlyph name="Ecaron" xMin="74" yMin="0" xMax="394" yMax="888">
      <component glyphName=".ttfautohint" x="74" y="0" flags="0x0"/>
      <component glyphName="E" x="0" y="0" flags="0x0"/>
      <component glyphName="uni030C.case" x="352" y="0" flags="0x0"/>
    </TTGlyph>
    <TTGlyph name="Ecircumflex" xMin="74" yMin="0" xMax="394" yMax="888">
      <component glyphName=".ttfautohint" x="74" y="0" flags="0x0"/>
      <component glyphName="E" x="0" y="0" flags="0x0"/>
      <component glyphName="circumflex" x="116" y="145" flags="0x4"/>
    </TTGlyph>
    <TTGlyph name="Edieresis" xMin="74" yMin="0" xMax="394" yMax="843">
      <component glyphName=".ttfautohint" x="74" y="0" flags="0x0"/>
      <component glyphName="E" x="0" y="0" flags="0x0"/>
      <component glyphName="dieresis" x="96" y="113" flags="0x4"/>
    </TTGlyph>
    <TTGlyph name="Edotaccent" xMin="74" yMin="0" xMax="394" yMax="875">
      <component glyphName=".ttfautohint" x="74" y="0" flags="0x0"/>
      <component glyphName="E" x="0" y="0" flags="0x0"/>
      <component glyphName="uni0307.case" x="282" y="0" flags="0x0"/>
    </TTGlyph>
    <TTGlyph name="Egrave" xMin="74" yMin="0" xMax="394" yMax="890">
      <component glyphName=".ttfautohint" x="74" y="0" flags="0x0"/>
      <component glyphName="E" x="0" y="0" flags="0x0"/>
      <component glyphName="grave" x="143" y="147" flags="0x4"/>
    </TTGlyph>
    <TTGlyph name="Emacron" xMin="74" yMin="0" xMax="394" yMax="888">
      <component glyphName=".ttfautohint" x="74" y="0" flags="0x0"/>
      <component glyphName="E" x="0" y="0" flags="0x0"/>
      <component glyphName="uni0304.case" x="388" y="0" flags="0x0"/>
    </TTGlyph>
    <TTGlyph name="Eng" xMin="74" yMin="-193" xMax="457" yMax="688">
      <contour>
        <pt x="457" y="688" on="1"/>
        <pt x="457" y="-73" on="1"/>
        <pt x="457" y="-128" on="0"/>
        <pt x="432" y="-179" on="0"/>
        <pt x="380" y="-193" on="0"/>
        <pt x="326" y="-193" on="1"/>
        <pt x="326" y="-146" on="1"/>
        <pt x="358" y="-146" on="0"/>
        <pt x="388" y="-136" on="0"/>
        <pt x="397" y="-114" on="0"/>
        <pt x="397" y="-90" on="1"/>
        <pt x="397" y="2" on="1"/>
        <pt x="137" y="553" on="1"/>
        <pt x="133" y="553" on="1"/>
        <pt x="133" y="0" on="1"/>
        <pt x="74" y="0" on="1"/>
        <pt x="74" y="688" on="1"/>
        <pt x="140" y="688" on="1"/>
        <pt x="393" y="146" on="1"/>
        <pt x="397" y="146" on="1"/>
        <pt x="397" y="688" on="1"/>
      </contour>
    </TTGlyph>
    <TTGlyph name="Eogonek" xMin="74" yMin="-196" xMax="393" yMax="688">
      <contour>
        <pt x="315" y="-196" on="0"/>
        <pt x="274" y="-156" on="0"/>
        <pt x="274" y="-124" on="1"/>
        <pt x="274" y="-93" on="0"/>
        <pt x="311" y="-28" on="0"/>
        <pt x="341" y="0" on="1"/>
        <pt x="74" y="0" on="1"/>
        <pt x="74" y="688" on="1"/>
        <pt x="393" y="688" on="1"/>
        <pt x="393" y="633" on="1"/>
        <pt x="136" y="633" on="1"/>
        <pt x="136" y="375" on="1"/>
        <pt x="360" y="375" on="1"/>
        <pt x="360" y="320" on="1"/>
        <pt x="136" y="320" on="1"/>
        <pt x="136" y="55" on="1"/>
        <pt x="393" y="55" on="1"/>
        <pt x="393" y="0" on="1"/>
        <pt x="369" y="-18" on="0"/>
        <pt x="326" y="-83" on="0"/>
        <pt x="326" y="-111" on="1"/>
        <pt x="326" y="-130" on="0"/>
        <pt x="348" y="-154" on="0"/>
        <pt x="372" y="-154" on="1"/>
        <pt x="389" y="-153" on="1"/>
        <pt x="389" y="-194" on="1"/>
        <pt x="378" y="-196" on="0"/>
        <pt x="358" y="-196" on="1"/>
      </contour>
    </TTGlyph>
    <TTGlyph name="Eth" xMin="16" yMin="0" xMax="442" yMax="688">
      <contour>
        <pt x="74" y="322" on="1"/>
        <pt x="16" y="322" on="1"/>
        <pt x="16" y="376" on="1"/>
        <pt x="74" y="376" on="1"/>
        <pt x="74" y="688" on="1"/>
        <pt x="234" y="688" on="1"/>
        <pt x="333" y="688" on="0"/>
        <pt x="417" y="638" on="0"/>
        <pt x="442" y="503" on="0"/>
        <pt x="442" y="344" on="1"/>
        <pt x="442" y="185" on="0"/>
        <pt x="417" y="50" on="0"/>
        <pt x="333" y="0" on="0"/>
        <pt x="234" y="0" on="1"/>
        <pt x="74" y="0" on="1"/>
      </contour>
      <contour>
        <pt x="304" y="55" on="0"/>
        <pt x="361" y="85" on="0"/>
        <pt x="380" y="198" on="0"/>
        <pt x="380" y="344" on="1"/>
        <pt x="380" y="489" on="0"/>
        <pt x="361" y="603" on="0"/>
        <pt x="304" y="633" on="0"/>
        <pt x="230" y="633" on="1"/>
        <pt x="136" y="633" on="1"/>
        <pt x="136" y="376" on="1"/>
        <pt x="243" y="376" on="1"/>
        <pt x="243" y="322" on="1"/>
        <pt x="136" y="322" on="1"/>
        <pt x="136" y="55" on="1"/>
        <pt x="230" y="55" on="1"/>
      </contour>
    </TTGlyph>
    <TTGlyph name="Euro" xMin="37" yMin="-8" xMax="403" yMax="696">
      <contour>
        <pt x="214" y="-8" on="0"/>
        <pt x="135" y="30" on="0"/>
        <pt x="100" y="136" on="0"/>
        <pt x="96" y="247" on="1"/>
        <pt x="37" y="247" on="1"/>
        <pt x="37" y="291" on="1"/>
        <pt x="94" y="291" on="1"/>
        <pt x="94" y="400" on="1"/>
        <pt x="37" y="400" on="1"/>
        <pt x="37" y="444" on="1"/>
        <pt x="96" y="444" on="1"/>
        <pt x="100" y="551" on="0"/>
        <pt x="136" y="657" on="0"/>
        <pt x="215" y="696" on="0"/>
        <pt x="293" y="696" on="1"/>
        <pt x="322" y="696" on="0"/>
        <pt x="383" y="688" on="0"/>
        <pt x="401" y="683" on="1"/>
        <pt x="401" y="632" on="1"/>
        <pt x="352" y="641" on="0"/>
        <pt x="306" y="641" on="1"/>
        <pt x="243" y="641" on="0"/>
        <pt x="184" y="615" on="0"/>
        <pt x="160" y="534" on="0"/>
        <pt x="157" y="444" on="1"/>
        <pt x="362" y="444" on="1"/>
        <pt x="362" y="400" on="1"/>
        <pt x="156" y="400" on="1"/>
        <pt x="156" y="291" on="1"/>
        <pt x="362" y="291" on="1"/>
        <pt x="362" y="247" on="1"/>
        <pt x="157" y="247" on="1"/>
        <pt x="160" y="156" on="0"/>
        <pt x="184" y="74" on="0"/>
        <pt x="243" y="47" on="0"/>
        <pt x="306" y="47" on="1"/>
        <pt x="360" y="47" on="0"/>
        <pt x="403" y="56" on="1"/>
        <pt x="403" y="3" on="1"/>
        <pt x="383" y="-2" on="0"/>
        <pt x="321" y="-8" on="0"/>
        <pt x="293" y="-8" on="1"/>
      </contour>
    </TTGlyph>
    <TTGlyph name="F" xMin="74" yMin="0" xMax="379" yMax="688">
      <contour>
        <pt x="74" y="688" on="1"/>
        <pt x="379" y="688" on="1"/>
        <pt x="379" y="633" on="1"/>
        <pt x="136" y="633" on="1"/>
        <pt x="136" y="360" on="1"/>
        <pt x="353" y="360" on="1"/>
        <pt x="353" y="305" on="1"/>
        <pt x="136" y="305" on="1"/>
        <pt x="136" y="0" on="1"/>
        <pt x="74" y="0" on="1"/>
      </contour>
    </TTGlyph>
    <TTGlyph name="G" xMin="57" yMin="-8" xMax="426" yMax="696">
      <contour>
        <pt x="253" y="307" on="1"/>
        <pt x="253" y="361" on="1"/>
        <pt x="426" y="361" on="1"/>
        <pt x="426" y="10" on="1"/>
        <pt x="391" y="2" on="0"/>
        <pt x="303" y="-8" on="0"/>
        <pt x="267" y="-8" on="1"/>
        <pt x="177" y="-8" on="0"/>
        <pt x="91" y="44" on="0"/>
        <pt x="57" y="190" on="0"/>
        <pt x="57" y="344" on="1"/>
        <pt x="57" y="497" on="0"/>
        <pt x="90" y="642" on="0"/>
        <pt x="177" y="696" on="0"/>
        <pt x="268" y="696" on="1"/>
        <pt x="306" y="696" on="0"/>
        <pt x="395" y="685" on="0"/>
        <pt x="425" y="677" on="1"/>
        <pt x="425" y="626" on="1"/>
        <pt x="393" y="632" on="0"/>
        <pt x="319" y="641" on="0"/>
        <pt x="296" y="641" on="1"/>
        <pt x="212" y="641" on="0"/>
        <pt x="145" y="610" on="0"/>
        <pt x="119" y="491" on="0"/>
        <pt x="119" y="344" on="1"/>
        <pt x="119" y="209" on="0"/>
        <pt x="139" y="90" on="0"/>
        <pt x="199" y="46" on="0"/>
        <pt x="267" y="46" on="1"/>
        <pt x="291" y="46" on="0"/>
        <pt x="348" y="52" on="0"/>
        <pt x="366" y="56" on="1"/>
        <pt x="366" y="307" on="1"/>
      </contour>
    </TTGlyph>
    <TTGlyph name="G.ss01" xMin="57" yMin="-8" xMax="448" yMax="696">
      <contour>
        <pt x="174" y="-8" on="0"/>
        <pt x="88" y="44" on="0"/>
        <pt x="57" y="188" on="0"/>
        <pt x="57" y="344" on="1"/>
        <pt x="57" y="499" on="0"/>
        <pt x="91" y="645" on="0"/>
        <pt x="180" y="696" on="0"/>
        <pt x="275" y="696" on="1"/>
        <pt x="312" y="696" on="0"/>
        <pt x="400" y="685" on="0"/>
        <pt x="432" y="677" on="1"/>
        <pt x="432" y="626" on="1"/>
        <pt x="348" y="641" on="0"/>
        <pt x="299" y="641" on="1"/>
        <pt x="214" y="641" on="0"/>
        <pt x="145" y="610" on="0"/>
        <pt x="119" y="490" on="0"/>
        <pt x="119" y="344" on="1"/>
        <pt x="119" y="205" on="0"/>
        <pt x="138" y="86" on="0"/>
        <pt x="196" y="47" on="0"/>
        <pt x="265" y="47" on="1"/>
        <pt x="326" y="47" on="0"/>
        <pt x="374" y="77" on="0"/>
        <pt x="387" y="168" on="0"/>
        <pt x="387" y="289" on="1"/>
        <pt x="387" y="316" on="1"/>
        <pt x="268" y="316" on="1"/>
        <pt x="268" y="370" on="1"/>
        <pt x="448" y="370" on="1"/>
        <pt x="448" y="293" on="1"/>
        <pt x="448" y="155" on="0"/>
        <pt x="429" y="40" on="0"/>
        <pt x="355" y="-8" on="0"/>
        <pt x="267" y="-8" on="1"/>
      </contour>
    </TTGlyph>
    <TTGlyph name="G_tilde.loclGUA" xMin="57" yMin="-8" xMax="426" yMax="888">
      <component glyphName=".ttfautohint" x="57" y="0" flags="0x0"/>
      <component glyphName="G" x="0" y="0" flags="0x0"/>
      <component glyphName="tildecomb.case" x="387" y="0" flags="0x0"/>
    </TTGlyph>
    <TTGlyph name="Gbreve" xMin="57" yMin="-8" xMax="426" yMax="888">
      <component glyphName=".ttfautohint" x="57" y="0" flags="0x0"/>
      <component glyphName="G" x="0" y="0" flags="0x0"/>
      <component glyphName="uni0306.case" x="358" y="0" flags="0x0"/>
    </TTGlyph>
    <TTGlyph name="Gbreve.ss01" xMin="57" yMin="-8" xMax="448" yMax="888">
      <component glyphName=".ttfautohint" x="57" y="0" flags="0x0"/>
      <component glyphName="G.ss01" x="0" y="0" flags="0x0"/>
      <component glyphName="uni0306.case" x="367" y="0" flags="0x0"/>
    </TTGlyph>
    <TTGlyph name="Gcaron" xMin="57" yMin="-8" xMax="426" yMax="888">
      <component glyphName=".ttfautohint" x="57" y="0" flags="0x0"/>
      <component glyphName="G" x="0" y="0" flags="0x0"/>
      <component glyphName="uni030C.case" x="361" y="0" flags="0x0"/>
    </TTGlyph>
    <TTGlyph name="Gcaron.ss01" xMin="57" yMin="-8" xMax="448" yMax="888">
      <component glyphName=".ttfautohint" x="57" y="0" flags="0x0"/>
      <component glyphName="G.ss01" x="0" y="0" flags="0x0"/>
      <component glyphName="uni030C.case" x="369" y="0" flags="0x0"/>
    </TTGlyph>
    <TTGlyph name="Gcircumflex" xMin="57" yMin="-8" xMax="426" yMax="888">
      <component glyphName=".ttfautohint" x="57" y="0" flags="0x0"/>
      <component glyphName="G" x="0" y="0" flags="0x0"/>
      <component glyphName="uni0302.case" x="361" y="0" flags="0x0"/>
    </TTGlyph>
    <TTGlyph name="Gcircumflex.ss01" xMin="57" yMin="-8" xMax="448" yMax="888">
      <component glyphName=".ttfautohint" x="57" y="0" flags="0x0"/>
      <component glyphName="G.ss01" x="0" y="0" flags="0x0"/>
      <component glyphName="uni0302.case" x="369" y="0" flags="0x0"/>
    </TTGlyph>
    <TTGlyph name="Gcommaaccent" xMin="57" yMin="-245" xMax="426" yMax="696">
      <component glyphName=".ttfautohint" x="57" y="0" flags="0x0"/>
      <component glyphName="G" x="0" y="0" flags="0x0"/>
      <component glyphName="uni0326" x="333" y="0" flags="0x0"/>
    </TTGlyph>
    <TTGlyph name="Gcommaaccent.ss01" xMin="57" yMin="-245" xMax="448" yMax="696">
      <component glyphName=".ttfautohint" x="57" y="0" flags="0x0"/>
      <component glyphName="G.ss01" x="0" y="0" flags="0x0"/>
      <component glyphName="uni0326" x="342" y="0" flags="0x0"/>
    </TTGlyph>
    <TTGlyph name="Gdotaccent" xMin="57" yMin="-8" xMax="426" yMax="875">
      <component glyphName=".ttfautohint" x="57" y="0" flags="0x0"/>
      <component glyphName="G" x="0" y="0" flags="0x0"/>
      <component glyphName="uni0307.case" x="291" y="0" flags="0x0"/>
    </TTGlyph>
    <TTGlyph name="Gdotaccent.ss01" xMin="57" yMin="-8" xMax="448" yMax="875">
      <component glyphName=".ttfautohint" x="57" y="0" flags="0x0"/>
      <component glyphName="G.ss01" x="0" y="0" flags="0x0"/>
      <component glyphName="uni0307.case" x="299" y="0" flags="0x0"/>
    </TTGlyph>
    <TTGlyph name="Gtilde.loclGUA.ss01" xMin="57" yMin="-8" xMax="448" yMax="888">
      <component glyphName=".ttfautohint" x="57" y="0" flags="0x0"/>
      <component glyphName="G.ss01" x="0" y="0" flags="0x0"/>
      <component glyphName="tildecomb.case" x="396" y="0" flags="0x0"/>
    </TTGlyph>
    <TTGlyph name="H" xMin="74" yMin="0" xMax="456" yMax="688">
      <contour>
        <pt x="394" y="319" on="1"/>
        <pt x="136" y="319" on="1"/>
        <pt x="136" y="0" on="1"/>
        <pt x="74" y="0" on="1"/>
        <pt x="74" y="688" on="1"/>
        <pt x="136" y="688" on="1"/>
        <pt x="136" y="376" on="1"/>
        <pt x="394" y="376" on="1"/>
        <pt x="394" y="688" on="1"/>
        <pt x="456" y="688" on="1"/>
        <pt x="456" y="0" on="1"/>
        <pt x="394" y="0" on="1"/>
      </contour>
    </TTGlyph>
    <TTGlyph name="Hbar" xMin="74" yMin="0" xMax="456" yMax="688">
      <contour>
        <pt x="456" y="688" on="1"/>
        <pt x="456" y="0" on="1"/>
        <pt x="394" y="0" on="1"/>
        <pt x="394" y="294" on="1"/>
        <pt x="136" y="294" on="1"/>
        <pt x="136" y="0" on="1"/>
        <pt x="74" y="0" on="1"/>
        <pt x="74" y="688" on="1"/>
        <pt x="136" y="688" on="1"/>
        <pt x="136" y="542" on="1"/>
        <pt x="394" y="542" on="1"/>
        <pt x="394" y="688" on="1"/>
      </contour>
      <contour>
        <pt x="394" y="350" on="1"/>
        <pt x="394" y="488" on="1"/>
        <pt x="136" y="488" on="1"/>
        <pt x="136" y="350" on="1"/>
      </contour>
    </TTGlyph>
    <TTGlyph name="Hcircumflex" xMin="74" yMin="0" xMax="456" yMax="888">
      <component glyphName=".ttfautohint" x="74" y="0" flags="0x0"/>
      <component glyphName="H" x="0" y="0" flags="0x0"/>
      <component glyphName="uni0302.case" x="383" y="0" flags="0x0"/>
    </TTGlyph>
    <TTGlyph name="I" xMin="77" yMin="0" xMax="139" yMax="688">
      <contour>
        <pt x="77" y="688" on="1"/>
        <pt x="139" y="688" on="1"/>
        <pt x="139" y="0" on="1"/>
        <pt x="77" y="0" on="1"/>
      </contour>
    </TTGlyph>
    <TTGlyph name="IJ" xMin="77" yMin="0" xMax="389" yMax="688">
      <component glyphName=".ttfautohint" x="77" y="0" flags="0x0"/>
      <component glyphName="I" x="0" y="0" flags="0x0"/>
      <component glyphName="J" x="215" y="0" flags="0x0"/>
    </TTGlyph>
    <TTGlyph name="Iacute" xMin="77" yMin="0" xMax="195" yMax="890">
      <component glyphName=".ttfautohint" x="77" y="0" flags="0x0"/>
      <component glyphName="I" x="0" y="0" flags="0x0"/>
      <component glyphName="acute" x="70" y="147" flags="0x4"/>
    </TTGlyph>
    <TTGlyph name="Iacute_J.loclNLD" xMin="77" yMin="0" xMax="450" yMax="888">
      <component glyphName=".ttfautohint" x="77" y="0" flags="0x0"/>
      <component glyphName="I" x="0" y="0" flags="0x0"/>
      <component glyphName="acutecomb.case" x="206" y="0" flags="0x0"/>
      <component glyphName="J" x="215" y="0" flags="0x0"/>
      <component glyphName="acutecomb.case" x="457" y="0" flags="0x0"/>
    </TTGlyph>
    <TTGlyph name="Ibreve" xMin="-2" yMin="0" xMax="216" yMax="888">
      <component glyphName=".ttfautohint" x="0" y="0" flags="0x0"/>
      <component glyphName="I" x="0" y="0" flags="0x0"/>
      <component glyphName="uni0306.case" x="223" y="0" flags="0x0"/>
    </TTGlyph>
    <TTGlyph name="Icircumflex" xMin="-3" yMin="0" xMax="220" yMax="888">
      <component glyphName=".ttfautohint" x="0" y="0" flags="0x0"/>
      <component glyphName="I" x="0" y="0" flags="0x0"/>
      <component glyphName="circumflex" x="-10" y="145" flags="0x4"/>
    </TTGlyph>
    <TTGlyph name="Idieresis" xMin="-9" yMin="0" xMax="226" yMax="844">
      <component glyphName=".ttfautohint" x="0" y="0" flags="0x0"/>
      <component glyphName="I" x="0" y="0" flags="0x0"/>
      <component glyphName="dieresis" x="-31" y="114" flags="0x4"/>
    </TTGlyph>
    <TTGlyph name="Idotaccent" xMin="77" yMin="0" xMax="139" yMax="875">
      <component glyphName=".ttfautohint" x="77" y="0" flags="0x0"/>
      <component glyphName="I" x="0" y="0" flags="0x0"/>
      <component glyphName="uni0307.case" x="156" y="0" flags="0x0"/>
    </TTGlyph>
    <TTGlyph name="Igrave" xMin="22" yMin="0" xMax="140" yMax="890">
      <component glyphName=".ttfautohint" x="22" y="0" flags="0x0"/>
      <component glyphName="I" x="0" y="0" flags="0x0"/>
      <component glyphName="grave" x="15" y="147" flags="0x4"/>
    </TTGlyph>
    <TTGlyph name="Imacron" xMin="11" yMin="0" xMax="203" yMax="888">
      <component glyphName=".ttfautohint" x="11" y="0" flags="0x0"/>
      <component glyphName="I" x="0" y="0" flags="0x0"/>
      <component glyphName="uni0304.case" x="262" y="0" flags="0x0"/>
    </TTGlyph>
    <TTGlyph name="Iogonek" xMin="25" yMin="-196" xMax="140" yMax="688">
      <contour>
        <pt x="65" y="-196" on="0"/>
        <pt x="25" y="-155" on="0"/>
        <pt x="25" y="-121" on="1"/>
        <pt x="25" y="-92" on="0"/>
        <pt x="59" y="-26" on="0"/>
        <pt x="86" y="0" on="1"/>
        <pt x="77" y="0" on="1"/>
        <pt x="77" y="688" on="1"/>
        <pt x="139" y="688" on="1"/>
        <pt x="139" y="0" on="1"/>
        <pt x="117" y="-18" on="0"/>
        <pt x="77" y="-84" on="0"/>
        <pt x="77" y="-110" on="1"/>
        <pt x="77" y="-154" on="0"/>
        <pt x="123" y="-154" on="1"/>
        <pt x="132" y="-154" on="0"/>
        <pt x="140" y="-153" on="1"/>
        <pt x="140" y="-194" on="1"/>
        <pt x="129" y="-196" on="0"/>
        <pt x="109" y="-196" on="1"/>
      </contour>
    </TTGlyph>
    <TTGlyph name="Itilde" xMin="-31" yMin="0" xMax="245" yMax="888">
      <component glyphName=".ttfautohint" x="0" y="0" flags="0x0"/>
      <component glyphName="I" x="0" y="0" flags="0x0"/>
      <component glyphName="tildecomb.case" x="252" y="0" flags="0x0"/>
    </TTGlyph>
    <TTGlyph name="J" xMin="17" yMin="0" xMax="174" yMax="688">
      <contour>
        <pt x="68" y="55" on="0"/>
        <pt x="103" y="74" on="0"/>
        <pt x="112" y="139" on="0"/>
        <pt x="112" y="236" on="1"/>
        <pt x="112" y="688" on="1"/>
        <pt x="174" y="688" on="1"/>
        <pt x="174" y="250" on="1"/>
        <pt x="174" y="122" on="0"/>
        <pt x="157" y="29" on="0"/>
        <pt x="98" y="1" on="0"/>
        <pt x="17" y="0" on="1"/>
        <pt x="17" y="53" on="1"/>
      </contour>
    </TTGlyph>
    <TTGlyph name="Jcircumflex" xMin="17" yMin="0" xMax="255" yMax="888">
      <component glyphName=".ttfautohint" x="17" y="0" flags="0x0"/>
      <component glyphName="J" x="0" y="0" flags="0x0"/>
      <component glyphName="uni0302.case" x="261" y="0" flags="0x0"/>
    </TTGlyph>
    <TTGlyph name="K" xMin="74" yMin="0" xMax="463" yMax="688">
      <contour>
        <pt x="227" y="322" on="1"/>
        <pt x="136" y="322" on="1"/>
        <pt x="136" y="0" on="1"/>
        <pt x="74" y="0" on="1"/>
        <pt x="74" y="688" on="1"/>
        <pt x="136" y="688" on="1"/>
        <pt x="136" y="376" on="1"/>
        <pt x="227" y="376" on="1"/>
        <pt x="394" y="688" on="1"/>
        <pt x="460" y="688" on="1"/>
        <pt x="278" y="352" on="1"/>
        <pt x="463" y="0" on="1"/>
        <pt x="394" y="0" on="1"/>
      </contour>
    </TTGlyph>
    <TTGlyph name="Kcommaaccent" xMin="74" yMin="-245" xMax="463" yMax="688">
      <component glyphName=".ttfautohint" x="74" y="0" flags="0x0"/>
      <component glyphName="K" x="0" y="0" flags="0x0"/>
      <component glyphName="uni0326" x="331" y="0" flags="0x0"/>
    </TTGlyph>
    <TTGlyph name="L" xMin="74" yMin="0" xMax="365" yMax="688">
      <contour>
        <pt x="74" y="688" on="1"/>
        <pt x="136" y="688" on="1"/>
        <pt x="136" y="56" on="1"/>
        <pt x="365" y="56" on="1"/>
        <pt x="365" y="0" on="1"/>
        <pt x="74" y="0" on="1"/>
      </contour>
    </TTGlyph>
    <TTGlyph name="Lacute" xMin="74" yMin="0" xMax="365" yMax="888">
      <component glyphName=".ttfautohint" x="74" y="0" flags="0x0"/>
      <component glyphName="L" x="0" y="0" flags="0x0"/>
      <component glyphName="acutecomb.case" x="207" y="0" flags="0x0"/>
    </TTGlyph>
    <TTGlyph name="Lcaron" xMin="74" yMin="0" xMax="365" yMax="693">
      <component glyphName=".ttfautohint" x="74" y="0" flags="0x0"/>
      <component glyphName="L" x="0" y="0" flags="0x0"/>
      <component glyphName="caron.loclCSY" x="204" y="5" flags="0x4"/>
    </TTGlyph>
    <TTGlyph name="Lcommaaccent" xMin="74" yMin="-245" xMax="365" yMax="688">
      <component glyphName=".ttfautohint" x="74" y="0" flags="0x0"/>
      <component glyphName="L" x="0" y="0" flags="0x0"/>
      <component glyphName="uni0326" x="292" y="0" flags="0x0"/>
    </TTGlyph>
    <TTGlyph name="Ldot" xMin="74" yMin="0" xMax="365" yMax="688">
      <component glyphName=".ttfautohint" x="74" y="0" flags="0x0"/>
      <component glyphName="L" x="0" y="0" flags="0x0"/>
      <component glyphName="periodcentered" x="215" y="60" flags="0x4"/>
    </TTGlyph>
    <TTGlyph name="Lslash" xMin="23" yMin="0" xMax="365" yMax="688">
      <contour>
        <pt x="365" y="56" on="1"/>
        <pt x="365" y="0" on="1"/>
        <pt x="74" y="0" on="1"/>
        <pt x="74" y="287" on="1"/>
        <pt x="23" y="269" on="1"/>
        <pt x="23" y="321" on="1"/>
        <pt x="74" y="339" on="1"/>
        <pt x="74" y="688" on="1"/>
        <pt x="136" y="688" on="1"/>
        <pt x="136" y="362" on="1"/>
        <pt x="281" y="416" on="1"/>
        <pt x="281" y="364" on="1"/>
        <pt x="136" y="310" on="1"/>
        <pt x="136" y="56" on="1"/>
      </contour>
    </TTGlyph>
    <TTGlyph name="M" xMin="74" yMin="0" xMax="593" yMax="688">
      <contour>
        <pt x="532" y="573" on="1"/>
        <pt x="528" y="573" on="1"/>
        <pt x="361" y="0" on="1"/>
        <pt x="302" y="0" on="1"/>
        <pt x="137" y="573" on="1"/>
        <pt x="133" y="573" on="1"/>
        <pt x="133" y="0" on="1"/>
        <pt x="74" y="0" on="1"/>
        <pt x="74" y="688" on="1"/>
        <pt x="163" y="688" on="1"/>
        <pt x="331" y="107" on="1"/>
        <pt x="336" y="107" on="1"/>
        <pt x="505" y="688" on="1"/>
        <pt x="593" y="688" on="1"/>
        <pt x="593" y="0" on="1"/>
        <pt x="532" y="0" on="1"/>
      </contour>
    </TTGlyph>
    <TTGlyph name="N" xMin="74" yMin="0" xMax="457" yMax="688">
      <contour>
        <pt x="137" y="553" on="1"/>
        <pt x="133" y="553" on="1"/>
        <pt x="133" y="0" on="1"/>
        <pt x="74" y="0" on="1"/>
        <pt x="74" y="688" on="1"/>
        <pt x="140" y="688" on="1"/>
        <pt x="393" y="141" on="1"/>
        <pt x="397" y="141" on="1"/>
        <pt x="397" y="688" on="1"/>
        <pt x="457" y="688" on="1"/>
        <pt x="457" y="0" on="1"/>
        <pt x="393" y="0" on="1"/>
      </contour>
    </TTGlyph>
    <TTGlyph name="Nacute" xMin="74" yMin="0" xMax="457" yMax="888">
      <component glyphName=".ttfautohint" x="74" y="0" flags="0x0"/>
      <component glyphName="N" x="0" y="0" flags="0x0"/>
      <component glyphName="acutecomb.case" x="364" y="0" flags="0x0"/>
    </TTGlyph>
    <TTGlyph name="Nacute.loclPLK" xMin="74" yMin="0" xMax="457" yMax="888">
      <component glyphName=".ttfautohint" x="74" y="0" flags="0x0"/>
      <component glyphName="N" x="0" y="0" flags="0x0"/>
      <component glyphName="acute.case.loclPLK" x="232" y="0" flags="0x0"/>
    </TTGlyph>
    <TTGlyph name="Ncaron" xMin="74" yMin="0" xMax="457" yMax="888">
      <component glyphName=".ttfautohint" x="74" y="0" flags="0x0"/>
      <component glyphName="N" x="0" y="0" flags="0x0"/>
      <component glyphName="uni030C.case" x="383" y="0" flags="0x0"/>
    </TTGlyph>
    <TTGlyph name="Ncommaaccent" xMin="74" yMin="-245" xMax="457" yMax="688">
      <component glyphName=".ttfautohint" x="74" y="0" flags="0x0"/>
      <component glyphName="N" x="0" y="0" flags="0x0"/>
      <component glyphName="uni0326" x="356" y="0" flags="0x0"/>
    </TTGlyph>
    <TTGlyph name="Ntilde" xMin="74" yMin="0" xMax="457" yMax="866">
      <component glyphName=".ttfautohint" x="74" y="0" flags="0x0"/>
      <component glyphName="N" x="0" y="0" flags="0x0"/>
      <component glyphName="tilde" x="122" y="123" flags="0x4"/>
    </TTGlyph>
    <TTGlyph name="O" xMin="57" yMin="-8" xMax="464" yMax="696">
      <contour>
        <pt x="163" y="-8" on="0"/>
        <pt x="81" y="44" on="0"/>
        <pt x="57" y="181" on="0"/>
        <pt x="57" y="344" on="1"/>
        <pt x="57" y="507" on="0"/>
        <pt x="81" y="644" on="0"/>
        <pt x="163" y="696" on="0"/>
        <pt x="260" y="696" on="1"/>
        <pt x="357" y="696" on="0"/>
        <pt x="440" y="644" on="0"/>
        <pt x="464" y="507" on="0"/>
        <pt x="464" y="344" on="1"/>
        <pt x="464" y="181" on="0"/>
        <pt x="440" y="44" on="0"/>
        <pt x="357" y="-8" on="0"/>
        <pt x="260" y="-8" on="1"/>
      </contour>
      <contour>
        <pt x="330" y="47" on="0"/>
        <pt x="383" y="78" on="0"/>
        <pt x="402" y="195" on="0"/>
        <pt x="402" y="344" on="1"/>
        <pt x="402" y="493" on="0"/>
        <pt x="383" y="610" on="0"/>
        <pt x="330" y="641" on="0"/>
        <pt x="260" y="641" on="1"/>
        <pt x="190" y="641" on="0"/>
        <pt x="137" y="610" on="0"/>
        <pt x="119" y="493" on="0"/>
        <pt x="119" y="344" on="1"/>
        <pt x="119" y="195" on="0"/>
        <pt x="137" y="78" on="0"/>
        <pt x="190" y="47" on="0"/>
        <pt x="260" y="47" on="1"/>
      </contour>
    </TTGlyph>
    <TTGlyph name="OE" xMin="57" yMin="0" xMax="709" yMax="688">
      <contour>
        <pt x="163" y="0" on="0"/>
        <pt x="81" y="50" on="0"/>
        <pt x="57" y="185" on="0"/>
        <pt x="57" y="344" on="1"/>
        <pt x="57" y="503" on="0"/>
        <pt x="81" y="638" on="0"/>
        <pt x="163" y="688" on="0"/>
        <pt x="260" y="688" on="1"/>
        <pt x="709" y="688" on="1"/>
        <pt x="709" y="633" on="1"/>
        <pt x="474" y="633" on="1"/>
        <pt x="438" y="633" on="0"/>
        <pt x="415" y="638" on="1"/>
        <pt x="443" y="610" on="0"/>
        <pt x="463" y="491" on="0"/>
        <pt x="464" y="375" on="1"/>
        <pt x="676" y="375" on="1"/>
        <pt x="676" y="320" on="1"/>
        <pt x="464" y="320" on="1"/>
        <pt x="463" y="200" on="0"/>
        <pt x="443" y="78" on="0"/>
        <pt x="415" y="50" on="1"/>
        <pt x="448" y="55" on="0"/>
        <pt x="474" y="55" on="1"/>
        <pt x="709" y="55" on="1"/>
        <pt x="709" y="0" on="1"/>
        <pt x="260" y="0" on="1"/>
      </contour>
      <contour>
        <pt x="330" y="55" on="0"/>
        <pt x="383" y="85" on="0"/>
        <pt x="402" y="199" on="0"/>
        <pt x="402" y="344" on="1"/>
        <pt x="402" y="489" on="0"/>
        <pt x="383" y="603" on="0"/>
        <pt x="330" y="633" on="0"/>
        <pt x="260" y="633" on="1"/>
        <pt x="190" y="633" on="0"/>
        <pt x="137" y="603" on="0"/>
        <pt x="119" y="489" on="0"/>
        <pt x="119" y="344" on="1"/>
        <pt x="119" y="199" on="0"/>
        <pt x="137" y="85" on="0"/>
        <pt x="190" y="55" on="0"/>
        <pt x="260" y="55" on="1"/>
      </contour>
    </TTGlyph>
    <TTGlyph name="Oacute" xMin="57" yMin="-8" xMax="464" yMax="890">
      <component glyphName=".ttfautohint" x="57" y="0" flags="0x0"/>
      <component glyphName="O" x="0" y="0" flags="0x0"/>
      <component glyphName="acute" x="226" y="147" flags="0x4"/>
    </TTGlyph>
    <TTGlyph name="Oacute.loclPLK" xMin="57" yMin="-8" xMax="464" yMax="888">
      <component glyphName=".ttfautohint" x="57" y="0" flags="0x0"/>
      <component glyphName="O" x="0" y="0" flags="0x0"/>
      <component glyphName="acute.case.loclPLK" x="227" y="0" flags="0x0"/>
    </TTGlyph>
    <TTGlyph name="Obreve" xMin="57" yMin="-8" xMax="464" yMax="888">
      <component glyphName=".ttfautohint" x="57" y="0" flags="0x0"/>
      <component glyphName="O" x="0" y="0" flags="0x0"/>
      <component glyphName="uni0306.case" x="376" y="0" flags="0x0"/>
    </TTGlyph>
    <TTGlyph name="Ocircumflex" xMin="57" yMin="-8" xMax="464" yMax="888">
      <component glyphName=".ttfautohint" x="57" y="0" flags="0x0"/>
      <component glyphName="O" x="0" y="0" flags="0x0"/>
      <component glyphName="circumflex" x="142" y="145" flags="0x4"/>
    </TTGlyph>
    <TTGlyph name="Odieresis" xMin="57" yMin="-8" xMax="464" yMax="844">
      <component glyphName=".ttfautohint" x="57" y="0" flags="0x0"/>
      <component glyphName="O" x="0" y="0" flags="0x0"/>
      <component glyphName="dieresis" x="121" y="114" flags="0x4"/>
    </TTGlyph>
    <TTGlyph name="Ograve" xMin="57" yMin="-8" xMax="464" yMax="890">
      <component glyphName=".ttfautohint" x="57" y="0" flags="0x0"/>
      <component glyphName="O" x="0" y="0" flags="0x0"/>
      <component glyphName="grave" x="161" y="147" flags="0x4"/>
    </TTGlyph>
    <TTGlyph name="Ohorn" xMin="57" yMin="-8" xMax="494" yMax="785">
      <contour>
        <pt x="494" y="785" on="1"/>
        <pt x="494" y="752" on="1"/>
        <pt x="494" y="714" on="0"/>
        <pt x="482" y="674" on="0"/>
        <pt x="450" y="656" on="0"/>
        <pt x="418" y="654" on="1"/>
        <pt x="447" y="622" on="0"/>
        <pt x="464" y="487" on="0"/>
        <pt x="464" y="344" on="1"/>
        <pt x="464" y="181" on="0"/>
        <pt x="440" y="44" on="0"/>
        <pt x="357" y="-8" on="0"/>
        <pt x="260" y="-8" on="1"/>
        <pt x="163" y="-8" on="0"/>
        <pt x="81" y="44" on="0"/>
        <pt x="57" y="181" on="0"/>
        <pt x="57" y="344" on="1"/>
        <pt x="57" y="507" on="0"/>
        <pt x="81" y="644" on="0"/>
        <pt x="163" y="696" on="0"/>
        <pt x="260" y="696" on="1"/>
        <pt x="321" y="696" on="0"/>
        <pt x="354" y="688" on="1"/>
        <pt x="397" y="688" on="1"/>
        <pt x="431" y="688" on="0"/>
        <pt x="450" y="710" on="0"/>
        <pt x="450" y="742" on="1"/>
        <pt x="450" y="785" on="1"/>
      </contour>
      <contour>
        <pt x="330" y="47" on="0"/>
        <pt x="383" y="78" on="0"/>
        <pt x="402" y="195" on="0"/>
        <pt x="402" y="344" on="1"/>
        <pt x="402" y="493" on="0"/>
        <pt x="383" y="610" on="0"/>
        <pt x="330" y="641" on="0"/>
        <pt x="260" y="641" on="1"/>
        <pt x="190" y="641" on="0"/>
        <pt x="137" y="610" on="0"/>
        <pt x="119" y="493" on="0"/>
        <pt x="119" y="344" on="1"/>
        <pt x="119" y="195" on="0"/>
        <pt x="137" y="78" on="0"/>
        <pt x="190" y="47" on="0"/>
        <pt x="260" y="47" on="1"/>
      </contour>
    </TTGlyph>
    <TTGlyph name="Ohungarumlaut" xMin="57" yMin="-8" xMax="464" yMax="878">
      <component glyphName=".ttfautohint" x="57" y="0" flags="0x0"/>
      <component glyphName="O" x="0" y="0" flags="0x0"/>
      <component glyphName="uni030B.case" x="438" y="0" flags="0x0"/>
    </TTGlyph>
    <TTGlyph name="Omacron" xMin="57" yMin="-8" xMax="464" yMax="888">
      <component glyphName=".ttfautohint" x="57" y="0" flags="0x0"/>
      <component glyphName="O" x="0" y="0" flags="0x0"/>
      <component glyphName="uni0304.case" x="415" y="0" flags="0x0"/>
    </TTGlyph>
    <TTGlyph name="Oslash" xMin="57" yMin="-55" xMax="464" yMax="743">
      <contour>
        <pt x="448" y="615" on="0"/>
        <pt x="464" y="481" on="0"/>
        <pt x="464" y="344" on="1"/>
        <pt x="464" y="181" on="0"/>
        <pt x="440" y="44" on="0"/>
        <pt x="357" y="-8" on="0"/>
        <pt x="260" y="-8" on="1"/>
        <pt x="178" y="-8" on="0"/>
        <pt x="140" y="9" on="1"/>
        <pt x="112" y="-55" on="1"/>
        <pt x="57" y="-55" on="1"/>
        <pt x="99" y="40" on="1"/>
        <pt x="72" y="73" on="0"/>
        <pt x="57" y="205" on="0"/>
        <pt x="57" y="344" on="1"/>
        <pt x="57" y="507" on="0"/>
        <pt x="81" y="644" on="0"/>
        <pt x="163" y="696" on="0"/>
        <pt x="260" y="696" on="1"/>
        <pt x="342" y="696" on="0"/>
        <pt x="381" y="680" on="1"/>
        <pt x="409" y="743" on="1"/>
        <pt x="464" y="743" on="1"/>
        <pt x="422" y="649" on="1"/>
      </contour>
      <contour>
        <pt x="119" y="244" on="0"/>
        <pt x="123" y="143" on="0"/>
        <pt x="131" y="113" on="1"/>
        <pt x="358" y="628" on="1"/>
        <pt x="344" y="636" on="0"/>
        <pt x="300" y="641" on="0"/>
        <pt x="260" y="641" on="1"/>
        <pt x="190" y="641" on="0"/>
        <pt x="137" y="610" on="0"/>
        <pt x="119" y="493" on="0"/>
        <pt x="119" y="344" on="1"/>
      </contour>
      <contour>
        <pt x="330" y="47" on="0"/>
        <pt x="383" y="78" on="0"/>
        <pt x="402" y="195" on="0"/>
        <pt x="402" y="344" on="1"/>
        <pt x="402" y="444" on="0"/>
        <pt x="398" y="546" on="0"/>
        <pt x="390" y="576" on="1"/>
        <pt x="163" y="61" on="1"/>
        <pt x="177" y="52" on="0"/>
        <pt x="221" y="47" on="0"/>
        <pt x="260" y="47" on="1"/>
      </contour>
    </TTGlyph>
    <TTGlyph name="Oslashacute" xMin="57" yMin="-55" xMax="464" yMax="888">
      <component glyphName=".ttfautohint" x="57" y="0" flags="0x0"/>
      <component glyphName="Oslash" x="0" y="0" flags="0x0"/>
      <component glyphName="acutecomb.case" x="359" y="0" flags="0x0"/>
    </TTGlyph>
    <TTGlyph name="Otilde" xMin="57" yMin="-8" xMax="464" yMax="865">
      <component glyphName=".ttfautohint" x="57" y="0" flags="0x0"/>
      <component glyphName="O" x="0" y="0" flags="0x0"/>
      <component glyphName="tilde" x="116" y="122" flags="0x4"/>
    </TTGlyph>
    <TTGlyph name="P" xMin="74" yMin="0" xMax="433" yMax="688">
      <contour>
        <pt x="74" y="688" on="1"/>
        <pt x="275" y="688" on="1"/>
        <pt x="345" y="688" on="0"/>
        <pt x="414" y="634" on="0"/>
        <pt x="433" y="546" on="0"/>
        <pt x="433" y="475" on="1"/>
        <pt x="433" y="407" on="0"/>
        <pt x="413" y="318" on="0"/>
        <pt x="344" y="262" on="0"/>
        <pt x="275" y="262" on="1"/>
        <pt x="136" y="262" on="1"/>
        <pt x="136" y="0" on="1"/>
        <pt x="74" y="0" on="1"/>
      </contour>
      <contour>
        <pt x="263" y="317" on="1"/>
        <pt x="311" y="317" on="0"/>
        <pt x="358" y="352" on="0"/>
        <pt x="371" y="416" on="0"/>
        <pt x="371" y="475" on="1"/>
        <pt x="371" y="535" on="0"/>
        <pt x="358" y="598" on="0"/>
        <pt x="312" y="633" on="0"/>
        <pt x="263" y="633" on="1"/>
        <pt x="136" y="633" on="1"/>
        <pt x="136" y="317" on="1"/>
      </contour>
    </TTGlyph>
    <TTGlyph name="Q" xMin="57" yMin="-115" xMax="479" yMax="696">
      <contour>
        <pt x="479" y="-112" on="1"/>
        <pt x="479" y="-115" on="1"/>
        <pt x="412" y="-115" on="1"/>
        <pt x="349" y="-1" on="1"/>
        <pt x="314" y="-8" on="0"/>
        <pt x="260" y="-8" on="1"/>
        <pt x="163" y="-8" on="0"/>
        <pt x="81" y="44" on="0"/>
        <pt x="57" y="181" on="0"/>
        <pt x="57" y="344" on="1"/>
        <pt x="57" y="507" on="0"/>
        <pt x="81" y="644" on="0"/>
        <pt x="163" y="696" on="0"/>
        <pt x="260" y="696" on="1"/>
        <pt x="357" y="696" on="0"/>
        <pt x="440" y="644" on="0"/>
        <pt x="464" y="507" on="0"/>
        <pt x="464" y="344" on="1"/>
        <pt x="464" y="239" on="0"/>
        <pt x="456" y="118" on="0"/>
        <pt x="429" y="42" on="0"/>
        <pt x="403" y="22" on="1"/>
      </contour>
      <contour>
        <pt x="304" y="47" on="0"/>
        <pt x="321" y="49" on="1"/>
        <pt x="226" y="218" on="1"/>
        <pt x="291" y="218" on="1"/>
        <pt x="372" y="75" on="1"/>
        <pt x="391" y="99" on="0"/>
        <pt x="402" y="215" on="0"/>
        <pt x="402" y="344" on="1"/>
        <pt x="402" y="493" on="0"/>
        <pt x="383" y="610" on="0"/>
        <pt x="330" y="641" on="0"/>
        <pt x="260" y="641" on="1"/>
        <pt x="190" y="641" on="0"/>
        <pt x="137" y="610" on="0"/>
        <pt x="119" y="493" on="0"/>
        <pt x="119" y="344" on="1"/>
        <pt x="119" y="195" on="0"/>
        <pt x="137" y="78" on="0"/>
        <pt x="190" y="47" on="0"/>
        <pt x="260" y="47" on="1"/>
      </contour>
    </TTGlyph>
    <TTGlyph name="R" xMin="74" yMin="0" xMax="450" yMax="688">
      <contour>
        <pt x="384" y="0" on="1"/>
        <pt x="296" y="283" on="1"/>
        <pt x="289" y="282" on="0"/>
        <pt x="276" y="282" on="1"/>
        <pt x="136" y="282" on="1"/>
        <pt x="136" y="0" on="1"/>
        <pt x="74" y="0" on="1"/>
        <pt x="74" y="688" on="1"/>
        <pt x="283" y="688" on="1"/>
        <pt x="352" y="688" on="0"/>
        <pt x="421" y="636" on="0"/>
        <pt x="440" y="552" on="0"/>
        <pt x="440" y="485" on="1"/>
        <pt x="440" y="409" on="0"/>
        <pt x="408" y="314" on="0"/>
        <pt x="356" y="295" on="1"/>
        <pt x="450" y="0" on="1"/>
      </contour>
      <contour>
        <pt x="317" y="337" on="0"/>
        <pt x="364" y="370" on="0"/>
        <pt x="377" y="430" on="0"/>
        <pt x="377" y="485" on="1"/>
        <pt x="377" y="540" on="0"/>
        <pt x="365" y="600" on="0"/>
        <pt x="319" y="633" on="0"/>
        <pt x="271" y="633" on="1"/>
        <pt x="136" y="633" on="1"/>
        <pt x="136" y="337" on="1"/>
        <pt x="269" y="337" on="1"/>
      </contour>
    </TTGlyph>
    <TTGlyph name="R.ss01" xMin="74" yMin="0" xMax="443" yMax="688">
      <contour>
        <pt x="443" y="0" on="1"/>
        <pt x="382" y="0" on="1"/>
        <pt x="375" y="151" on="1"/>
        <pt x="372" y="197" on="0"/>
        <pt x="360" y="250" on="0"/>
        <pt x="316" y="286" on="0"/>
        <pt x="271" y="286" on="1"/>
        <pt x="136" y="286" on="1"/>
        <pt x="136" y="0" on="1"/>
        <pt x="74" y="0" on="1"/>
        <pt x="74" y="688" on="1"/>
        <pt x="287" y="688" on="1"/>
        <pt x="374" y="688" on="0"/>
        <pt x="440" y="598" on="0"/>
        <pt x="440" y="501" on="1"/>
        <pt x="440" y="413" on="0"/>
        <pt x="395" y="333" on="0"/>
        <pt x="347" y="320" on="1"/>
        <pt x="347" y="316" on="1"/>
        <pt x="377" y="307" on="0"/>
        <pt x="413" y="278" on="0"/>
        <pt x="433" y="220" on="0"/>
        <pt x="435" y="170" on="1"/>
      </contour>
      <contour>
        <pt x="315" y="340" on="0"/>
        <pt x="361" y="374" on="0"/>
        <pt x="377" y="436" on="0"/>
        <pt x="377" y="487" on="1"/>
        <pt x="377" y="541" on="0"/>
        <pt x="365" y="600" on="0"/>
        <pt x="319" y="633" on="0"/>
        <pt x="272" y="633" on="1"/>
        <pt x="136" y="633" on="1"/>
        <pt x="136" y="340" on="1"/>
        <pt x="271" y="340" on="1"/>
      </contour>
    </TTGlyph>
    <TTGlyph name="Racute" xMin="74" yMin="0" xMax="450" yMax="888">
      <component glyphName=".ttfautohint" x="74" y="0" flags="0x0"/>
      <component glyphName="R" x="0" y="0" flags="0x0"/>
      <component glyphName="acutecomb.case" x="346" y="0" flags="0x0"/>
    </TTGlyph>
    <TTGlyph name="Racute.ss01" xMin="74" yMin="0" xMax="443" yMax="888">
      <component glyphName=".ttfautohint" x="74" y="0" flags="0x0"/>
      <component glyphName="R.ss01" x="0" y="0" flags="0x0"/>
      <component glyphName="acutecomb.case" x="348" y="0" flags="0x0"/>
    </TTGlyph>
    <TTGlyph name="Rcaron" xMin="74" yMin="0" xMax="450" yMax="888">
      <component glyphName=".ttfautohint" x="74" y="0" flags="0x0"/>
      <component glyphName="R" x="0" y="0" flags="0x0"/>
      <component glyphName="uni030C.case" x="366" y="0" flags="0x0"/>
    </TTGlyph>
    <TTGlyph name="Rcaron.ss01" xMin="74" yMin="0" xMax="443" yMax="888">
      <component glyphName=".ttfautohint" x="74" y="0" flags="0x0"/>
      <component glyphName="R.ss01" x="0" y="0" flags="0x0"/>
      <component glyphName="uni030C.case" x="368" y="0" flags="0x0"/>
    </TTGlyph>
    <TTGlyph name="Rcommaaccent" xMin="74" yMin="-245" xMax="450" yMax="688">
      <component glyphName=".ttfautohint" x="74" y="0" flags="0x0"/>
      <component glyphName="R" x="0" y="0" flags="0x0"/>
      <component glyphName="uni0326" x="338" y="0" flags="0x0"/>
    </TTGlyph>
    <TTGlyph name="Rcommaaccent.ss01" xMin="74" yMin="-245" xMax="443" yMax="688">
      <component glyphName=".ttfautohint" x="74" y="0" flags="0x0"/>
      <component glyphName="R.ss01" x="0" y="0" flags="0x0"/>
      <component glyphName="uni0326" x="340" y="0" flags="0x0"/>
    </TTGlyph>
    <TTGlyph name="S" xMin="44" yMin="-8" xMax="401" yMax="696">
      <contour>
        <pt x="185" y="-8" on="0"/>
        <pt x="92" y="-1" on="0"/>
        <pt x="58" y="5" on="1"/>
        <pt x="58" y="59" on="1"/>
        <pt x="92" y="54" on="0"/>
        <pt x="178" y="47" on="0"/>
        <pt x="207" y="47" on="1"/>
        <pt x="247" y="47" on="0"/>
        <pt x="296" y="58" on="0"/>
        <pt x="313" y="73" on="1"/>
        <pt x="329" y="86" on="0"/>
        <pt x="339" y="141" on="0"/>
        <pt x="339" y="186" on="1"/>
        <pt x="339" y="246" on="0"/>
        <pt x="330" y="293" on="0"/>
        <pt x="298" y="312" on="0"/>
        <pt x="255" y="319" on="1"/>
        <pt x="134" y="338" on="1"/>
        <pt x="93" y="344" on="0"/>
        <pt x="55" y="386" on="0"/>
        <pt x="44" y="451" on="0"/>
        <pt x="44" y="509" on="1"/>
        <pt x="44" y="611" on="0"/>
        <pt x="129" y="696" on="0"/>
        <pt x="226" y="696" on="1"/>
        <pt x="269" y="696" on="0"/>
        <pt x="352" y="688" on="0"/>
        <pt x="376" y="681" on="1"/>
        <pt x="376" y="629" on="1"/>
        <pt x="347" y="634" on="0"/>
        <pt x="271" y="641" on="0"/>
        <pt x="240" y="641" on="1"/>
        <pt x="195" y="641" on="0"/>
        <pt x="142" y="626" on="0"/>
        <pt x="128" y="609" on="1"/>
        <pt x="115" y="593" on="0"/>
        <pt x="106" y="546" on="0"/>
        <pt x="106" y="509" on="1"/>
        <pt x="106" y="460" on="0"/>
        <pt x="115" y="416" on="0"/>
        <pt x="141" y="398" on="0"/>
        <pt x="170" y="394" on="1"/>
        <pt x="283" y="376" on="1"/>
        <pt x="330" y="368" on="0"/>
        <pt x="379" y="340" on="0"/>
        <pt x="391" y="305" on="1"/>
        <pt x="401" y="278" on="0"/>
        <pt x="401" y="193" on="1"/>
        <pt x="401" y="117" on="0"/>
        <pt x="369" y="31" on="0"/>
        <pt x="293" y="-8" on="0"/>
        <pt x="226" y="-8" on="1"/>
      </contour>
    </TTGlyph>
    <TTGlyph name="Sacute" xMin="44" yMin="-8" xMax="401" yMax="888">
      <component glyphName=".ttfautohint" x="44" y="0" flags="0x0"/>
      <component glyphName="S" x="0" y="0" flags="0x0"/>
      <component glyphName="acutecomb.case" x="321" y="0" flags="0x0"/>
    </TTGlyph>
    <TTGlyph name="Sacute.loclPLK" xMin="44" yMin="-8" xMax="401" yMax="888">
      <component glyphName=".ttfautohint" x="44" y="0" flags="0x0"/>
      <component glyphName="S" x="0" y="0" flags="0x0"/>
      <component glyphName="acute.case.loclPLK" x="189" y="0" flags="0x0"/>
    </TTGlyph>
    <TTGlyph name="Scaron" xMin="44" yMin="-8" xMax="401" yMax="888">
      <component glyphName=".ttfautohint" x="44" y="0" flags="0x0"/>
      <component glyphName="S" x="0" y="0" flags="0x0"/>
      <component glyphName="caron" x="109" y="145" flags="0x4"/>
    </TTGlyph>
    <TTGlyph name="Scedilla" xMin="44" yMin="-190" xMax="401" yMax="696">
      <contour>
        <pt x="401" y="120" on="0"/>
        <pt x="371" y="35" on="0"/>
        <pt x="302" y="-6" on="0"/>
        <pt x="242" y="-8" on="1"/>
        <pt x="202" y="-190" on="1"/>
        <pt x="142" y="-190" on="1"/>
        <pt x="142" y="-185" on="1"/>
        <pt x="198" y="-8" on="1"/>
        <pt x="120" y="-5" on="0"/>
        <pt x="58" y="5" on="1"/>
        <pt x="58" y="59" on="1"/>
        <pt x="92" y="54" on="0"/>
        <pt x="178" y="47" on="0"/>
        <pt x="207" y="47" on="1"/>
        <pt x="247" y="47" on="0"/>
        <pt x="296" y="58" on="0"/>
        <pt x="313" y="73" on="1"/>
        <pt x="329" y="86" on="0"/>
        <pt x="339" y="141" on="0"/>
        <pt x="339" y="186" on="1"/>
        <pt x="339" y="246" on="0"/>
        <pt x="330" y="293" on="0"/>
        <pt x="298" y="312" on="0"/>
        <pt x="255" y="319" on="1"/>
        <pt x="134" y="338" on="1"/>
        <pt x="93" y="344" on="0"/>
        <pt x="55" y="386" on="0"/>
        <pt x="44" y="451" on="0"/>
        <pt x="44" y="509" on="1"/>
        <pt x="44" y="611" on="0"/>
        <pt x="129" y="696" on="0"/>
        <pt x="226" y="696" on="1"/>
        <pt x="269" y="696" on="0"/>
        <pt x="352" y="688" on="0"/>
        <pt x="376" y="681" on="1"/>
        <pt x="376" y="629" on="1"/>
        <pt x="347" y="634" on="0"/>
        <pt x="271" y="641" on="0"/>
        <pt x="240" y="641" on="1"/>
        <pt x="195" y="641" on="0"/>
        <pt x="142" y="626" on="0"/>
        <pt x="128" y="609" on="1"/>
        <pt x="115" y="593" on="0"/>
        <pt x="106" y="546" on="0"/>
        <pt x="106" y="509" on="1"/>
        <pt x="106" y="460" on="0"/>
        <pt x="115" y="416" on="0"/>
        <pt x="141" y="398" on="0"/>
        <pt x="170" y="394" on="1"/>
        <pt x="283" y="376" on="1"/>
        <pt x="330" y="368" on="0"/>
        <pt x="379" y="340" on="0"/>
        <pt x="391" y="305" on="1"/>
        <pt x="401" y="278" on="0"/>
        <pt x="401" y="193" on="1"/>
      </contour>
    </TTGlyph>
    <TTGlyph name="Scircumflex" xMin="44" yMin="-8" xMax="401" yMax="888">
      <component glyphName=".ttfautohint" x="44" y="0" flags="0x0"/>
      <component glyphName="S" x="0" y="0" flags="0x0"/>
      <component glyphName="uni0302.case" x="340" y="0" flags="0x0"/>
    </TTGlyph>
    <TTGlyph name="Scommaaccent" xMin="44" yMin="-245" xMax="401" yMax="696">
      <component glyphName=".ttfautohint" x="44" y="0" flags="0x0"/>
      <component glyphName="S" x="0" y="0" flags="0x0"/>
      <component glyphName="uni0326" x="313" y="0" flags="0x0"/>
    </TTGlyph>
    <TTGlyph name="T" xMin="19" yMin="0" xMax="395" yMax="688">
      <contour>
        <pt x="176" y="632" on="1"/>
        <pt x="19" y="632" on="1"/>
        <pt x="19" y="688" on="1"/>
        <pt x="395" y="688" on="1"/>
        <pt x="395" y="632" on="1"/>
        <pt x="238" y="632" on="1"/>
        <pt x="238" y="0" on="1"/>
        <pt x="176" y="0" on="1"/>
      </contour>
    </TTGlyph>
    <TTGlyph name="Tbar" xMin="19" yMin="0" xMax="395" yMax="688">
      <contour>
        <pt x="238" y="632" on="1"/>
        <pt x="238" y="371" on="1"/>
        <pt x="368" y="371" on="1"/>
        <pt x="368" y="321" on="1"/>
        <pt x="238" y="321" on="1"/>
        <pt x="238" y="0" on="1"/>
        <pt x="176" y="0" on="1"/>
        <pt x="176" y="321" on="1"/>
        <pt x="47" y="321" on="1"/>
        <pt x="47" y="371" on="1"/>
        <pt x="176" y="371" on="1"/>
        <pt x="176" y="632" on="1"/>
        <pt x="19" y="632" on="1"/>
        <pt x="19" y="688" on="1"/>
        <pt x="395" y="688" on="1"/>
        <pt x="395" y="632" on="1"/>
      </contour>
    </TTGlyph>
    <TTGlyph name="Tcaron" xMin="19" yMin="0" xMax="395" yMax="888">
      <component glyphName=".ttfautohint" x="19" y="0" flags="0x0"/>
      <component glyphName="T" x="0" y="0" flags="0x0"/>
      <component glyphName="uni030C.case" x="325" y="0" flags="0x0"/>
    </TTGlyph>
    <TTGlyph name="Thorn" xMin="74" yMin="0" xMax="433" yMax="688">
      <contour>
        <pt x="74" y="688" on="1"/>
        <pt x="136" y="688" on="1"/>
        <pt x="136" y="563" on="1"/>
        <pt x="275" y="563" on="1"/>
        <pt x="345" y="563" on="0"/>
        <pt x="414" y="509" on="0"/>
        <pt x="433" y="421" on="0"/>
        <pt x="433" y="350" on="1"/>
        <pt x="433" y="282" on="0"/>
        <pt x="413" y="193" on="0"/>
        <pt x="344" y="137" on="0"/>
        <pt x="275" y="137" on="1"/>
        <pt x="136" y="137" on="1"/>
        <pt x="136" y="0" on="1"/>
        <pt x="74" y="0" on="1"/>
      </contour>
      <contour>
        <pt x="263" y="192" on="1"/>
        <pt x="311" y="192" on="0"/>
        <pt x="358" y="227" on="0"/>
        <pt x="371" y="291" on="0"/>
        <pt x="371" y="350" on="1"/>
        <pt x="371" y="410" on="0"/>
        <pt x="358" y="474" on="0"/>
        <pt x="312" y="508" on="0"/>
        <pt x="263" y="508" on="1"/>
        <pt x="136" y="508" on="1"/>
        <pt x="136" y="192" on="1"/>
      </contour>
    </TTGlyph>
    <TTGlyph name="U" xMin="68" yMin="-8" xMax="449" yMax="688">
      <contour>
        <pt x="449" y="688" on="1"/>
        <pt x="449" y="297" on="1"/>
        <pt x="449" y="164" on="0"/>
        <pt x="426" y="43" on="0"/>
        <pt x="347" y="-8" on="0"/>
        <pt x="259" y="-8" on="1"/>
        <pt x="170" y="-8" on="0"/>
        <pt x="91" y="43" on="0"/>
        <pt x="68" y="164" on="0"/>
        <pt x="68" y="297" on="1"/>
        <pt x="68" y="688" on="1"/>
        <pt x="130" y="688" on="1"/>
        <pt x="130" y="264" on="1"/>
        <pt x="130" y="165" on="0"/>
        <pt x="145" y="81" on="0"/>
        <pt x="197" y="47" on="0"/>
        <pt x="259" y="47" on="1"/>
        <pt x="320" y="47" on="0"/>
        <pt x="372" y="81" on="0"/>
        <pt x="387" y="166" on="0"/>
        <pt x="387" y="264" on="1"/>
        <pt x="387" y="688" on="1"/>
      </contour>
    </TTGlyph>
    <TTGlyph name="Uacute" xMin="68" yMin="-8" xMax="449" yMax="890">
      <component glyphName=".ttfautohint" x="68" y="0" flags="0x0"/>
      <component glyphName="U" x="0" y="0" flags="0x0"/>
      <component glyphName="acute" x="227" y="147" flags="0x4"/>
    </TTGlyph>
    <TTGlyph name="Ubreve" xMin="68" yMin="-8" xMax="449" yMax="888">
      <component glyphName=".ttfautohint" x="68" y="0" flags="0x0"/>
      <component glyphName="U" x="0" y="0" flags="0x0"/>
      <component glyphName="uni0306.case" x="374" y="0" flags="0x0"/>
    </TTGlyph>
    <TTGlyph name="Ucircumflex" xMin="68" yMin="-8" xMax="449" yMax="888">
      <component glyphName=".ttfautohint" x="68" y="0" flags="0x0"/>
      <component glyphName="U" x="0" y="0" flags="0x0"/>
      <component glyphName="circumflex" x="140" y="145" flags="0x4"/>
    </TTGlyph>
    <TTGlyph name="Udieresis" xMin="68" yMin="-8" xMax="449" yMax="844">
      <component glyphName=".ttfautohint" x="68" y="0" flags="0x0"/>
      <component glyphName="U" x="0" y="0" flags="0x0"/>
      <component glyphName="dieresis" x="119" y="114" flags="0x4"/>
    </TTGlyph>
    <TTGlyph name="Ugrave" xMin="68" yMin="-8" xMax="449" yMax="890">
      <component glyphName=".ttfautohint" x="68" y="0" flags="0x0"/>
      <component glyphName="U" x="0" y="0" flags="0x0"/>
      <component glyphName="grave" x="167" y="147" flags="0x4"/>
    </TTGlyph>
    <TTGlyph name="Uhorn" xMin="68" yMin="-8" xMax="537" yMax="785">
      <contour>
        <pt x="537" y="785" on="1"/>
        <pt x="537" y="752" on="1"/>
        <pt x="537" y="713" on="0"/>
        <pt x="523" y="672" on="0"/>
        <pt x="486" y="654" on="0"/>
        <pt x="449" y="653" on="1"/>
        <pt x="449" y="297" on="1"/>
        <pt x="449" y="164" on="0"/>
        <pt x="426" y="43" on="0"/>
        <pt x="347" y="-8" on="0"/>
        <pt x="259" y="-8" on="1"/>
        <pt x="170" y="-8" on="0"/>
        <pt x="91" y="43" on="0"/>
        <pt x="68" y="164" on="0"/>
        <pt x="68" y="297" on="1"/>
        <pt x="68" y="688" on="1"/>
        <pt x="130" y="688" on="1"/>
        <pt x="130" y="264" on="1"/>
        <pt x="130" y="165" on="0"/>
        <pt x="145" y="81" on="0"/>
        <pt x="197" y="47" on="0"/>
        <pt x="259" y="47" on="1"/>
        <pt x="320" y="47" on="0"/>
        <pt x="372" y="81" on="0"/>
        <pt x="387" y="166" on="0"/>
        <pt x="387" y="264" on="1"/>
        <pt x="387" y="688" on="1"/>
        <pt x="440" y="688" on="1"/>
        <pt x="474" y="688" on="0"/>
        <pt x="493" y="710" on="0"/>
        <pt x="493" y="742" on="1"/>
        <pt x="493" y="785" on="1"/>
      </contour>
    </TTGlyph>
    <TTGlyph name="Uhungarumlaut" xMin="68" yMin="-8" xMax="449" yMax="878">
      <component glyphName=".ttfautohint" x="68" y="0" flags="0x0"/>
      <component glyphName="U" x="0" y="0" flags="0x0"/>
      <component glyphName="uni030B.case" x="437" y="0" flags="0x0"/>
    </TTGlyph>
    <TTGlyph name="Umacron" xMin="68" yMin="-8" xMax="449" yMax="888">
      <component glyphName=".ttfautohint" x="68" y="0" flags="0x0"/>
      <component glyphName="U" x="0" y="0" flags="0x0"/>
      <component glyphName="uni0304.case" x="413" y="0" flags="0x0"/>
    </TTGlyph>
    <TTGlyph name="Uogonek" xMin="68" yMin="-196" xMax="449" yMax="688">
      <contour>
        <pt x="449" y="688" on="1"/>
        <pt x="449" y="297" on="1"/>
        <pt x="449" y="207" on="0"/>
        <pt x="440" y="103" on="0"/>
        <pt x="413" y="35" on="0"/>
        <pt x="386" y="17" on="1"/>
        <pt x="352" y="-5" on="0"/>
        <pt x="307" y="-75" on="0"/>
        <pt x="307" y="-110" on="1"/>
        <pt x="307" y="-154" on="0"/>
        <pt x="353" y="-154" on="1"/>
        <pt x="370" y="-153" on="1"/>
        <pt x="370" y="-194" on="1"/>
        <pt x="358" y="-196" on="0"/>
        <pt x="339" y="-196" on="1"/>
        <pt x="295" y="-196" on="0"/>
        <pt x="255" y="-155" on="0"/>
        <pt x="255" y="-121" on="1"/>
        <pt x="255" y="-94" on="0"/>
        <pt x="286" y="-33" on="0"/>
        <pt x="312" y="-5" on="1"/>
        <pt x="288" y="-8" on="0"/>
        <pt x="259" y="-8" on="1"/>
        <pt x="170" y="-8" on="0"/>
        <pt x="91" y="43" on="0"/>
        <pt x="68" y="164" on="0"/>
        <pt x="68" y="297" on="1"/>
        <pt x="68" y="688" on="1"/>
        <pt x="130" y="688" on="1"/>
        <pt x="130" y="264" on="1"/>
        <pt x="130" y="165" on="0"/>
        <pt x="145" y="81" on="0"/>
        <pt x="197" y="47" on="0"/>
        <pt x="259" y="47" on="1"/>
        <pt x="320" y="47" on="0"/>
        <pt x="372" y="81" on="0"/>
        <pt x="387" y="166" on="0"/>
        <pt x="387" y="264" on="1"/>
        <pt x="387" y="688" on="1"/>
      </contour>
    </TTGlyph>
    <TTGlyph name="Uring" xMin="68" yMin="-8" xMax="449" yMax="916">
      <component glyphName=".ttfautohint" x="68" y="0" flags="0x0"/>
      <component glyphName="U" x="0" y="0" flags="0x0"/>
      <component glyphName="uni030A.case" x="365" y="0" flags="0x0"/>
    </TTGlyph>
    <TTGlyph name="Utilde" xMin="68" yMin="-8" xMax="449" yMax="888">
      <component glyphName=".ttfautohint" x="68" y="0" flags="0x0"/>
      <component glyphName="U" x="0" y="0" flags="0x0"/>
      <component glyphName="tildecomb.case" x="403" y="0" flags="0x0"/>
    </TTGlyph>
    <TTGlyph name="V" xMin="13" yMin="0" xMax="449" yMax="688">
      <contour>
        <pt x="13" y="688" on="1"/>
        <pt x="77" y="688" on="1"/>
        <pt x="229" y="88" on="1"/>
        <pt x="235" y="88" on="1"/>
        <pt x="387" y="688" on="1"/>
        <pt x="449" y="688" on="1"/>
        <pt x="270" y="0" on="1"/>
        <pt x="192" y="0" on="1"/>
      </contour>
    </TTGlyph>
    <TTGlyph name="W" xMin="17" yMin="0" xMax="676" yMax="688">
      <contour>
        <pt x="348" y="578" on="1"/>
        <pt x="344" y="578" on="1"/>
        <pt x="225" y="0" on="1"/>
        <pt x="149" y="0" on="1"/>
        <pt x="17" y="688" on="1"/>
        <pt x="81" y="688" on="1"/>
        <pt x="187" y="97" on="1"/>
        <pt x="193" y="97" on="1"/>
        <pt x="312" y="688" on="1"/>
        <pt x="383" y="688" on="1"/>
        <pt x="503" y="97" on="1"/>
        <pt x="508" y="97" on="1"/>
        <pt x="614" y="688" on="1"/>
        <pt x="676" y="688" on="1"/>
        <pt x="544" y="0" on="1"/>
        <pt x="468" y="0" on="1"/>
      </contour>
    </TTGlyph>
    <TTGlyph name="Wacute" xMin="17" yMin="0" xMax="676" yMax="888">
      <component glyphName=".ttfautohint" x="17" y="0" flags="0x0"/>
      <component glyphName="W" x="0" y="0" flags="0x0"/>
      <component glyphName="acutecomb.case" x="445" y="0" flags="0x0"/>
    </TTGlyph>
    <TTGlyph name="Wcircumflex" xMin="17" yMin="0" xMax="676" yMax="888">
      <component glyphName=".ttfautohint" x="17" y="0" flags="0x0"/>
      <component glyphName="W" x="0" y="0" flags="0x0"/>
      <component glyphName="uni0302.case" x="464" y="0" flags="0x0"/>
    </TTGlyph>
    <TTGlyph name="Wdieresis" xMin="17" yMin="0" xMax="676" yMax="875">
      <component glyphName=".ttfautohint" x="17" y="0" flags="0x0"/>
      <component glyphName="W" x="0" y="0" flags="0x0"/>
      <component glyphName="uni0308.case" x="485" y="0" flags="0x0"/>
    </TTGlyph>
    <TTGlyph name="Wgrave" xMin="17" yMin="0" xMax="676" yMax="888">
      <component glyphName=".ttfautohint" x="17" y="0" flags="0x0"/>
      <component glyphName="W" x="0" y="0" flags="0x0"/>
      <component glyphName="gravecomb.case" x="380" y="0" flags="0x0"/>
    </TTGlyph>
    <TTGlyph name="X" xMin="19" yMin="0" xMax="465" yMax="688">
      <contour>
        <pt x="244" y="291" on="1"/>
        <pt x="238" y="291" on="1"/>
        <pt x="87" y="0" on="1"/>
        <pt x="19" y="0" on="1"/>
        <pt x="202" y="346" on="1"/>
        <pt x="22" y="688" on="1"/>
        <pt x="91" y="688" on="1"/>
        <pt x="241" y="401" on="1"/>
        <pt x="246" y="401" on="1"/>
        <pt x="395" y="688" on="1"/>
        <pt x="462" y="688" on="1"/>
        <pt x="282" y="348" on="1"/>
        <pt x="465" y="0" on="1"/>
        <pt x="395" y="0" on="1"/>
      </contour>
    </TTGlyph>
    <TTGlyph name="Y" xMin="4" yMin="0" xMax="426" yMax="688">
      <contour>
        <pt x="184" y="270" on="1"/>
        <pt x="4" y="688" on="1"/>
        <pt x="69" y="688" on="1"/>
        <pt x="213" y="346" on="1"/>
        <pt x="220" y="346" on="1"/>
        <pt x="363" y="688" on="1"/>
        <pt x="426" y="688" on="1"/>
        <pt x="246" y="270" on="1"/>
        <pt x="246" y="0" on="1"/>
        <pt x="184" y="0" on="1"/>
      </contour>
    </TTGlyph>
    <TTGlyph name="Y.loclGUA" xMin="25" yMin="0" xMax="406" yMax="688">
      <contour>
        <pt x="406" y="688" on="1"/>
        <pt x="406" y="504" on="1"/>
        <pt x="406" y="379" on="0"/>
        <pt x="386" y="260" on="0"/>
        <pt x="319" y="204" on="0"/>
        <pt x="246" y="200" on="1"/>
        <pt x="246" y="0" on="1"/>
        <pt x="184" y="0" on="1"/>
        <pt x="184" y="200" on="1"/>
        <pt x="111" y="204" on="0"/>
        <pt x="45" y="260" on="0"/>
        <pt x="25" y="379" on="0"/>
        <pt x="25" y="504" on="1"/>
        <pt x="25" y="688" on="1"/>
        <pt x="87" y="688" on="1"/>
        <pt x="87" y="472" on="1"/>
        <pt x="87" y="374" on="0"/>
        <pt x="102" y="289" on="0"/>
        <pt x="154" y="254" on="0"/>
        <pt x="215" y="254" on="1"/>
        <pt x="277" y="254" on="0"/>
        <pt x="329" y="288" on="0"/>
        <pt x="344" y="373" on="0"/>
        <pt x="344" y="472" on="1"/>
        <pt x="344" y="688" on="1"/>
      </contour>
    </TTGlyph>
    <TTGlyph name="Yacute" xMin="4" yMin="0" xMax="426" yMax="890">
      <component glyphName=".ttfautohint" x="4" y="0" flags="0x0"/>
      <component glyphName="Y" x="0" y="0" flags="0x0"/>
      <component glyphName="acute" x="188" y="147" flags="0x4"/>
    </TTGlyph>
    <TTGlyph name="Yacute.loclGUA" xMin="25" yMin="0" xMax="406" yMax="888">
      <component glyphName=".ttfautohint" x="25" y="0" flags="0x0"/>
      <component glyphName="Y.loclGUA" x="0" y="0" flags="0x0"/>
      <component glyphName="acutecomb.case" x="313" y="0" flags="0x0"/>
    </TTGlyph>
    <TTGlyph name="Ycircumflex" xMin="4" yMin="0" xMax="426" yMax="888">
      <component glyphName=".ttfautohint" x="4" y="0" flags="0x0"/>
      <component glyphName="Y" x="0" y="0" flags="0x0"/>
      <component glyphName="uni0302.case" x="333" y="0" flags="0x0"/>
    </TTGlyph>
    <TTGlyph name="Ycircumflex.loclGUA" xMin="25" yMin="0" xMax="406" yMax="888">
      <component glyphName=".ttfautohint" x="25" y="0" flags="0x0"/>
      <component glyphName="Y.loclGUA" x="0" y="0" flags="0x0"/>
      <component glyphName="uni0302.case" x="333" y="0" flags="0x0"/>
    </TTGlyph>
    <TTGlyph name="Ydieresis" xMin="4" yMin="0" xMax="426" yMax="844">
      <component glyphName=".ttfautohint" x="4" y="0" flags="0x0"/>
      <component glyphName="Y" x="0" y="0" flags="0x0"/>
      <component glyphName="dieresis" x="78" y="114" flags="0x4"/>
    </TTGlyph>
    <TTGlyph name="Ydieresis.loclGUA" xMin="25" yMin="0" xMax="406" yMax="875">
      <component glyphName=".ttfautohint" x="25" y="0" flags="0x0"/>
      <component glyphName="Y.loclGUA" x="0" y="0" flags="0x0"/>
      <component glyphName="uni0308.case" x="353" y="0" flags="0x0"/>
    </TTGlyph>
    <TTGlyph name="Ygrave" xMin="4" yMin="0" xMax="426" yMax="888">
      <component glyphName=".ttfautohint" x="4" y="0" flags="0x0"/>
      <component glyphName="Y" x="0" y="0" flags="0x0"/>
      <component glyphName="gravecomb.case" x="249" y="0" flags="0x0"/>
    </TTGlyph>
    <TTGlyph name="Ygrave.loclGUA" xMin="25" yMin="0" xMax="406" yMax="888">
      <component glyphName=".ttfautohint" x="25" y="0" flags="0x0"/>
      <component glyphName="Y.loclGUA" x="0" y="0" flags="0x0"/>
      <component glyphName="gravecomb.case" x="249" y="0" flags="0x0"/>
    </TTGlyph>
    <TTGlyph name="Z" xMin="31" yMin="0" xMax="393" yMax="688">
      <contour>
        <pt x="31" y="52" on="1"/>
        <pt x="317" y="633" on="1"/>
        <pt x="39" y="633" on="1"/>
        <pt x="39" y="688" on="1"/>
        <pt x="389" y="688" on="1"/>
        <pt x="389" y="637" on="1"/>
        <pt x="103" y="55" on="1"/>
        <pt x="393" y="55" on="1"/>
        <pt x="393" y="0" on="1"/>
        <pt x="31" y="0" on="1"/>
      </contour>
    </TTGlyph>
    <TTGlyph name="Zacute" xMin="31" yMin="0" xMax="393" yMax="888">
      <component glyphName=".ttfautohint" x="31" y="0" flags="0x0"/>
      <component glyphName="Z" x="0" y="0" flags="0x0"/>
      <component glyphName="acutecomb.case" x="310" y="0" flags="0x0"/>
    </TTGlyph>
    <TTGlyph name="Zacute.loclPLK" xMin="31" yMin="0" xMax="393" yMax="888">
      <component glyphName=".ttfautohint" x="31" y="0" flags="0x0"/>
      <component glyphName="Z" x="0" y="0" flags="0x0"/>
      <component glyphName="acute.case.loclPLK" x="178" y="0" flags="0x0"/>
    </TTGlyph>
    <TTGlyph name="Zcaron" xMin="31" yMin="0" xMax="393" yMax="888">
      <component glyphName=".ttfautohint" x="31" y="0" flags="0x0"/>
      <component glyphName="Z" x="0" y="0" flags="0x0"/>
      <component glyphName="caron" x="101" y="145" flags="0x4"/>
    </TTGlyph>
    <TTGlyph name="Zdotaccent" xMin="31" yMin="0" xMax="393" yMax="875">
      <component glyphName=".ttfautohint" x="31" y="0" flags="0x0"/>
      <component glyphName="Z" x="0" y="0" flags="0x0"/>
      <component glyphName="uni0307.case" x="260" y="0" flags="0x0"/>
    </TTGlyph>
    <TTGlyph name="a" xMin="37" yMin="-8" xMax="364" yMax="518">
      <contour>
        <pt x="124" y="-8" on="0"/>
        <pt x="66" y="17" on="0"/>
        <pt x="37" y="81" on="0"/>
        <pt x="37" y="139" on="1"/>
        <pt x="37" y="197" on="0"/>
        <pt x="60" y="261" on="0"/>
        <pt x="114" y="289" on="0"/>
        <pt x="164" y="289" on="1"/>
        <pt x="215" y="289" on="0"/>
        <pt x="305" y="284" on="1"/>
        <pt x="305" y="323" on="1"/>
        <pt x="305" y="391" on="0"/>
        <pt x="287" y="449" on="0"/>
        <pt x="239" y="467" on="0"/>
        <pt x="184" y="467" on="1"/>
        <pt x="160" y="467" on="0"/>
        <pt x="85" y="459" on="0"/>
        <pt x="62" y="455" on="1"/>
        <pt x="62" y="505" on="1"/>
        <pt x="127" y="518" on="0"/>
        <pt x="201" y="518" on="1"/>
        <pt x="269" y="518" on="0"/>
        <pt x="338" y="484" on="0"/>
        <pt x="364" y="404" on="0"/>
        <pt x="364" y="325" on="1"/>
        <pt x="364" y="0" on="1"/>
        <pt x="313" y="0" on="1"/>
        <pt x="309" y="72" on="1"/>
        <pt x="304" y="72" on="1"/>
        <pt x="289" y="24" on="0"/>
        <pt x="219" y="-8" on="0"/>
        <pt x="172" y="-8" on="1"/>
      </contour>
      <contour>
        <pt x="227" y="44" on="0"/>
        <pt x="276" y="63" on="0"/>
        <pt x="288" y="94" on="1"/>
        <pt x="305" y="141" on="0"/>
        <pt x="305" y="208" on="1"/>
        <pt x="305" y="242" on="1"/>
        <pt x="178" y="242" on="1"/>
        <pt x="143" y="242" on="0"/>
        <pt x="109" y="227" on="0"/>
        <pt x="95" y="186" on="0"/>
        <pt x="95" y="142" on="1"/>
        <pt x="95" y="100" on="0"/>
        <pt x="110" y="59" on="0"/>
        <pt x="149" y="44" on="0"/>
        <pt x="188" y="44" on="1"/>
      </contour>
    </TTGlyph>
    <TTGlyph name="aacute" xMin="37" yMin="-8" xMax="364" yMax="743">
      <component glyphName=".ttfautohint" x="37" y="0" flags="0x0"/>
      <component glyphName="a" x="0" y="0" flags="0x0"/>
      <component glyphName="acute" x="177" y="0" flags="0x0"/>
    </TTGlyph>
    <TTGlyph name="abreve" xMin="37" yMin="-8" xMax="364" yMax="743">
      <component glyphName=".ttfautohint" x="37" y="0" flags="0x0"/>
      <component glyphName="a" x="0" y="0" flags="0x0"/>
      <component glyphName="uni0306" x="330" y="0" flags="0x0"/>
    </TTGlyph>
    <TTGlyph name="acircumflex" xMin="37" yMin="-8" xMax="364" yMax="743">
      <component glyphName=".ttfautohint" x="37" y="0" flags="0x0"/>
      <component glyphName="a" x="0" y="0" flags="0x0"/>
      <component glyphName="circumflex" x="97" y="0" flags="0x0"/>
    </TTGlyph>
    <TTGlyph name="acute" xMin="7" yMin="603" xMax="125" yMax="743">
      <contour>
        <pt x="7" y="608" on="1"/>
        <pt x="62" y="743" on="1"/>
        <pt x="125" y="743" on="1"/>
        <pt x="125" y="738" on="1"/>
        <pt x="49" y="603" on="1"/>
        <pt x="7" y="603" on="1"/>
      </contour>
    </TTGlyph>
    <TTGlyph name="acute.case.loclPLK" xMin="7" yMin="748" xMax="96" yMax="888">
      <contour>
        <pt x="7" y="753" on="1"/>
        <pt x="32" y="888" on="1"/>
        <pt x="96" y="888" on="1"/>
        <pt x="96" y="883" on="1"/>
        <pt x="49" y="748" on="1"/>
        <pt x="7" y="748" on="1"/>
      </contour>
    </TTGlyph>
    <TTGlyph name="acute.loclPLK" xMin="7" yMin="603" xMax="96" yMax="743">
      <contour>
        <pt x="7" y="608" on="1"/>
        <pt x="32" y="743" on="1"/>
        <pt x="96" y="743" on="1"/>
        <pt x="96" y="738" on="1"/>
        <pt x="49" y="603" on="1"/>
        <pt x="7" y="603" on="1"/>
      </contour>
    </TTGlyph>
    <TTGlyph name="acutecomb" xMin="-125" yMin="603" xMax="-7" yMax="743">
      <contour>
        <pt x="-125" y="608" on="1"/>
        <pt x="-70" y="743" on="1"/>
        <pt x="-7" y="743" on="1"/>
        <pt x="-7" y="738" on="1"/>
        <pt x="-83" y="603" on="1"/>
        <pt x="-125" y="603" on="1"/>
      </contour>
    </TTGlyph>
    <TTGlyph name="acutecomb.case" xMin="-125" yMin="748" xMax="-7" yMax="888">
      <contour>
        <pt x="-125" y="753" on="1"/>
        <pt x="-70" y="888" on="1"/>
        <pt x="-7" y="888" on="1"/>
        <pt x="-7" y="883" on="1"/>
        <pt x="-83" y="748" on="1"/>
        <pt x="-125" y="748" on="1"/>
      </contour>
    </TTGlyph>
    <TTGlyph name="adieresis" xMin="37" yMin="-8" xMax="364" yMax="728">
      <component glyphName=".ttfautohint" x="37" y="0" flags="0x0"/>
      <component glyphName="a" x="0" y="0" flags="0x0"/>
      <component glyphName="dieresis" x="76" y="-2" flags="0x4"/>
    </TTGlyph>
    <TTGlyph name="ae" xMin="37" yMin="-8" xMax="634" yMax="518">
      <contour>
        <pt x="634" y="238" on="1"/>
        <pt x="364" y="238" on="1"/>
        <pt x="364" y="151" on="0"/>
        <pt x="379" y="74" on="0"/>
        <pt x="431" y="43" on="0"/>
        <pt x="491" y="43" on="1"/>
        <pt x="549" y="43" on="0"/>
        <pt x="620" y="56" on="1"/>
        <pt x="620" y="6" on="1"/>
        <pt x="597" y="0" on="0"/>
        <pt x="519" y="-8" on="0"/>
        <pt x="482" y="-8" on="1"/>
        <pt x="415" y="-8" on="0"/>
        <pt x="343" y="28" on="0"/>
        <pt x="327" y="74" on="1"/>
        <pt x="308" y="24" on="0"/>
        <pt x="232" y="-8" on="0"/>
        <pt x="179" y="-8" on="1"/>
        <pt x="127" y="-8" on="0"/>
        <pt x="67" y="17" on="0"/>
        <pt x="37" y="81" on="0"/>
        <pt x="37" y="139" on="1"/>
        <pt x="37" y="195" on="0"/>
        <pt x="60" y="258" on="0"/>
        <pt x="114" y="286" on="0"/>
        <pt x="164" y="286" on="1"/>
        <pt x="304" y="285" on="1"/>
        <pt x="304" y="323" on="1"/>
        <pt x="304" y="390" on="0"/>
        <pt x="287" y="449" on="0"/>
        <pt x="239" y="467" on="0"/>
        <pt x="184" y="467" on="1"/>
        <pt x="160" y="467" on="0"/>
        <pt x="87" y="459" on="0"/>
        <pt x="62" y="455" on="1"/>
        <pt x="62" y="505" on="1"/>
        <pt x="131" y="518" on="0"/>
        <pt x="201" y="518" on="1"/>
        <pt x="256" y="518" on="0"/>
        <pt x="320" y="491" on="0"/>
        <pt x="336" y="458" on="1"/>
        <pt x="354" y="490" on="0"/>
        <pt x="421" y="518" on="0"/>
        <pt x="478" y="518" on="1"/>
        <pt x="551" y="518" on="0"/>
        <pt x="616" y="471" on="0"/>
        <pt x="634" y="369" on="0"/>
        <pt x="634" y="258" on="1"/>
      </contour>
      <contour>
        <pt x="424" y="467" on="0"/>
        <pt x="378" y="441" on="0"/>
        <pt x="364" y="368" on="0"/>
        <pt x="364" y="285" on="1"/>
        <pt x="576" y="285" on="1"/>
        <pt x="576" y="296" on="1"/>
        <pt x="576" y="374" on="0"/>
        <pt x="559" y="445" on="0"/>
        <pt x="519" y="467" on="0"/>
        <pt x="476" y="467" on="1"/>
      </contour>
      <contour>
        <pt x="304" y="238" on="1"/>
        <pt x="177" y="238" on="1"/>
        <pt x="142" y="238" on="0"/>
        <pt x="108" y="225" on="0"/>
        <pt x="95" y="185" on="0"/>
        <pt x="95" y="142" on="1"/>
        <pt x="95" y="100" on="0"/>
        <pt x="110" y="59" on="0"/>
        <pt x="148" y="43" on="0"/>
        <pt x="187" y="43" on="1"/>
        <pt x="227" y="43" on="0"/>
        <pt x="277" y="64" on="0"/>
        <pt x="289" y="98" on="1"/>
        <pt x="304" y="140" on="0"/>
        <pt x="304" y="208" on="1"/>
      </contour>
    </TTGlyph>
    <TTGlyph name="aeacute" xMin="37" yMin="-8" xMax="634" yMax="743">
      <component glyphName=".ttfautohint" x="37" y="0" flags="0x0"/>
      <component glyphName="ae" x="0" y="0" flags="0x0"/>
      <component glyphName="acutecomb" x="442" y="0" flags="0x0"/>
    </TTGlyph>
    <TTGlyph name="agrave" xMin="37" yMin="-8" xMax="364" yMax="743">
      <component glyphName=".ttfautohint" x="37" y="0" flags="0x0"/>
      <component glyphName="a" x="0" y="0" flags="0x0"/>
      <component glyphName="grave" x="119" y="0" flags="0x0"/>
    </TTGlyph>
    <TTGlyph name="amacron" xMin="37" yMin="-8" xMax="364" yMax="743">
      <component glyphName=".ttfautohint" x="37" y="0" flags="0x0"/>
      <component glyphName="a" x="0" y="0" flags="0x0"/>
      <component glyphName="uni0304" x="368" y="0" flags="0x0"/>
    </TTGlyph>
    <TTGlyph name="ampersand" xMin="51" yMin="-8" xMax="509" yMax="696">
      <contour>
        <pt x="509" y="375" on="1"/>
        <pt x="509" y="322" on="1"/>
        <pt x="422" y="322" on="1"/>
        <pt x="422" y="9" on="1"/>
        <pt x="394" y="2" on="0"/>
        <pt x="304" y="-8" on="0"/>
        <pt x="265" y="-8" on="1"/>
        <pt x="176" y="-8" on="0"/>
        <pt x="83" y="35" on="0"/>
        <pt x="51" y="116" on="0"/>
        <pt x="51" y="184" on="1"/>
        <pt x="51" y="263" on="0"/>
        <pt x="97" y="334" on="0"/>
        <pt x="146" y="349" on="1"/>
        <pt x="146" y="353" on="1"/>
        <pt x="100" y="368" on="0"/>
        <pt x="56" y="442" on="0"/>
        <pt x="56" y="515" on="1"/>
        <pt x="56" y="576" on="0"/>
        <pt x="90" y="654" on="0"/>
        <pt x="182" y="696" on="0"/>
        <pt x="265" y="696" on="1"/>
        <pt x="300" y="696" on="0"/>
        <pt x="388" y="686" on="0"/>
        <pt x="420" y="679" on="1"/>
        <pt x="420" y="630" on="1"/>
        <pt x="388" y="636" on="0"/>
        <pt x="310" y="644" on="0"/>
        <pt x="284" y="644" on="1"/>
        <pt x="210" y="644" on="0"/>
        <pt x="139" y="618" on="0"/>
        <pt x="116" y="562" on="0"/>
        <pt x="116" y="508" on="1"/>
        <pt x="116" y="447" on="0"/>
        <pt x="156" y="375" on="0"/>
        <pt x="221" y="375" on="1"/>
        <pt x="289" y="375" on="1"/>
        <pt x="289" y="322" on="1"/>
        <pt x="221" y="322" on="1"/>
        <pt x="173" y="322" on="0"/>
        <pt x="125" y="290" on="0"/>
        <pt x="111" y="232" on="0"/>
        <pt x="111" y="182" on="1"/>
        <pt x="111" y="124" on="0"/>
        <pt x="144" y="64" on="0"/>
        <pt x="210" y="43" on="0"/>
        <pt x="267" y="43" on="1"/>
        <pt x="324" y="43" on="0"/>
        <pt x="364" y="52" on="1"/>
        <pt x="364" y="375" on="1"/>
      </contour>
    </TTGlyph>
    <TTGlyph name="aogonek" xMin="37" yMin="-196" xMax="367" yMax="518">
      <contour>
        <pt x="367" y="-153" on="1"/>
        <pt x="367" y="-194" on="1"/>
        <pt x="355" y="-196" on="0"/>
        <pt x="337" y="-196" on="1"/>
        <pt x="293" y="-196" on="0"/>
        <pt x="253" y="-155" on="0"/>
        <pt x="253" y="-123" on="1"/>
        <pt x="253" y="-92" on="0"/>
        <pt x="286" y="-27" on="0"/>
        <pt x="313" y="0" on="1"/>
        <pt x="309" y="73" on="1"/>
        <pt x="304" y="73" on="1"/>
        <pt x="289" y="24" on="0"/>
        <pt x="220" y="-8" on="0"/>
        <pt x="173" y="-8" on="1"/>
        <pt x="124" y="-8" on="0"/>
        <pt x="65" y="18" on="0"/>
        <pt x="37" y="82" on="0"/>
        <pt x="37" y="140" on="1"/>
        <pt x="37" y="197" on="0"/>
        <pt x="59" y="261" on="0"/>
        <pt x="113" y="288" on="0"/>
        <pt x="163" y="288" on="1"/>
        <pt x="192" y="288" on="0"/>
        <pt x="305" y="283" on="1"/>
        <pt x="305" y="323" on="1"/>
        <pt x="305" y="391" on="0"/>
        <pt x="287" y="449" on="0"/>
        <pt x="240" y="467" on="0"/>
        <pt x="185" y="467" on="1"/>
        <pt x="161" y="467" on="0"/>
        <pt x="86" y="460" on="0"/>
        <pt x="62" y="456" on="1"/>
        <pt x="62" y="505" on="1"/>
        <pt x="127" y="518" on="0"/>
        <pt x="202" y="518" on="1"/>
        <pt x="270" y="518" on="0"/>
        <pt x="338" y="485" on="0"/>
        <pt x="364" y="405" on="0"/>
        <pt x="364" y="326" on="1"/>
        <pt x="364" y="0" on="1"/>
        <pt x="343" y="-17" on="0"/>
        <pt x="305" y="-83" on="0"/>
        <pt x="305" y="-111" on="1"/>
        <pt x="305" y="-154" on="0"/>
        <pt x="350" y="-154" on="1"/>
      </contour>
      <contour>
        <pt x="305" y="243" on="1"/>
        <pt x="178" y="243" on="1"/>
        <pt x="143" y="243" on="0"/>
        <pt x="109" y="228" on="0"/>
        <pt x="95" y="187" on="0"/>
        <pt x="95" y="143" on="1"/>
        <pt x="95" y="101" on="0"/>
        <pt x="110" y="59" on="0"/>
        <pt x="149" y="43" on="0"/>
        <pt x="188" y="43" on="1"/>
        <pt x="228" y="43" on="0"/>
        <pt x="277" y="62" on="0"/>
        <pt x="289" y="93" on="1"/>
        <pt x="298" y="116" on="0"/>
        <pt x="305" y="169" on="0"/>
        <pt x="305" y="206" on="1"/>
      </contour>
    </TTGlyph>
    <TTGlyph name="approxequal" xMin="61" yMin="108" xMax="375" yMax="399">
      <contour>
        <pt x="61" y="343" on="0"/>
        <pt x="87" y="388" on="0"/>
        <pt x="129" y="388" on="1"/>
        <pt x="149" y="388" on="0"/>
        <pt x="189" y="377" on="0"/>
        <pt x="224" y="364" on="0"/>
        <pt x="229" y="362" on="1"/>
        <pt x="233" y="360" on="0"/>
        <pt x="266" y="348" on="0"/>
        <pt x="294" y="342" on="0"/>
        <pt x="305" y="342" on="1"/>
        <pt x="325" y="342" on="0"/>
        <pt x="337" y="366" on="0"/>
        <pt x="337" y="399" on="1"/>
        <pt x="375" y="399" on="1"/>
        <pt x="375" y="359" on="0"/>
        <pt x="366" y="316" on="0"/>
        <pt x="337" y="295" on="0"/>
        <pt x="308" y="295" on="1"/>
        <pt x="286" y="295" on="0"/>
        <pt x="240" y="308" on="0"/>
        <pt x="209" y="320" on="1"/>
        <pt x="181" y="331" on="0"/>
        <pt x="148" y="341" on="0"/>
        <pt x="132" y="341" on="1"/>
        <pt x="112" y="341" on="0"/>
        <pt x="100" y="317" on="0"/>
        <pt x="100" y="284" on="1"/>
        <pt x="61" y="284" on="1"/>
      </contour>
      <contour>
        <pt x="61" y="167" on="0"/>
        <pt x="87" y="213" on="0"/>
        <pt x="129" y="213" on="1"/>
        <pt x="149" y="213" on="0"/>
        <pt x="189" y="202" on="0"/>
        <pt x="224" y="189" on="0"/>
        <pt x="229" y="187" on="1"/>
        <pt x="235" y="185" on="0"/>
        <pt x="268" y="173" on="0"/>
        <pt x="294" y="166" on="0"/>
        <pt x="305" y="166" on="1"/>
        <pt x="325" y="166" on="0"/>
        <pt x="337" y="190" on="0"/>
        <pt x="337" y="223" on="1"/>
        <pt x="375" y="223" on="1"/>
        <pt x="375" y="183" on="0"/>
        <pt x="366" y="140" on="0"/>
        <pt x="337" y="119" on="0"/>
        <pt x="308" y="119" on="1"/>
        <pt x="286" y="119" on="0"/>
        <pt x="242" y="132" on="0"/>
        <pt x="209" y="145" on="1"/>
        <pt x="184" y="155" on="0"/>
        <pt x="148" y="165" on="0"/>
        <pt x="132" y="165" on="1"/>
        <pt x="112" y="165" on="0"/>
        <pt x="100" y="141" on="0"/>
        <pt x="100" y="108" on="1"/>
        <pt x="61" y="108" on="1"/>
      </contour>
    </TTGlyph>
    <TTGlyph name="aring" xMin="37" yMin="-8" xMax="364" yMax="795">
      <component glyphName=".ttfautohint" x="37" y="0" flags="0x0"/>
      <component glyphName="a" x="0" y="0" flags="0x0"/>
      <component glyphName="ring" x="107" y="-6" flags="0x4"/>
    </TTGlyph>
    <TTGlyph name="aringacute" xMin="37" yMin="-8" xMax="364" yMax="974">
      <component glyphName=".ttfautohint" x="37" y="0" flags="0x0"/>
      <component glyphName="a" x="0" y="0" flags="0x0"/>
      <component glyphName="uni030A" x="321" y="0" flags="0x0"/>
      <component glyphName="acutecomb" x="316" y="231" flags="0x4"/>
    </TTGlyph>
    <TTGlyph name="arrowboth" xMin="55" yMin="184" xMax="828" yMax="425">
      <contour>
        <pt x="55" y="304" on="1"/>
        <pt x="318" y="425" on="1"/>
        <pt x="278" y="329" on="1"/>
        <pt x="604" y="329" on="1"/>
        <pt x="565" y="425" on="1"/>
        <pt x="828" y="304" on="1"/>
        <pt x="565" y="184" on="1"/>
        <pt x="604" y="279" on="1"/>
        <pt x="278" y="279" on="1"/>
        <pt x="318" y="184" on="1"/>
      </contour>
    </TTGlyph>
    <TTGlyph name="arrowdown" xMin="77" yMin="-85" xMax="318" yMax="688">
      <contour>
        <pt x="77" y="178" on="1"/>
        <pt x="173" y="138" on="1"/>
        <pt x="173" y="688" on="1"/>
        <pt x="223" y="688" on="1"/>
        <pt x="223" y="138" on="1"/>
        <pt x="318" y="178" on="1"/>
        <pt x="198" y="-85" on="1"/>
      </contour>
    </TTGlyph>
    <TTGlyph name="arrowdown.ss01" xMin="30" yMin="171" xMax="315" yMax="456">
      <contour>
        <pt x="30" y="456" on="1"/>
        <pt x="315" y="456" on="1"/>
        <pt x="173" y="171" on="1"/>
      </contour>
    </TTGlyph>
    <TTGlyph name="arrowleft" xMin="55" yMin="184" xMax="828" yMax="425">
      <contour>
        <pt x="311" y="184" on="1"/>
        <pt x="55" y="304" on="1"/>
        <pt x="311" y="425" on="1"/>
        <pt x="271" y="329" on="1"/>
        <pt x="828" y="329" on="1"/>
        <pt x="828" y="279" on="1"/>
        <pt x="271" y="279" on="1"/>
      </contour>
    </TTGlyph>
    <TTGlyph name="arrowleft.ss01" xMin="30" yMin="201" xMax="315" yMax="486">
      <contour>
        <pt x="30" y="343" on="1"/>
        <pt x="315" y="486" on="1"/>
        <pt x="315" y="201" on="1"/>
      </contour>
    </TTGlyph>
    <TTGlyph name="arrowright" xMin="55" yMin="184" xMax="828" yMax="425">
      <contour>
        <pt x="604" y="279" on="1"/>
        <pt x="55" y="279" on="1"/>
        <pt x="55" y="329" on="1"/>
        <pt x="604" y="329" on="1"/>
        <pt x="565" y="425" on="1"/>
        <pt x="828" y="304" on="1"/>
        <pt x="565" y="184" on="1"/>
      </contour>
    </TTGlyph>
    <TTGlyph name="arrowright.ss01" xMin="48" yMin="201" xMax="333" yMax="486">
      <contour>
        <pt x="48" y="486" on="1"/>
        <pt x="333" y="343" on="1"/>
        <pt x="48" y="201" on="1"/>
      </contour>
    </TTGlyph>
    <TTGlyph name="arrowup" xMin="77" yMin="-81" xMax="318" yMax="691">
      <contour>
        <pt x="173" y="467" on="1"/>
        <pt x="77" y="428" on="1"/>
        <pt x="198" y="691" on="1"/>
        <pt x="318" y="428" on="1"/>
        <pt x="223" y="467" on="1"/>
        <pt x="223" y="-81" on="1"/>
        <pt x="173" y="-81" on="1"/>
      </contour>
    </TTGlyph>
    <TTGlyph name="arrowup.ss01" xMin="30" yMin="231" xMax="315" yMax="516">
      <contour>
        <pt x="173" y="516" on="1"/>
        <pt x="315" y="231" on="1"/>
        <pt x="30" y="231" on="1"/>
      </contour>
    </TTGlyph>
    <TTGlyph name="arrowupdn" xMin="77" yMin="-85" xMax="318" yMax="696">
      <contour>
        <pt x="77" y="178" on="1"/>
        <pt x="173" y="138" on="1"/>
        <pt x="173" y="472" on="1"/>
        <pt x="77" y="433" on="1"/>
        <pt x="198" y="696" on="1"/>
        <pt x="318" y="433" on="1"/>
        <pt x="223" y="472" on="1"/>
        <pt x="223" y="138" on="1"/>
        <pt x="318" y="178" on="1"/>
        <pt x="198" y="-85" on="1"/>
      </contour>
    </TTGlyph>
    <TTGlyph name="arrowupdnbse" xMin="55" yMin="-174" xMax="340" yMax="696">
      <contour>
        <pt x="77" y="178" on="1"/>
        <pt x="173" y="138" on="1"/>
        <pt x="173" y="472" on="1"/>
        <pt x="77" y="433" on="1"/>
        <pt x="198" y="696" on="1"/>
        <pt x="318" y="433" on="1"/>
        <pt x="223" y="472" on="1"/>
        <pt x="223" y="138" on="1"/>
        <pt x="318" y="178" on="1"/>
        <pt x="198" y="-85" on="1"/>
      </contour>
      <contour>
        <pt x="55" y="-126" on="1"/>
        <pt x="340" y="-126" on="1"/>
        <pt x="340" y="-174" on="1"/>
        <pt x="55" y="-174" on="1"/>
      </contour>
    </TTGlyph>
    <TTGlyph name="asciicircum" xMin="52" yMin="476" xMax="363" yMax="750">
      <contour>
        <pt x="208" y="705" on="1"/>
        <pt x="106" y="476" on="1"/>
        <pt x="52" y="476" on="1"/>
        <pt x="177" y="750" on="1"/>
        <pt x="238" y="750" on="1"/>
        <pt x="363" y="476" on="1"/>
        <pt x="310" y="476" on="1"/>
      </contour>
    </TTGlyph>
    <TTGlyph name="asciitilde" xMin="61" yMin="245" xMax="375" yMax="360">
      <contour>
        <pt x="375" y="320" on="0"/>
        <pt x="366" y="277" on="0"/>
        <pt x="337" y="256" on="0"/>
        <pt x="308" y="256" on="1"/>
        <pt x="286" y="256" on="0"/>
        <pt x="240" y="269" on="0"/>
        <pt x="209" y="281" on="1"/>
        <pt x="181" y="292" on="0"/>
        <pt x="148" y="302" on="0"/>
        <pt x="132" y="302" on="1"/>
        <pt x="112" y="302" on="0"/>
        <pt x="100" y="278" on="0"/>
        <pt x="100" y="245" on="1"/>
        <pt x="61" y="245" on="1"/>
        <pt x="61" y="304" on="0"/>
        <pt x="87" y="349" on="0"/>
        <pt x="129" y="349" on="1"/>
        <pt x="149" y="349" on="0"/>
        <pt x="188" y="338" on="0"/>
        <pt x="223" y="325" on="0"/>
        <pt x="229" y="323" on="1"/>
        <pt x="255" y="313" on="0"/>
        <pt x="289" y="303" on="0"/>
        <pt x="305" y="303" on="1"/>
        <pt x="325" y="303" on="0"/>
        <pt x="337" y="327" on="0"/>
        <pt x="337" y="360" on="1"/>
        <pt x="375" y="360" on="1"/>
      </contour>
    </TTGlyph>
    <TTGlyph name="asterisk" xMin="48" yMin="358" xMax="357" yMax="688">
      <contour>
        <pt x="226" y="358" on="1"/>
        <pt x="179" y="358" on="1"/>
        <pt x="186" y="494" on="1"/>
        <pt x="71" y="420" on="1"/>
        <pt x="48" y="461" on="1"/>
        <pt x="169" y="522" on="1"/>
        <pt x="48" y="585" on="1"/>
        <pt x="71" y="626" on="1"/>
        <pt x="186" y="551" on="1"/>
        <pt x="179" y="688" on="1"/>
        <pt x="226" y="688" on="1"/>
        <pt x="218" y="551" on="1"/>
        <pt x="333" y="627" on="1"/>
        <pt x="357" y="585" on="1"/>
        <pt x="235" y="523" on="1"/>
        <pt x="357" y="461" on="1"/>
        <pt x="333" y="420" on="1"/>
        <pt x="218" y="494" on="1"/>
      </contour>
    </TTGlyph>
    <TTGlyph name="asterisk.ss02" xMin="35" yMin="-14" xMax="782" yMax="705">
      <contour>
        <pt x="269" y="262" on="1"/>
        <pt x="35" y="436" on="1"/>
        <pt x="322" y="436" on="1"/>
        <pt x="409" y="705" on="1"/>
        <pt x="494" y="436" on="1"/>
        <pt x="782" y="436" on="1"/>
        <pt x="550" y="262" on="1"/>
        <pt x="640" y="-14" on="1"/>
        <pt x="409" y="156" on="1"/>
        <pt x="178" y="-14" on="1"/>
      </contour>
    </TTGlyph>
    <TTGlyph name="at" xMin="63" yMin="-108" xMax="619" yMax="696">
      <contour>
        <pt x="201" y="-108" on="0"/>
        <pt x="91" y="-53" on="0"/>
        <pt x="63" y="97" on="0"/>
        <pt x="63" y="294" on="1"/>
        <pt x="63" y="491" on="0"/>
        <pt x="91" y="641" on="0"/>
        <pt x="201" y="696" on="0"/>
        <pt x="341" y="696" on="1"/>
        <pt x="481" y="696" on="0"/>
        <pt x="591" y="641" on="0"/>
        <pt x="619" y="491" on="0"/>
        <pt x="619" y="294" on="1"/>
        <pt x="619" y="190" on="0"/>
        <pt x="601" y="98" on="0"/>
        <pt x="564" y="75" on="0"/>
        <pt x="524" y="75" on="1"/>
        <pt x="426" y="75" on="1"/>
        <pt x="422" y="135" on="1"/>
        <pt x="417" y="135" on="1"/>
        <pt x="406" y="95" on="0"/>
        <pt x="354" y="68" on="0"/>
        <pt x="317" y="68" on="1"/>
        <pt x="258" y="68" on="0"/>
        <pt x="207" y="122" on="0"/>
        <pt x="207" y="195" on="1"/>
        <pt x="207" y="244" on="0"/>
        <pt x="225" y="298" on="0"/>
        <pt x="269" y="322" on="0"/>
        <pt x="309" y="322" on="1"/>
        <pt x="347" y="322" on="0"/>
        <pt x="419" y="318" on="1"/>
        <pt x="419" y="351" on="1"/>
        <pt x="419" y="407" on="0"/>
        <pt x="406" y="456" on="0"/>
        <pt x="371" y="471" on="0"/>
        <pt x="329" y="471" on="1"/>
        <pt x="308" y="471" on="0"/>
        <pt x="246" y="465" on="0"/>
        <pt x="229" y="461" on="1"/>
        <pt x="229" y="507" on="1"/>
        <pt x="276" y="518" on="0"/>
        <pt x="344" y="518" on="1"/>
        <pt x="400" y="518" on="0"/>
        <pt x="455" y="489" on="0"/>
        <pt x="474" y="421" on="0"/>
        <pt x="474" y="354" on="1"/>
        <pt x="474" y="112" on="1"/>
        <pt x="532" y="112" on="1"/>
        <pt x="552" y="112" on="0"/>
        <pt x="569" y="130" on="0"/>
        <pt x="578" y="206" on="0"/>
        <pt x="578" y="294" on="1"/>
        <pt x="578" y="451" on="0"/>
        <pt x="566" y="583" on="0"/>
        <pt x="517" y="645" on="0"/>
        <pt x="459" y="653" on="1"/>
        <pt x="419" y="659" on="0"/>
        <pt x="340" y="659" on="1"/>
        <pt x="275" y="659" on="0"/>
        <pt x="231" y="655" on="1"/>
        <pt x="168" y="648" on="0"/>
        <pt x="117" y="588" on="0"/>
        <pt x="104" y="455" on="0"/>
        <pt x="104" y="294" on="1"/>
        <pt x="104" y="131" on="0"/>
        <pt x="119" y="-2" on="0"/>
        <pt x="178" y="-61" on="0"/>
        <pt x="250" y="-67" on="1"/>
        <pt x="280" y="-70" on="0"/>
        <pt x="341" y="-70" on="1"/>
        <pt x="441" y="-70" on="0"/>
        <pt x="474" y="-67" on="1"/>
        <pt x="474" y="-106" on="1"/>
        <pt x="447" y="-108" on="0"/>
        <pt x="341" y="-108" on="1"/>
      </contour>
      <contour>
        <pt x="364" y="115" on="0"/>
        <pt x="403" y="139" on="0"/>
        <pt x="419" y="196" on="0"/>
        <pt x="419" y="250" on="1"/>
        <pt x="419" y="281" on="1"/>
        <pt x="321" y="281" on="1"/>
        <pt x="295" y="281" on="0"/>
        <pt x="270" y="269" on="0"/>
        <pt x="260" y="235" on="0"/>
        <pt x="260" y="197" on="1"/>
        <pt x="260" y="162" on="0"/>
        <pt x="271" y="128" on="0"/>
        <pt x="299" y="115" on="0"/>
        <pt x="329" y="115" on="1"/>
      </contour>
    </TTGlyph>
    <TTGlyph name="atilde" xMin="37" yMin="-8" xMax="364" yMax="743">
      <component glyphName=".ttfautohint" x="37" y="0" flags="0x0"/>
      <component glyphName="a" x="0" y="0" flags="0x0"/>
      <component glyphName="tilde" x="69" y="0" flags="0x0"/>
    </TTGlyph>
    <TTGlyph name="b" xMin="66" yMin="-8" xMax="403" yMax="743">
      <contour>
        <pt x="205" y="-8" on="0"/>
        <pt x="140" y="25" on="0"/>
        <pt x="126" y="73" on="1"/>
        <pt x="121" y="73" on="1"/>
        <pt x="117" y="0" on="1"/>
        <pt x="66" y="0" on="1"/>
        <pt x="66" y="743" on="1"/>
        <pt x="125" y="743" on="1"/>
        <pt x="125" y="446" on="1"/>
        <pt x="130" y="446" on="1"/>
        <pt x="143" y="485" on="0"/>
        <pt x="204" y="518" on="0"/>
        <pt x="254" y="518" on="1"/>
        <pt x="316" y="518" on="0"/>
        <pt x="379" y="474" on="0"/>
        <pt x="403" y="364" on="0"/>
        <pt x="403" y="255" on="1"/>
        <pt x="403" y="146" on="0"/>
        <pt x="378" y="36" on="0"/>
        <pt x="315" y="-8" on="0"/>
        <pt x="253" y="-8" on="1"/>
      </contour>
      <contour>
        <pt x="285" y="45" on="0"/>
        <pt x="329" y="73" on="0"/>
        <pt x="344" y="158" on="0"/>
        <pt x="344" y="255" on="1"/>
        <pt x="344" y="352" on="0"/>
        <pt x="329" y="437" on="0"/>
        <pt x="285" y="465" on="0"/>
        <pt x="234" y="465" on="1"/>
        <pt x="193" y="465" on="0"/>
        <pt x="146" y="434" on="0"/>
        <pt x="137" y="400" on="1"/>
        <pt x="130" y="373" on="0"/>
        <pt x="125" y="305" on="0"/>
        <pt x="125" y="255" on="1"/>
        <pt x="125" y="204" on="0"/>
        <pt x="129" y="140" on="0"/>
        <pt x="136" y="113" on="1"/>
        <pt x="145" y="77" on="0"/>
        <pt x="192" y="45" on="0"/>
        <pt x="234" y="45" on="1"/>
      </contour>
    </TTGlyph>
    <TTGlyph name="backslash" xMin="18" yMin="-55" xMax="264" yMax="743">
      <contour>
        <pt x="18" y="743" on="1"/>
        <pt x="74" y="743" on="1"/>
        <pt x="264" y="-55" on="1"/>
        <pt x="209" y="-55" on="1"/>
      </contour>
    </TTGlyph>
    <TTGlyph name="bar" xMin="84" yMin="-161" xMax="139" yMax="743">
      <contour>
        <pt x="84" y="743" on="1"/>
        <pt x="139" y="743" on="1"/>
        <pt x="139" y="-161" on="1"/>
        <pt x="84" y="-161" on="1"/>
      </contour>
    </TTGlyph>
    <TTGlyph name="bar.ss02" xMin="-1" yMin="0" xMax="499" yMax="696">
      <contour>
        <pt x="-1" y="696" on="1"/>
        <pt x="499" y="696" on="1"/>
        <pt x="499" y="0" on="1"/>
        <pt x="-1" y="0" on="1"/>
      </contour>
    </TTGlyph>
    <TTGlyph name="braceleft" xMin="22" yMin="-150" xMax="237" yMax="743">
      <contour>
        <pt x="151" y="-127" on="0"/>
        <pt x="100" y="-22" on="0"/>
        <pt x="100" y="36" on="1"/>
        <pt x="100" y="151" on="1"/>
        <pt x="100" y="204" on="0"/>
        <pt x="64" y="277" on="0"/>
        <pt x="22" y="278" on="1"/>
        <pt x="22" y="315" on="1"/>
        <pt x="63" y="316" on="0"/>
        <pt x="100" y="388" on="0"/>
        <pt x="100" y="441" on="1"/>
        <pt x="100" y="557" on="1"/>
        <pt x="100" y="615" on="0"/>
        <pt x="151" y="720" on="0"/>
        <pt x="188" y="743" on="1"/>
        <pt x="237" y="743" on="1"/>
        <pt x="201" y="710" on="0"/>
        <pt x="156" y="614" on="0"/>
        <pt x="156" y="567" on="1"/>
        <pt x="156" y="447" on="1"/>
        <pt x="156" y="322" on="0"/>
        <pt x="83" y="299" on="1"/>
        <pt x="83" y="294" on="1"/>
        <pt x="156" y="271" on="0"/>
        <pt x="156" y="146" on="1"/>
        <pt x="156" y="26" on="1"/>
        <pt x="156" y="-21" on="0"/>
        <pt x="200" y="-117" on="0"/>
        <pt x="237" y="-150" on="1"/>
        <pt x="188" y="-150" on="1"/>
      </contour>
    </TTGlyph>
    <TTGlyph name="braceright" xMin="14" yMin="-150" xMax="229" yMax="743">
      <contour>
        <pt x="51" y="-117" on="0"/>
        <pt x="95" y="-21" on="0"/>
        <pt x="95" y="26" on="1"/>
        <pt x="95" y="146" on="1"/>
        <pt x="95" y="271" on="0"/>
        <pt x="168" y="294" on="1"/>
        <pt x="168" y="299" on="1"/>
        <pt x="95" y="322" on="0"/>
        <pt x="95" y="447" on="1"/>
        <pt x="95" y="567" on="1"/>
        <pt x="95" y="614" on="0"/>
        <pt x="51" y="709" on="0"/>
        <pt x="14" y="743" on="1"/>
        <pt x="63" y="743" on="1"/>
        <pt x="100" y="720" on="0"/>
        <pt x="152" y="615" on="0"/>
        <pt x="152" y="557" on="1"/>
        <pt x="152" y="441" on="1"/>
        <pt x="152" y="388" on="0"/>
        <pt x="188" y="316" on="0"/>
        <pt x="229" y="315" on="1"/>
        <pt x="229" y="278" on="1"/>
        <pt x="187" y="277" on="0"/>
        <pt x="152" y="205" on="0"/>
        <pt x="152" y="151" on="1"/>
        <pt x="152" y="36" on="1"/>
        <pt x="152" y="-22" on="0"/>
        <pt x="100" y="-127" on="0"/>
        <pt x="63" y="-150" on="1"/>
        <pt x="14" y="-150" on="1"/>
      </contour>
    </TTGlyph>
    <TTGlyph name="bracketleft" xMin="74" yMin="-150" xMax="216" yMax="743">
      <contour>
        <pt x="74" y="743" on="1"/>
        <pt x="216" y="743" on="1"/>
        <pt x="216" y="697" on="1"/>
        <pt x="131" y="693" on="1"/>
        <pt x="131" y="-100" on="1"/>
        <pt x="216" y="-104" on="1"/>
        <pt x="216" y="-150" on="1"/>
        <pt x="74" y="-150" on="1"/>
      </contour>
    </TTGlyph>
    <TTGlyph name="bracketleft.ss02" xMin="45" yMin="0" xMax="397" yMax="696">
      <contour>
        <pt x="45" y="0" on="1"/>
        <pt x="45" y="348" on="1"/>
        <pt x="45" y="449" on="0"/>
        <pt x="135" y="608" on="0"/>
        <pt x="295" y="696" on="0"/>
        <pt x="397" y="696" on="1"/>
        <pt x="397" y="0" on="1"/>
      </contour>
    </TTGlyph>
    <TTGlyph name="bracketright" xMin="28" yMin="-150" xMax="170" yMax="743">
      <contour>
        <pt x="28" y="-104" on="1"/>
        <pt x="113" y="-100" on="1"/>
        <pt x="113" y="693" on="1"/>
        <pt x="28" y="697" on="1"/>
        <pt x="28" y="743" on="1"/>
        <pt x="170" y="743" on="1"/>
        <pt x="170" y="-150" on="1"/>
        <pt x="28" y="-150" on="1"/>
      </contour>
    </TTGlyph>
    <TTGlyph name="bracketright.ss02" xMin="0" yMin="0" xMax="352" yMax="696">
      <contour>
        <pt x="0" y="696" on="1"/>
        <pt x="102" y="696" on="0"/>
        <pt x="262" y="608" on="0"/>
        <pt x="352" y="449" on="0"/>
        <pt x="352" y="348" on="1"/>
        <pt x="352" y="0" on="1"/>
        <pt x="0" y="0" on="1"/>
      </contour>
    </TTGlyph>
    <TTGlyph name="breve" xMin="7" yMin="602" xMax="225" yMax="743">
      <contour>
        <pt x="225" y="693" on="0"/>
        <pt x="213" y="636" on="0"/>
        <pt x="165" y="602" on="0"/>
        <pt x="115" y="602" on="1"/>
        <pt x="65" y="602" on="0"/>
        <pt x="19" y="636" on="0"/>
        <pt x="7" y="692" on="0"/>
        <pt x="7" y="743" on="1"/>
        <pt x="50" y="743" on="1"/>
        <pt x="50" y="703" on="0"/>
        <pt x="57" y="664" on="0"/>
        <pt x="84" y="642" on="0"/>
        <pt x="115" y="642" on="1"/>
        <pt x="146" y="642" on="0"/>
        <pt x="174" y="664" on="0"/>
        <pt x="181" y="703" on="0"/>
        <pt x="181" y="743" on="1"/>
        <pt x="225" y="743" on="1"/>
      </contour>
    </TTGlyph>
    <TTGlyph name="brokenbar" xMin="84" yMin="-161" xMax="139" yMax="743">
      <contour>
        <pt x="84" y="743" on="1"/>
        <pt x="139" y="743" on="1"/>
        <pt x="139" y="390" on="1"/>
        <pt x="84" y="390" on="1"/>
      </contour>
      <contour>
        <pt x="84" y="192" on="1"/>
        <pt x="139" y="192" on="1"/>
        <pt x="139" y="-161" on="1"/>
        <pt x="84" y="-161" on="1"/>
      </contour>
    </TTGlyph>
    <TTGlyph name="bullet" xMin="59" yMin="255" xMax="236" yMax="432">
      <contour>
        <pt x="236" y="301" on="0"/>
        <pt x="226" y="267" on="0"/>
        <pt x="190" y="255" on="0"/>
        <pt x="146" y="255" on="1"/>
        <pt x="103" y="255" on="0"/>
        <pt x="68" y="267" on="0"/>
        <pt x="59" y="301" on="0"/>
        <pt x="59" y="342" on="1"/>
        <pt x="59" y="385" on="0"/>
        <pt x="68" y="419" on="0"/>
        <pt x="103" y="432" on="0"/>
        <pt x="146" y="432" on="1"/>
        <pt x="190" y="432" on="0"/>
        <pt x="226" y="419" on="0"/>
        <pt x="236" y="385" on="0"/>
        <pt x="236" y="342" on="1"/>
      </contour>
    </TTGlyph>
    <TTGlyph name="bullet.ss02" xMin="40" yMin="-8" xMax="743" yMax="696">
      <contour>
        <pt x="343" y="421" on="0"/>
        <pt x="279" y="480" on="0"/>
        <pt x="279" y="533" on="1"/>
        <pt x="279" y="575" on="0"/>
        <pt x="318" y="650" on="0"/>
        <pt x="373" y="696" on="0"/>
        <pt x="392" y="696" on="1"/>
        <pt x="411" y="696" on="0"/>
        <pt x="465" y="650" on="0"/>
        <pt x="504" y="575" on="0"/>
        <pt x="504" y="533" on="1"/>
        <pt x="504" y="480" on="0"/>
        <pt x="441" y="421" on="0"/>
        <pt x="392" y="421" on="1"/>
      </contour>
      <contour>
        <pt x="415" y="481" on="0"/>
        <pt x="444" y="508" on="0"/>
        <pt x="444" y="533" on="1"/>
        <pt x="444" y="560" on="0"/>
        <pt x="426" y="607" on="0"/>
        <pt x="401" y="636" on="0"/>
        <pt x="392" y="636" on="1"/>
        <pt x="383" y="636" on="0"/>
        <pt x="358" y="607" on="0"/>
        <pt x="339" y="560" on="0"/>
        <pt x="339" y="533" on="1"/>
        <pt x="339" y="508" on="0"/>
        <pt x="369" y="481" on="0"/>
        <pt x="392" y="481" on="1"/>
      </contour>
      <contour>
        <pt x="161" y="231" on="0"/>
        <pt x="86" y="270" on="0"/>
        <pt x="40" y="325" on="0"/>
        <pt x="40" y="344" on="1"/>
        <pt x="40" y="363" on="0"/>
        <pt x="86" y="417" on="0"/>
        <pt x="161" y="456" on="0"/>
        <pt x="203" y="456" on="1"/>
        <pt x="256" y="456" on="0"/>
        <pt x="315" y="393" on="0"/>
        <pt x="315" y="344" on="1"/>
        <pt x="315" y="295" on="0"/>
        <pt x="256" y="231" on="0"/>
        <pt x="203" y="231" on="1"/>
      </contour>
      <contour>
        <pt x="527" y="231" on="0"/>
        <pt x="468" y="295" on="0"/>
        <pt x="468" y="344" on="1"/>
        <pt x="468" y="393" on="0"/>
        <pt x="527" y="456" on="0"/>
        <pt x="581" y="456" on="1"/>
        <pt x="622" y="456" on="0"/>
        <pt x="697" y="417" on="0"/>
        <pt x="743" y="363" on="0"/>
        <pt x="743" y="344" on="1"/>
        <pt x="743" y="325" on="0"/>
        <pt x="697" y="270" on="0"/>
        <pt x="623" y="231" on="0"/>
        <pt x="581" y="231" on="1"/>
      </contour>
      <contour>
        <pt x="228" y="291" on="0"/>
        <pt x="255" y="321" on="0"/>
        <pt x="255" y="344" on="1"/>
        <pt x="255" y="367" on="0"/>
        <pt x="228" y="396" on="0"/>
        <pt x="203" y="396" on="1"/>
        <pt x="176" y="396" on="0"/>
        <pt x="129" y="378" on="0"/>
        <pt x="100" y="353" on="0"/>
        <pt x="100" y="344" on="1"/>
        <pt x="100" y="335" on="0"/>
        <pt x="129" y="310" on="0"/>
        <pt x="176" y="291" on="0"/>
        <pt x="203" y="291" on="1"/>
      </contour>
      <contour>
        <pt x="607" y="291" on="0"/>
        <pt x="654" y="310" on="0"/>
        <pt x="683" y="335" on="0"/>
        <pt x="683" y="344" on="1"/>
        <pt x="683" y="353" on="0"/>
        <pt x="654" y="378" on="0"/>
        <pt x="607" y="396" on="0"/>
        <pt x="581" y="396" on="1"/>
        <pt x="556" y="396" on="0"/>
        <pt x="528" y="367" on="0"/>
        <pt x="528" y="344" on="1"/>
        <pt x="528" y="321" on="0"/>
        <pt x="556" y="291" on="0"/>
        <pt x="581" y="291" on="1"/>
      </contour>
      <contour>
        <pt x="373" y="-8" on="0"/>
        <pt x="318" y="38" on="0"/>
        <pt x="279" y="113" on="0"/>
        <pt x="279" y="155" on="1"/>
        <pt x="279" y="208" on="0"/>
        <pt x="343" y="267" on="0"/>
        <pt x="392" y="267" on="1"/>
        <pt x="441" y="267" on="0"/>
        <pt x="504" y="208" on="0"/>
        <pt x="504" y="155" on="1"/>
        <pt x="504" y="113" on="0"/>
        <pt x="465" y="38" on="0"/>
        <pt x="411" y="-8" on="0"/>
        <pt x="392" y="-8" on="1"/>
      </contour>
      <contour>
        <pt x="401" y="52" on="0"/>
        <pt x="426" y="81" on="0"/>
        <pt x="444" y="128" on="0"/>
        <pt x="444" y="155" on="1"/>
        <pt x="444" y="180" on="0"/>
        <pt x="415" y="207" on="0"/>
        <pt x="392" y="207" on="1"/>
        <pt x="369" y="207" on="0"/>
        <pt x="339" y="180" on="0"/>
        <pt x="339" y="155" on="1"/>
        <pt x="339" y="128" on="0"/>
        <pt x="358" y="81" on="0"/>
        <pt x="383" y="52" on="0"/>
        <pt x="392" y="52" on="1"/>
      </contour>
    </TTGlyph>
    <TTGlyph name="c" xMin="49" yMin="-8" xMax="317" yMax="518">
      <contour>
        <pt x="298" y="-1" on="0"/>
        <pt x="239" y="-8" on="0"/>
        <pt x="212" y="-8" on="1"/>
        <pt x="139" y="-8" on="0"/>
        <pt x="70" y="45" on="0"/>
        <pt x="49" y="151" on="0"/>
        <pt x="49" y="254" on="1"/>
        <pt x="49" y="360" on="0"/>
        <pt x="74" y="470" on="0"/>
        <pt x="142" y="518" on="0"/>
        <pt x="209" y="518" on="1"/>
        <pt x="235" y="518" on="0"/>
        <pt x="295" y="511" on="0"/>
        <pt x="314" y="506" on="1"/>
        <pt x="314" y="456" on="1"/>
        <pt x="265" y="467" on="0"/>
        <pt x="221" y="467" on="1"/>
        <pt x="171" y="467" on="0"/>
        <pt x="125" y="433" on="0"/>
        <pt x="109" y="348" on="0"/>
        <pt x="109" y="256" on="1"/>
        <pt x="109" y="161" on="0"/>
        <pt x="125" y="75" on="0"/>
        <pt x="172" y="43" on="0"/>
        <pt x="223" y="43" on="1"/>
        <pt x="245" y="43" on="0"/>
        <pt x="298" y="50" on="0"/>
        <pt x="317" y="55" on="1"/>
        <pt x="317" y="5" on="1"/>
      </contour>
    </TTGlyph>
    <TTGlyph name="cacute" xMin="49" yMin="-8" xMax="317" yMax="743">
      <component glyphName=".ttfautohint" x="49" y="0" flags="0x0"/>
      <component glyphName="c" x="0" y="0" flags="0x0"/>
      <component glyphName="acutecomb" x="276" y="0" flags="0x0"/>
    </TTGlyph>
    <TTGlyph name="cacute.loclPLK" xMin="49" yMin="-8" xMax="317" yMax="743">
      <component glyphName=".ttfautohint" x="49" y="0" flags="0x0"/>
      <component glyphName="c" x="0" y="0" flags="0x0"/>
      <component glyphName="acute.loclPLK" x="144" y="0" flags="0x0"/>
    </TTGlyph>
    <TTGlyph name="caron" xMin="6" yMin="605" xMax="229" yMax="743">
      <contour>
        <pt x="6" y="737" on="1"/>
        <pt x="6" y="743" on="1"/>
        <pt x="49" y="743" on="1"/>
        <pt x="118" y="642" on="1"/>
        <pt x="187" y="743" on="1"/>
        <pt x="229" y="743" on="1"/>
        <pt x="229" y="737" on="1"/>
        <pt x="151" y="605" on="1"/>
        <pt x="84" y="605" on="1"/>
      </contour>
    </TTGlyph>
    <TTGlyph name="caron.loclCSY" xMin="35" yMin="448" xMax="108" yMax="688">
      <contour>
        <pt x="48" y="607" on="1"/>
        <pt x="48" y="688" on="1"/>
        <pt x="108" y="688" on="1"/>
        <pt x="108" y="607" on="1"/>
        <pt x="75" y="448" on="1"/>
        <pt x="35" y="448" on="1"/>
      </contour>
    </TTGlyph>
    <TTGlyph name="ccaron" xMin="49" yMin="-8" xMax="317" yMax="743">
      <component glyphName=".ttfautohint" x="49" y="0" flags="0x0"/>
      <component glyphName="c" x="0" y="0" flags="0x0"/>
      <component glyphName="uni030C" x="295" y="0" flags="0x0"/>
    </TTGlyph>
    <TTGlyph name="ccedilla" xMin="49" yMin="-190" xMax="317" yMax="518">
      <contour>
        <pt x="245" y="43" on="0"/>
        <pt x="298" y="50" on="0"/>
        <pt x="317" y="55" on="1"/>
        <pt x="317" y="5" on="1"/>
        <pt x="298" y="-1" on="0"/>
        <pt x="239" y="-8" on="0"/>
        <pt x="212" y="-8" on="1"/>
        <pt x="196" y="-8" on="1"/>
        <pt x="156" y="-190" on="1"/>
        <pt x="96" y="-190" on="1"/>
        <pt x="96" y="-185" on="1"/>
        <pt x="154" y="-3" on="1"/>
        <pt x="108" y="7" on="0"/>
        <pt x="63" y="67" on="0"/>
        <pt x="49" y="166" on="0"/>
        <pt x="49" y="254" on="1"/>
        <pt x="49" y="360" on="0"/>
        <pt x="74" y="470" on="0"/>
        <pt x="142" y="518" on="0"/>
        <pt x="209" y="518" on="1"/>
        <pt x="235" y="518" on="0"/>
        <pt x="295" y="511" on="0"/>
        <pt x="314" y="506" on="1"/>
        <pt x="314" y="456" on="1"/>
        <pt x="265" y="467" on="0"/>
        <pt x="221" y="467" on="1"/>
        <pt x="171" y="467" on="0"/>
        <pt x="125" y="433" on="0"/>
        <pt x="109" y="348" on="0"/>
        <pt x="109" y="256" on="1"/>
        <pt x="109" y="161" on="0"/>
        <pt x="125" y="75" on="0"/>
        <pt x="172" y="43" on="0"/>
        <pt x="223" y="43" on="1"/>
      </contour>
    </TTGlyph>
    <TTGlyph name="ccircumflex" xMin="49" yMin="-8" xMax="317" yMax="743">
      <component glyphName=".ttfautohint" x="49" y="0" flags="0x0"/>
      <component glyphName="c" x="0" y="0" flags="0x0"/>
      <component glyphName="uni0302" x="294" y="0" flags="0x0"/>
    </TTGlyph>
    <TTGlyph name="cdotaccent" xMin="49" yMin="-8" xMax="317" yMax="730">
      <component glyphName=".ttfautohint" x="49" y="0" flags="0x0"/>
      <component glyphName="c" x="0" y="0" flags="0x0"/>
      <component glyphName="uni0307" x="224" y="0" flags="0x0"/>
    </TTGlyph>
    <TTGlyph name="cedilla" xMin="18" yMin="-190" xMax="120" yMax="8">
      <contour>
        <pt x="18" y="-185" on="1"/>
        <pt x="79" y="8" on="1"/>
        <pt x="120" y="8" on="1"/>
        <pt x="120" y="3" on="1"/>
        <pt x="78" y="-190" on="1"/>
        <pt x="18" y="-190" on="1"/>
      </contour>
    </TTGlyph>
    <TTGlyph name="cent" xMin="53" yMin="-8" xMax="329" yMax="696">
      <contour>
        <pt x="329" y="81" on="1"/>
        <pt x="290" y="70" on="0"/>
        <pt x="245" y="67" on="1"/>
        <pt x="245" y="-8" on="1"/>
        <pt x="195" y="-8" on="1"/>
        <pt x="195" y="68" on="1"/>
        <pt x="135" y="72" on="0"/>
        <pt x="74" y="126" on="0"/>
        <pt x="53" y="238" on="0"/>
        <pt x="53" y="342" on="1"/>
        <pt x="53" y="449" on="0"/>
        <pt x="79" y="564" on="0"/>
        <pt x="139" y="614" on="0"/>
        <pt x="195" y="618" on="1"/>
        <pt x="195" y="696" on="1"/>
        <pt x="245" y="696" on="1"/>
        <pt x="245" y="618" on="1"/>
        <pt x="289" y="617" on="0"/>
        <pt x="326" y="606" on="1"/>
        <pt x="326" y="555" on="1"/>
        <pt x="293" y="563" on="0"/>
        <pt x="245" y="565" on="1"/>
        <pt x="245" y="120" on="1"/>
        <pt x="292" y="123" on="0"/>
        <pt x="329" y="133" on="1"/>
      </contour>
      <contour>
        <pt x="115" y="258" on="0"/>
        <pt x="127" y="169" on="0"/>
        <pt x="161" y="127" on="0"/>
        <pt x="195" y="122" on="1"/>
        <pt x="195" y="563" on="1"/>
        <pt x="161" y="558" on="0"/>
        <pt x="127" y="517" on="0"/>
        <pt x="115" y="429" on="0"/>
        <pt x="115" y="344" on="1"/>
      </contour>
    </TTGlyph>
    <TTGlyph name="circumflex" xMin="7" yMin="605" xMax="230" yMax="743">
      <contour>
        <pt x="7" y="611" on="1"/>
        <pt x="84" y="743" on="1"/>
        <pt x="151" y="743" on="1"/>
        <pt x="230" y="611" on="1"/>
        <pt x="230" y="605" on="1"/>
        <pt x="187" y="605" on="1"/>
        <pt x="118" y="706" on="1"/>
        <pt x="49" y="605" on="1"/>
        <pt x="7" y="605" on="1"/>
      </contour>
    </TTGlyph>
    <TTGlyph name="colon" xMin="56" yMin="0" xMax="126" yMax="510">
      <contour>
        <pt x="56" y="510" on="1"/>
        <pt x="126" y="510" on="1"/>
        <pt x="126" y="428" on="1"/>
        <pt x="56" y="428" on="1"/>
      </contour>
      <contour>
        <pt x="56" y="82" on="1"/>
        <pt x="126" y="82" on="1"/>
        <pt x="126" y="0" on="1"/>
        <pt x="56" y="0" on="1"/>
      </contour>
    </TTGlyph>
    <TTGlyph name="comma" xMin="34" yMin="-112" xMax="126" yMax="82">
      <contour>
        <pt x="57" y="-82" on="0"/>
        <pt x="77" y="-71" on="0"/>
        <pt x="83" y="-45" on="0"/>
        <pt x="83" y="-17" on="1"/>
        <pt x="83" y="0" on="1"/>
        <pt x="55" y="0" on="1"/>
        <pt x="55" y="82" on="1"/>
        <pt x="126" y="82" on="1"/>
        <pt x="126" y="1" on="1"/>
        <pt x="126" y="-46" on="0"/>
        <pt x="112" y="-93" on="0"/>
        <pt x="74" y="-112" on="0"/>
        <pt x="34" y="-112" on="1"/>
        <pt x="34" y="-82" on="1"/>
      </contour>
    </TTGlyph>
    <TTGlyph name="copyright" xMin="73" yMin="-8" xMax="498" yMax="696">
      <contour>
        <pt x="180" y="-8" on="0"/>
        <pt x="96" y="40" on="0"/>
        <pt x="73" y="174" on="0"/>
        <pt x="73" y="344" on="1"/>
        <pt x="73" y="514" on="0"/>
        <pt x="96" y="648" on="0"/>
        <pt x="180" y="696" on="0"/>
        <pt x="285" y="696" on="1"/>
        <pt x="391" y="696" on="0"/>
        <pt x="475" y="648" on="0"/>
        <pt x="498" y="514" on="0"/>
        <pt x="498" y="344" on="1"/>
        <pt x="498" y="174" on="0"/>
        <pt x="475" y="40" on="0"/>
        <pt x="391" y="-8" on="0"/>
        <pt x="285" y="-8" on="1"/>
      </contour>
      <contour>
        <pt x="376" y="24" on="0"/>
        <pt x="444" y="61" on="0"/>
        <pt x="463" y="182" on="0"/>
        <pt x="463" y="344" on="1"/>
        <pt x="463" y="506" on="0"/>
        <pt x="444" y="626" on="0"/>
        <pt x="376" y="663" on="0"/>
        <pt x="285" y="663" on="1"/>
        <pt x="194" y="663" on="0"/>
        <pt x="126" y="626" on="0"/>
        <pt x="107" y="506" on="0"/>
        <pt x="107" y="344" on="1"/>
        <pt x="107" y="182" on="0"/>
        <pt x="126" y="61" on="0"/>
        <pt x="194" y="24" on="0"/>
        <pt x="285" y="24" on="1"/>
      </contour>
      <contour>
        <pt x="255" y="154" on="0"/>
        <pt x="211" y="182" on="0"/>
        <pt x="195" y="259" on="0"/>
        <pt x="195" y="344" on="1"/>
        <pt x="195" y="428" on="0"/>
        <pt x="211" y="505" on="0"/>
        <pt x="255" y="533" on="0"/>
        <pt x="303" y="533" on="1"/>
        <pt x="344" y="533" on="0"/>
        <pt x="362" y="527" on="1"/>
        <pt x="362" y="490" on="1"/>
        <pt x="339" y="495" on="0"/>
        <pt x="311" y="495" on="1"/>
        <pt x="275" y="495" on="0"/>
        <pt x="247" y="476" on="0"/>
        <pt x="238" y="417" on="0"/>
        <pt x="238" y="344" on="1"/>
        <pt x="238" y="271" on="0"/>
        <pt x="247" y="211" on="0"/>
        <pt x="276" y="192" on="0"/>
        <pt x="311" y="192" on="1"/>
        <pt x="339" y="192" on="0"/>
        <pt x="364" y="197" on="1"/>
        <pt x="364" y="160" on="1"/>
        <pt x="340" y="154" on="0"/>
        <pt x="303" y="154" on="1"/>
      </contour>
    </TTGlyph>
    <TTGlyph name="currency" xMin="49" yMin="-4" xMax="524" yMax="693">
      <contour>
        <pt x="50" y="31" on="1"/>
        <pt x="143" y="123" on="1"/>
        <pt x="126" y="151" on="0"/>
        <pt x="115" y="252" on="0"/>
        <pt x="115" y="346" on="1"/>
        <pt x="115" y="438" on="0"/>
        <pt x="126" y="537" on="0"/>
        <pt x="142" y="565" on="1"/>
        <pt x="49" y="657" on="1"/>
        <pt x="85" y="693" on="1"/>
        <pt x="180" y="598" on="1"/>
        <pt x="197" y="608" on="0"/>
        <pt x="248" y="616" on="0"/>
        <pt x="286" y="616" on="1"/>
        <pt x="325" y="616" on="0"/>
        <pt x="376" y="608" on="0"/>
        <pt x="394" y="597" on="1"/>
        <pt x="489" y="692" on="1"/>
        <pt x="524" y="657" on="1"/>
        <pt x="431" y="563" on="1"/>
        <pt x="447" y="536" on="0"/>
        <pt x="457" y="439" on="0"/>
        <pt x="457" y="346" on="1"/>
        <pt x="457" y="251" on="0"/>
        <pt x="447" y="152" on="0"/>
        <pt x="431" y="124" on="1"/>
        <pt x="524" y="31" on="1"/>
        <pt x="488" y="-4" on="1"/>
        <pt x="393" y="91" on="1"/>
        <pt x="360" y="72" on="0"/>
        <pt x="286" y="72" on="1"/>
        <pt x="212" y="72" on="0"/>
        <pt x="181" y="91" on="1"/>
        <pt x="86" y="-4" on="1"/>
      </contour>
      <contour>
        <pt x="342" y="123" on="0"/>
        <pt x="386" y="155" on="0"/>
        <pt x="398" y="239" on="0"/>
        <pt x="398" y="346" on="1"/>
        <pt x="398" y="451" on="0"/>
        <pt x="386" y="534" on="0"/>
        <pt x="341" y="566" on="0"/>
        <pt x="286" y="566" on="1"/>
        <pt x="231" y="566" on="0"/>
        <pt x="186" y="534" on="0"/>
        <pt x="174" y="451" on="0"/>
        <pt x="174" y="346" on="1"/>
        <pt x="174" y="239" on="0"/>
        <pt x="186" y="155" on="0"/>
        <pt x="230" y="123" on="0"/>
        <pt x="286" y="123" on="1"/>
      </contour>
    </TTGlyph>
    <TTGlyph name="d" xMin="49" yMin="-8" xMax="386" yMax="743">
      <contour>
        <pt x="137" y="-8" on="0"/>
        <pt x="74" y="36" on="0"/>
        <pt x="49" y="146" on="0"/>
        <pt x="49" y="255" on="1"/>
        <pt x="49" y="364" on="0"/>
        <pt x="73" y="474" on="0"/>
        <pt x="136" y="518" on="0"/>
        <pt x="198" y="518" on="1"/>
        <pt x="248" y="518" on="0"/>
        <pt x="309" y="485" on="0"/>
        <pt x="322" y="446" on="1"/>
        <pt x="327" y="446" on="1"/>
        <pt x="327" y="743" on="1"/>
        <pt x="386" y="743" on="1"/>
        <pt x="386" y="0" on="1"/>
        <pt x="335" y="0" on="1"/>
        <pt x="331" y="73" on="1"/>
        <pt x="326" y="73" on="1"/>
        <pt x="312" y="25" on="0"/>
        <pt x="247" y="-8" on="0"/>
        <pt x="199" y="-8" on="1"/>
      </contour>
      <contour>
        <pt x="260" y="45" on="0"/>
        <pt x="307" y="76" on="0"/>
        <pt x="316" y="110" on="1"/>
        <pt x="323" y="139" on="0"/>
        <pt x="327" y="206" on="0"/>
        <pt x="327" y="265" on="1"/>
        <pt x="327" y="347" on="0"/>
        <pt x="318" y="389" on="1"/>
        <pt x="308" y="430" on="0"/>
        <pt x="260" y="465" on="0"/>
        <pt x="215" y="465" on="1"/>
        <pt x="166" y="465" on="0"/>
        <pt x="124" y="437" on="0"/>
        <pt x="109" y="353" on="0"/>
        <pt x="109" y="255" on="1"/>
        <pt x="109" y="157" on="0"/>
        <pt x="124" y="73" on="0"/>
        <pt x="167" y="45" on="0"/>
        <pt x="218" y="45" on="1"/>
      </contour>
    </TTGlyph>
    <TTGlyph name="dagger" xMin="45" yMin="0" xMax="293" yMax="688">
      <contour>
        <pt x="140" y="456" on="1"/>
        <pt x="45" y="463" on="1"/>
        <pt x="45" y="502" on="1"/>
        <pt x="140" y="509" on="1"/>
        <pt x="146" y="688" on="1"/>
        <pt x="187" y="688" on="1"/>
        <pt x="193" y="509" on="1"/>
        <pt x="293" y="502" on="1"/>
        <pt x="293" y="463" on="1"/>
        <pt x="193" y="456" on="1"/>
        <pt x="187" y="0" on="1"/>
        <pt x="146" y="0" on="1"/>
      </contour>
    </TTGlyph>
    <TTGlyph name="daggerdbl" xMin="45" yMin="0" xMax="293" yMax="688">
      <contour>
        <pt x="140" y="179" on="1"/>
        <pt x="45" y="185" on="1"/>
        <pt x="45" y="225" on="1"/>
        <pt x="140" y="232" on="1"/>
        <pt x="140" y="456" on="1"/>
        <pt x="45" y="463" on="1"/>
        <pt x="45" y="502" on="1"/>
        <pt x="140" y="509" on="1"/>
        <pt x="146" y="688" on="1"/>
        <pt x="187" y="688" on="1"/>
        <pt x="193" y="509" on="1"/>
        <pt x="293" y="502" on="1"/>
        <pt x="293" y="463" on="1"/>
        <pt x="193" y="456" on="1"/>
        <pt x="193" y="232" on="1"/>
        <pt x="293" y="225" on="1"/>
        <pt x="293" y="185" on="1"/>
        <pt x="193" y="179" on="1"/>
        <pt x="187" y="0" on="1"/>
        <pt x="146" y="0" on="1"/>
      </contour>
    </TTGlyph>
    <TTGlyph name="dcaron" xMin="49" yMin="-8" xMax="493" yMax="743">
      <component glyphName=".ttfautohint" x="49" y="0" flags="0x0"/>
      <component glyphName="d" x="0" y="0" flags="0x0"/>
      <component glyphName="caron.loclCSY" x="385" y="0" flags="0x0"/>
    </TTGlyph>
    <TTGlyph name="dcroat" xMin="49" yMin="-8" xMax="442" yMax="743">
      <contour>
        <pt x="442" y="638" on="1"/>
        <pt x="386" y="638" on="1"/>
        <pt x="386" y="0" on="1"/>
        <pt x="335" y="0" on="1"/>
        <pt x="331" y="73" on="1"/>
        <pt x="326" y="73" on="1"/>
        <pt x="312" y="25" on="0"/>
        <pt x="247" y="-8" on="0"/>
        <pt x="199" y="-8" on="1"/>
        <pt x="137" y="-8" on="0"/>
        <pt x="74" y="36" on="0"/>
        <pt x="49" y="146" on="0"/>
        <pt x="49" y="255" on="1"/>
        <pt x="49" y="364" on="0"/>
        <pt x="73" y="474" on="0"/>
        <pt x="136" y="518" on="0"/>
        <pt x="198" y="518" on="1"/>
        <pt x="248" y="518" on="0"/>
        <pt x="309" y="485" on="0"/>
        <pt x="322" y="446" on="1"/>
        <pt x="327" y="446" on="1"/>
        <pt x="327" y="638" on="1"/>
        <pt x="208" y="638" on="1"/>
        <pt x="208" y="688" on="1"/>
        <pt x="327" y="688" on="1"/>
        <pt x="327" y="743" on="1"/>
        <pt x="386" y="743" on="1"/>
        <pt x="386" y="688" on="1"/>
        <pt x="442" y="688" on="1"/>
      </contour>
      <contour>
        <pt x="323" y="139" on="0"/>
        <pt x="327" y="206" on="0"/>
        <pt x="327" y="265" on="1"/>
        <pt x="327" y="347" on="0"/>
        <pt x="318" y="389" on="1"/>
        <pt x="308" y="430" on="0"/>
        <pt x="260" y="465" on="0"/>
        <pt x="215" y="465" on="1"/>
        <pt x="166" y="465" on="0"/>
        <pt x="124" y="437" on="0"/>
        <pt x="109" y="353" on="0"/>
        <pt x="109" y="255" on="1"/>
        <pt x="109" y="157" on="0"/>
        <pt x="124" y="73" on="0"/>
        <pt x="167" y="45" on="0"/>
        <pt x="218" y="45" on="1"/>
        <pt x="260" y="45" on="0"/>
        <pt x="307" y="76" on="0"/>
        <pt x="316" y="110" on="1"/>
      </contour>
    </TTGlyph>
    <TTGlyph name="degree" xMin="52" yMin="397" xMax="261" yMax="696">
      <contour>
        <pt x="108" y="397" on="0"/>
        <pt x="64" y="422" on="0"/>
        <pt x="52" y="481" on="0"/>
        <pt x="52" y="546" on="1"/>
        <pt x="52" y="611" on="0"/>
        <pt x="64" y="670" on="0"/>
        <pt x="108" y="696" on="0"/>
        <pt x="157" y="696" on="1"/>
        <pt x="206" y="696" on="0"/>
        <pt x="249" y="670" on="0"/>
        <pt x="261" y="611" on="0"/>
        <pt x="261" y="546" on="1"/>
        <pt x="261" y="481" on="0"/>
        <pt x="249" y="422" on="0"/>
        <pt x="206" y="397" on="0"/>
        <pt x="157" y="397" on="1"/>
      </contour>
      <contour>
        <pt x="186" y="436" on="0"/>
        <pt x="210" y="453" on="0"/>
        <pt x="215" y="494" on="0"/>
        <pt x="215" y="546" on="1"/>
        <pt x="215" y="598" on="0"/>
        <pt x="210" y="639" on="0"/>
        <pt x="186" y="657" on="0"/>
        <pt x="157" y="657" on="1"/>
        <pt x="128" y="657" on="0"/>
        <pt x="104" y="639" on="0"/>
        <pt x="98" y="598" on="0"/>
        <pt x="98" y="546" on="1"/>
        <pt x="98" y="495" on="0"/>
        <pt x="104" y="453" on="0"/>
        <pt x="128" y="436" on="0"/>
        <pt x="157" y="436" on="1"/>
      </contour>
    </TTGlyph>
    <TTGlyph name="dialog" xMin="59" yMin="-212" xMax="746" yMax="688">
      <contour>
        <pt x="306" y="-127" on="1"/>
        <pt x="494" y="60" on="1"/>
        <pt x="686" y="60" on="1"/>
        <pt x="686" y="628" on="1"/>
        <pt x="119" y="628" on="1"/>
        <pt x="119" y="60" on="1"/>
        <pt x="306" y="60" on="1"/>
        <pt x="306" y="0" on="1"/>
        <pt x="59" y="0" on="1"/>
        <pt x="59" y="688" on="1"/>
        <pt x="746" y="688" on="1"/>
        <pt x="746" y="0" on="1"/>
        <pt x="519" y="0" on="1"/>
        <pt x="306" y="-212" on="1"/>
      </contour>
    </TTGlyph>
    <TTGlyph name="dieresis" xMin="22" yMin="659" xMax="257" yMax="730">
      <contour>
        <pt x="22" y="730" on="1"/>
        <pt x="81" y="730" on="1"/>
        <pt x="81" y="659" on="1"/>
        <pt x="22" y="659" on="1"/>
      </contour>
      <contour>
        <pt x="198" y="730" on="1"/>
        <pt x="257" y="730" on="1"/>
        <pt x="257" y="659" on="1"/>
        <pt x="198" y="659" on="1"/>
      </contour>
    </TTGlyph>
    <TTGlyph name="divide" xMin="62" yMin="51" xMax="422" yMax="455">
      <contour>
        <pt x="213" y="455" on="1"/>
        <pt x="271" y="455" on="1"/>
        <pt x="271" y="391" on="1"/>
        <pt x="213" y="391" on="1"/>
      </contour>
      <contour>
        <pt x="62" y="278" on="1"/>
        <pt x="422" y="278" on="1"/>
        <pt x="422" y="228" on="1"/>
        <pt x="62" y="228" on="1"/>
      </contour>
      <contour>
        <pt x="213" y="115" on="1"/>
        <pt x="271" y="115" on="1"/>
        <pt x="271" y="51" on="1"/>
        <pt x="213" y="51" on="1"/>
      </contour>
    </TTGlyph>
    <TTGlyph name="dollar" xMin="54" yMin="-8" xMax="364" yMax="696">
      <contour>
        <pt x="364" y="142" on="0"/>
        <pt x="304" y="73" on="0"/>
        <pt x="238" y="68" on="1"/>
        <pt x="238" y="-8" on="1"/>
        <pt x="188" y="-8" on="1"/>
        <pt x="188" y="68" on="1"/>
        <pt x="113" y="70" on="0"/>
        <pt x="66" y="80" on="1"/>
        <pt x="66" y="132" on="1"/>
        <pt x="117" y="122" on="0"/>
        <pt x="188" y="120" on="1"/>
        <pt x="188" y="322" on="1"/>
        <pt x="150" y="328" on="1"/>
        <pt x="94" y="336" on="0"/>
        <pt x="54" y="396" on="0"/>
        <pt x="54" y="466" on="1"/>
        <pt x="54" y="545" on="0"/>
        <pt x="118" y="614" on="0"/>
        <pt x="188" y="619" on="1"/>
        <pt x="188" y="696" on="1"/>
        <pt x="238" y="696" on="1"/>
        <pt x="238" y="619" on="1"/>
        <pt x="302" y="617" on="0"/>
        <pt x="343" y="606" on="1"/>
        <pt x="343" y="555" on="1"/>
        <pt x="288" y="565" on="0"/>
        <pt x="238" y="566" on="1"/>
        <pt x="238" y="372" on="1"/>
        <pt x="271" y="367" on="1"/>
        <pt x="308" y="362" on="0"/>
        <pt x="347" y="337" on="0"/>
        <pt x="364" y="278" on="0"/>
        <pt x="364" y="221" on="1"/>
      </contour>
      <contour>
        <pt x="188" y="379" on="1"/>
        <pt x="188" y="566" on="1"/>
        <pt x="150" y="562" on="0"/>
        <pt x="114" y="521" on="0"/>
        <pt x="114" y="471" on="1"/>
        <pt x="114" y="433" on="0"/>
        <pt x="123" y="398" on="0"/>
        <pt x="145" y="385" on="0"/>
        <pt x="168" y="382" on="1"/>
      </contour>
      <contour>
        <pt x="275" y="127" on="0"/>
        <pt x="304" y="171" on="0"/>
        <pt x="304" y="219" on="1"/>
        <pt x="304" y="260" on="0"/>
        <pt x="295" y="297" on="0"/>
        <pt x="275" y="310" on="0"/>
        <pt x="252" y="313" on="1"/>
        <pt x="238" y="315" on="1"/>
        <pt x="238" y="122" on="1"/>
      </contour>
    </TTGlyph>
    <TTGlyph name="dotaccent" xMin="19" yMin="659" xMax="78" yMax="730">
      <contour>
        <pt x="19" y="730" on="1"/>
        <pt x="78" y="730" on="1"/>
        <pt x="78" y="659" on="1"/>
        <pt x="19" y="659" on="1"/>
      </contour>
    </TTGlyph>
    <TTGlyph name="dotbelowcomb" xMin="-126" yMin="-144" xMax="-56" yMax="-62">
      <contour>
        <pt x="-126" y="-62" on="1"/>
        <pt x="-56" y="-62" on="1"/>
        <pt x="-56" y="-144" on="1"/>
        <pt x="-126" y="-144" on="1"/>
      </contour>
    </TTGlyph>
    <TTGlyph name="dotlessi" xMin="66" yMin="0" xMax="125" yMax="510">
      <contour>
        <pt x="66" y="510" on="1"/>
        <pt x="125" y="510" on="1"/>
        <pt x="125" y="0" on="1"/>
        <pt x="66" y="0" on="1"/>
      </contour>
    </TTGlyph>
    <TTGlyph name="e" xMin="50" yMin="-8" xMax="379" yMax="518">
      <contour>
        <pt x="379" y="235" on="1"/>
        <pt x="108" y="235" on="1"/>
        <pt x="108" y="150" on="0"/>
        <pt x="124" y="74" on="0"/>
        <pt x="176" y="43" on="0"/>
        <pt x="236" y="43" on="1"/>
        <pt x="294" y="43" on="0"/>
        <pt x="365" y="56" on="1"/>
        <pt x="365" y="6" on="1"/>
        <pt x="342" y="0" on="0"/>
        <pt x="263" y="-8" on="0"/>
        <pt x="226" y="-8" on="1"/>
        <pt x="148" y="-8" on="0"/>
        <pt x="74" y="38" on="0"/>
        <pt x="50" y="144" on="0"/>
        <pt x="50" y="254" on="1"/>
        <pt x="50" y="365" on="0"/>
        <pt x="69" y="468" on="0"/>
        <pt x="142" y="518" on="0"/>
        <pt x="223" y="518" on="1"/>
        <pt x="296" y="518" on="0"/>
        <pt x="361" y="471" on="0"/>
        <pt x="379" y="368" on="0"/>
        <pt x="379" y="256" on="1"/>
      </contour>
      <contour>
        <pt x="169" y="467" on="0"/>
        <pt x="123" y="440" on="0"/>
        <pt x="109" y="367" on="0"/>
        <pt x="108" y="282" on="1"/>
        <pt x="321" y="282" on="1"/>
        <pt x="321" y="296" on="1"/>
        <pt x="321" y="374" on="0"/>
        <pt x="304" y="445" on="0"/>
        <pt x="264" y="467" on="0"/>
        <pt x="221" y="467" on="1"/>
      </contour>
    </TTGlyph>
    <TTGlyph name="eacute" xMin="50" yMin="-8" xMax="379" yMax="743">
      <component glyphName=".ttfautohint" x="50" y="0" flags="0x0"/>
      <component glyphName="e" x="0" y="0" flags="0x0"/>
      <component glyphName="acute" x="189" y="0" flags="0x0"/>
    </TTGlyph>
    <TTGlyph name="ebreve" xMin="50" yMin="-8" xMax="379" yMax="743">
      <component glyphName=".ttfautohint" x="50" y="0" flags="0x0"/>
      <component glyphName="e" x="0" y="0" flags="0x0"/>
      <component glyphName="uni0306" x="330" y="0" flags="0x0"/>
    </TTGlyph>
    <TTGlyph name="ecaron" xMin="50" yMin="-8" xMax="379" yMax="743">
      <component glyphName=".ttfautohint" x="50" y="0" flags="0x0"/>
      <component glyphName="e" x="0" y="0" flags="0x0"/>
      <component glyphName="uni030C" x="333" y="0" flags="0x0"/>
    </TTGlyph>
    <TTGlyph name="ecircumflex" xMin="50" yMin="-8" xMax="379" yMax="743">
      <component glyphName=".ttfautohint" x="50" y="0" flags="0x0"/>
      <component glyphName="e" x="0" y="0" flags="0x0"/>
      <component glyphName="circumflex" x="100" y="0" flags="0x0"/>
    </TTGlyph>
    <TTGlyph name="edieresis" xMin="50" yMin="-8" xMax="379" yMax="728">
      <component glyphName=".ttfautohint" x="50" y="0" flags="0x0"/>
      <component glyphName="e" x="0" y="0" flags="0x0"/>
      <component glyphName="dieresis" x="80" y="-2" flags="0x4"/>
    </TTGlyph>
    <TTGlyph name="edotaccent" xMin="50" yMin="-8" xMax="379" yMax="730">
      <component glyphName=".ttfautohint" x="50" y="0" flags="0x0"/>
      <component glyphName="e" x="0" y="0" flags="0x0"/>
      <component glyphName="uni0307" x="263" y="0" flags="0x0"/>
    </TTGlyph>
    <TTGlyph name="egrave" xMin="50" yMin="-8" xMax="379" yMax="743">
      <component glyphName=".ttfautohint" x="50" y="0" flags="0x0"/>
      <component glyphName="e" x="0" y="0" flags="0x0"/>
      <component glyphName="grave" x="122" y="0" flags="0x0"/>
    </TTGlyph>
    <TTGlyph name="eight" xMin="53" yMin="-8" xMax="438" yMax="696">
      <contour>
        <pt x="166" y="-8" on="0"/>
        <pt x="83" y="33" on="0"/>
        <pt x="53" y="114" on="0"/>
        <pt x="53" y="184" on="1"/>
        <pt x="53" y="242" on="0"/>
        <pt x="73" y="308" on="0"/>
        <pt x="112" y="340" on="0"/>
        <pt x="145" y="349" on="1"/>
        <pt x="145" y="353" on="1"/>
        <pt x="99" y="364" on="0"/>
        <pt x="57" y="441" on="0"/>
        <pt x="57" y="515" on="1"/>
        <pt x="57" y="581" on="0"/>
        <pt x="90" y="659" on="0"/>
        <pt x="172" y="696" on="0"/>
        <pt x="245" y="696" on="1"/>
        <pt x="319" y="696" on="0"/>
        <pt x="400" y="659" on="0"/>
        <pt x="433" y="582" on="0"/>
        <pt x="433" y="515" on="1"/>
        <pt x="433" y="441" on="0"/>
        <pt x="391" y="364" on="0"/>
        <pt x="346" y="353" on="1"/>
        <pt x="346" y="349" on="1"/>
        <pt x="379" y="340" on="0"/>
        <pt x="418" y="308" on="0"/>
        <pt x="438" y="242" on="0"/>
        <pt x="438" y="184" on="1"/>
        <pt x="438" y="114" on="0"/>
        <pt x="408" y="33" on="0"/>
        <pt x="324" y="-8" on="0"/>
        <pt x="245" y="-8" on="1"/>
      </contour>
      <contour>
        <pt x="297" y="374" on="0"/>
        <pt x="350" y="397" on="0"/>
        <pt x="371" y="453" on="0"/>
        <pt x="371" y="508" on="1"/>
        <pt x="371" y="563" on="0"/>
        <pt x="351" y="619" on="0"/>
        <pt x="298" y="642" on="0"/>
        <pt x="245" y="642" on="1"/>
        <pt x="192" y="642" on="0"/>
        <pt x="139" y="619" on="0"/>
        <pt x="119" y="563" on="0"/>
        <pt x="119" y="508" on="1"/>
        <pt x="119" y="453" on="0"/>
        <pt x="140" y="397" on="0"/>
        <pt x="193" y="374" on="0"/>
        <pt x="245" y="374" on="1"/>
      </contour>
      <contour>
        <pt x="298" y="46" on="0"/>
        <pt x="353" y="67" on="0"/>
        <pt x="376" y="124" on="0"/>
        <pt x="376" y="182" on="1"/>
        <pt x="376" y="243" on="0"/>
        <pt x="355" y="301" on="0"/>
        <pt x="301" y="321" on="0"/>
        <pt x="245" y="321" on="1"/>
        <pt x="189" y="321" on="0"/>
        <pt x="136" y="301" on="0"/>
        <pt x="115" y="243" on="0"/>
        <pt x="115" y="182" on="1"/>
        <pt x="115" y="124" on="0"/>
        <pt x="138" y="67" on="0"/>
        <pt x="192" y="46" on="0"/>
        <pt x="245" y="46" on="1"/>
      </contour>
    </TTGlyph>
    <TTGlyph name="eight.dnom" xMin="33" yMin="-4" xMax="265" yMax="382">
      <contour>
        <pt x="102" y="-4" on="0"/>
        <pt x="52" y="18" on="0"/>
        <pt x="33" y="63" on="0"/>
        <pt x="33" y="101" on="1"/>
        <pt x="33" y="146" on="0"/>
        <pt x="59" y="184" on="0"/>
        <pt x="88" y="192" on="1"/>
        <pt x="88" y="194" on="1"/>
        <pt x="61" y="200" on="0"/>
        <pt x="35" y="243" on="0"/>
        <pt x="35" y="284" on="1"/>
        <pt x="35" y="338" on="0"/>
        <pt x="85" y="382" on="0"/>
        <pt x="149" y="382" on="1"/>
        <pt x="213" y="382" on="0"/>
        <pt x="262" y="338" on="0"/>
        <pt x="262" y="284" on="1"/>
        <pt x="262" y="242" on="0"/>
        <pt x="237" y="200" on="0"/>
        <pt x="209" y="194" on="1"/>
        <pt x="209" y="192" on="1"/>
        <pt x="239" y="184" on="0"/>
        <pt x="265" y="146" on="0"/>
        <pt x="265" y="101" on="1"/>
        <pt x="265" y="63" on="0"/>
        <pt x="246" y="18" on="0"/>
        <pt x="196" y="-4" on="0"/>
        <pt x="149" y="-4" on="1"/>
      </contour>
      <contour>
        <pt x="190" y="211" on="0"/>
        <pt x="216" y="236" on="0"/>
        <pt x="216" y="276" on="1"/>
        <pt x="216" y="304" on="0"/>
        <pt x="206" y="331" on="0"/>
        <pt x="178" y="342" on="0"/>
        <pt x="149" y="342" on="1"/>
        <pt x="120" y="342" on="0"/>
        <pt x="92" y="331" on="0"/>
        <pt x="81" y="304" on="0"/>
        <pt x="81" y="276" on="1"/>
        <pt x="81" y="236" on="0"/>
        <pt x="108" y="211" on="0"/>
        <pt x="149" y="211" on="1"/>
      </contour>
      <contour>
        <pt x="178" y="36" on="0"/>
        <pt x="207" y="46" on="0"/>
        <pt x="219" y="74" on="0"/>
        <pt x="219" y="103" on="1"/>
        <pt x="219" y="133" on="0"/>
        <pt x="208" y="161" on="0"/>
        <pt x="179" y="171" on="0"/>
        <pt x="149" y="171" on="1"/>
        <pt x="119" y="171" on="0"/>
        <pt x="90" y="161" on="0"/>
        <pt x="79" y="133" on="0"/>
        <pt x="79" y="103" on="1"/>
        <pt x="79" y="74" on="0"/>
        <pt x="91" y="46" on="0"/>
        <pt x="120" y="36" on="0"/>
        <pt x="149" y="36" on="1"/>
      </contour>
    </TTGlyph>
    <TTGlyph name="eight.numr" xMin="33" yMin="304" xMax="265" yMax="690">
      <component glyphName=".ttfautohint" x="33" y="304" flags="0x0"/>
      <component glyphName="eight.dnom" x="0" y="308" flags="0x4"/>
    </TTGlyph>
    <TTGlyph name="eight.tnum" xMin="49" yMin="-8" xMax="435" yMax="696">
      <contour>
        <pt x="163" y="-8" on="0"/>
        <pt x="79" y="33" on="0"/>
        <pt x="49" y="114" on="0"/>
        <pt x="49" y="184" on="1"/>
        <pt x="49" y="242" on="0"/>
        <pt x="69" y="308" on="0"/>
        <pt x="108" y="340" on="0"/>
        <pt x="141" y="349" on="1"/>
        <pt x="141" y="353" on="1"/>
        <pt x="96" y="364" on="0"/>
        <pt x="54" y="441" on="0"/>
        <pt x="54" y="515" on="1"/>
        <pt x="54" y="581" on="0"/>
        <pt x="87" y="659" on="0"/>
        <pt x="169" y="696" on="0"/>
        <pt x="242" y="696" on="1"/>
        <pt x="315" y="696" on="0"/>
        <pt x="397" y="659" on="0"/>
        <pt x="430" y="581" on="0"/>
        <pt x="430" y="515" on="1"/>
        <pt x="430" y="441" on="0"/>
        <pt x="388" y="364" on="0"/>
        <pt x="343" y="353" on="1"/>
        <pt x="343" y="349" on="1"/>
        <pt x="376" y="340" on="0"/>
        <pt x="415" y="308" on="0"/>
        <pt x="435" y="242" on="0"/>
        <pt x="435" y="184" on="1"/>
        <pt x="435" y="114" on="0"/>
        <pt x="405" y="33" on="0"/>
        <pt x="321" y="-8" on="0"/>
        <pt x="242" y="-8" on="1"/>
      </contour>
      <contour>
        <pt x="294" y="374" on="0"/>
        <pt x="347" y="397" on="0"/>
        <pt x="368" y="453" on="0"/>
        <pt x="368" y="508" on="1"/>
        <pt x="368" y="563" on="0"/>
        <pt x="348" y="619" on="0"/>
        <pt x="295" y="642" on="0"/>
        <pt x="242" y="642" on="1"/>
        <pt x="189" y="642" on="0"/>
        <pt x="136" y="619" on="0"/>
        <pt x="116" y="563" on="0"/>
        <pt x="116" y="508" on="1"/>
        <pt x="116" y="453" on="0"/>
        <pt x="137" y="397" on="0"/>
        <pt x="190" y="374" on="0"/>
        <pt x="242" y="374" on="1"/>
      </contour>
      <contour>
        <pt x="295" y="46" on="0"/>
        <pt x="349" y="67" on="0"/>
        <pt x="373" y="125" on="0"/>
        <pt x="373" y="182" on="1"/>
        <pt x="373" y="243" on="0"/>
        <pt x="352" y="301" on="0"/>
        <pt x="298" y="321" on="0"/>
        <pt x="242" y="321" on="1"/>
        <pt x="186" y="321" on="0"/>
        <pt x="132" y="301" on="0"/>
        <pt x="111" y="243" on="0"/>
        <pt x="111" y="182" on="1"/>
        <pt x="111" y="125" on="0"/>
        <pt x="135" y="67" on="0"/>
        <pt x="189" y="46" on="0"/>
        <pt x="242" y="46" on="1"/>
      </contour>
    </TTGlyph>
    <TTGlyph name="ellipsis" xMin="56" yMin="0" xMax="491" yMax="82">
      <contour>
        <pt x="56" y="82" on="1"/>
        <pt x="126" y="82" on="1"/>
        <pt x="126" y="0" on="1"/>
        <pt x="56" y="0" on="1"/>
      </contour>
      <contour>
        <pt x="239" y="82" on="1"/>
        <pt x="308" y="82" on="1"/>
        <pt x="308" y="0" on="1"/>
        <pt x="239" y="0" on="1"/>
      </contour>
      <contour>
        <pt x="421" y="82" on="1"/>
        <pt x="491" y="82" on="1"/>
        <pt x="491" y="0" on="1"/>
        <pt x="421" y="0" on="1"/>
      </contour>
    </TTGlyph>
    <TTGlyph name="emacron" xMin="50" yMin="-8" xMax="379" yMax="743">
      <component glyphName=".ttfautohint" x="50" y="0" flags="0x0"/>
      <component glyphName="e" x="0" y="0" flags="0x0"/>
      <component glyphName="uni0304" x="369" y="0" flags="0x0"/>
    </TTGlyph>
    <TTGlyph name="emdash" xMin="57" yMin="278" xMax="766" yMax="330">
      <contour>
        <pt x="57" y="330" on="1"/>
        <pt x="766" y="330" on="1"/>
        <pt x="766" y="278" on="1"/>
        <pt x="57" y="278" on="1"/>
      </contour>
    </TTGlyph>
    <TTGlyph name="endash" xMin="57" yMin="278" xMax="369" yMax="330">
      <contour>
        <pt x="57" y="330" on="1"/>
        <pt x="369" y="330" on="1"/>
        <pt x="369" y="278" on="1"/>
        <pt x="57" y="278" on="1"/>
      </contour>
    </TTGlyph>
    <TTGlyph name="eng" xMin="66" yMin="-193" xMax="391" yMax="518">
      <contour>
        <pt x="314" y="518" on="0"/>
        <pt x="371" y="479" on="0"/>
        <pt x="391" y="398" on="0"/>
        <pt x="391" y="322" on="1"/>
        <pt x="391" y="-73" on="1"/>
        <pt x="391" y="-128" on="0"/>
        <pt x="366" y="-179" on="0"/>
        <pt x="314" y="-193" on="0"/>
        <pt x="261" y="-193" on="1"/>
        <pt x="261" y="-146" on="1"/>
        <pt x="294" y="-146" on="0"/>
        <pt x="323" y="-136" on="0"/>
        <pt x="332" y="-114" on="0"/>
        <pt x="332" y="-90" on="1"/>
        <pt x="332" y="305" on="1"/>
        <pt x="332" y="378" on="0"/>
        <pt x="318" y="443" on="0"/>
        <pt x="278" y="465" on="0"/>
        <pt x="234" y="465" on="1"/>
        <pt x="183" y="465" on="0"/>
        <pt x="136" y="417" on="0"/>
        <pt x="125" y="339" on="0"/>
        <pt x="125" y="265" on="1"/>
        <pt x="125" y="0" on="1"/>
        <pt x="66" y="0" on="1"/>
        <pt x="66" y="510" on="1"/>
        <pt x="117" y="510" on="1"/>
        <pt x="121" y="437" on="1"/>
        <pt x="126" y="437" on="1"/>
        <pt x="138" y="475" on="0"/>
        <pt x="197" y="518" on="0"/>
        <pt x="256" y="518" on="1"/>
      </contour>
    </TTGlyph>
    <TTGlyph name="eogonek" xMin="49" yMin="-196" xMax="379" yMax="518">
      <contour>
        <pt x="379" y="236" on="1"/>
        <pt x="108" y="236" on="1"/>
        <pt x="108" y="150" on="0"/>
        <pt x="124" y="73" on="0"/>
        <pt x="176" y="43" on="0"/>
        <pt x="236" y="43" on="1"/>
        <pt x="300" y="43" on="0"/>
        <pt x="365" y="55" on="1"/>
        <pt x="365" y="6" on="1"/>
        <pt x="339" y="-14" on="0"/>
        <pt x="292" y="-83" on="0"/>
        <pt x="292" y="-111" on="1"/>
        <pt x="292" y="-130" on="0"/>
        <pt x="313" y="-154" on="0"/>
        <pt x="337" y="-154" on="1"/>
        <pt x="354" y="-153" on="1"/>
        <pt x="354" y="-194" on="1"/>
        <pt x="344" y="-196" on="0"/>
        <pt x="324" y="-196" on="1"/>
        <pt x="281" y="-196" on="0"/>
        <pt x="240" y="-156" on="0"/>
        <pt x="240" y="-124" on="1"/>
        <pt x="240" y="-93" on="0"/>
        <pt x="273" y="-31" on="0"/>
        <pt x="302" y="-4" on="1"/>
        <pt x="254" y="-8" on="0"/>
        <pt x="226" y="-8" on="1"/>
        <pt x="147" y="-8" on="0"/>
        <pt x="73" y="38" on="0"/>
        <pt x="49" y="144" on="0"/>
        <pt x="49" y="254" on="1"/>
        <pt x="49" y="365" on="0"/>
        <pt x="68" y="469" on="0"/>
        <pt x="141" y="518" on="0"/>
        <pt x="223" y="518" on="1"/>
        <pt x="297" y="518" on="0"/>
        <pt x="362" y="471" on="0"/>
        <pt x="379" y="369" on="0"/>
        <pt x="379" y="256" on="1"/>
      </contour>
      <contour>
        <pt x="168" y="468" on="0"/>
        <pt x="123" y="442" on="0"/>
        <pt x="109" y="368" on="0"/>
        <pt x="108" y="281" on="1"/>
        <pt x="322" y="281" on="1"/>
        <pt x="322" y="297" on="1"/>
        <pt x="322" y="375" on="0"/>
        <pt x="305" y="446" on="0"/>
        <pt x="264" y="468" on="0"/>
        <pt x="221" y="468" on="1"/>
      </contour>
    </TTGlyph>
    <TTGlyph name="equal" xMin="62" yMin="137" xMax="422" yMax="368">
      <contour>
        <pt x="62" y="368" on="1"/>
        <pt x="422" y="368" on="1"/>
        <pt x="422" y="318" on="1"/>
        <pt x="62" y="318" on="1"/>
      </contour>
      <contour>
        <pt x="62" y="188" on="1"/>
        <pt x="422" y="188" on="1"/>
        <pt x="422" y="137" on="1"/>
        <pt x="62" y="137" on="1"/>
      </contour>
    </TTGlyph>
    <TTGlyph name="estimated" xMin="57" yMin="-8" xMax="464" yMax="696">
      <contour>
        <pt x="120" y="175" on="0"/>
        <pt x="139" y="57" on="0"/>
        <pt x="192" y="26" on="0"/>
        <pt x="261" y="26" on="1"/>
        <pt x="328" y="26" on="0"/>
        <pt x="388" y="45" on="0"/>
        <pt x="418" y="117" on="0"/>
        <pt x="422" y="200" on="1"/>
        <pt x="458" y="200" on="1"/>
        <pt x="453" y="110" on="0"/>
        <pt x="418" y="24" on="0"/>
        <pt x="339" y="-8" on="0"/>
        <pt x="260" y="-8" on="1"/>
        <pt x="163" y="-8" on="0"/>
        <pt x="81" y="44" on="0"/>
        <pt x="57" y="181" on="0"/>
        <pt x="57" y="344" on="1"/>
        <pt x="57" y="507" on="0"/>
        <pt x="81" y="644" on="0"/>
        <pt x="163" y="696" on="0"/>
        <pt x="260" y="696" on="1"/>
        <pt x="357" y="696" on="0"/>
        <pt x="440" y="644" on="0"/>
        <pt x="464" y="507" on="0"/>
        <pt x="464" y="344" on="1"/>
        <pt x="464" y="323" on="1"/>
        <pt x="119" y="323" on="1"/>
      </contour>
      <contour>
        <pt x="191" y="662" on="0"/>
        <pt x="138" y="630" on="0"/>
        <pt x="119" y="510" on="0"/>
        <pt x="119" y="357" on="1"/>
        <pt x="402" y="357" on="1"/>
        <pt x="402" y="510" on="0"/>
        <pt x="383" y="630" on="0"/>
        <pt x="329" y="662" on="0"/>
        <pt x="260" y="662" on="1"/>
      </contour>
    </TTGlyph>
    <TTGlyph name="eth" xMin="49" yMin="-8" xMax="391" yMax="743">
      <contour>
        <pt x="139" y="-8" on="0"/>
        <pt x="69" y="35" on="0"/>
        <pt x="49" y="137" on="0"/>
        <pt x="49" y="254" on="1"/>
        <pt x="49" y="369" on="0"/>
        <pt x="68" y="473" on="0"/>
        <pt x="134" y="518" on="0"/>
        <pt x="209" y="518" on="1"/>
        <pt x="273" y="518" on="0"/>
        <pt x="309" y="487" on="1"/>
        <pt x="313" y="489" on="1"/>
        <pt x="291" y="576" on="0"/>
        <pt x="259" y="636" on="1"/>
        <pt x="159" y="619" on="1"/>
        <pt x="159" y="663" on="1"/>
        <pt x="236" y="675" on="1"/>
        <pt x="214" y="707" on="0"/>
        <pt x="186" y="739" on="1"/>
        <pt x="186" y="743" on="1"/>
        <pt x="251" y="743" on="1"/>
        <pt x="279" y="711" on="0"/>
        <pt x="296" y="684" on="1"/>
        <pt x="377" y="697" on="1"/>
        <pt x="377" y="654" on="1"/>
        <pt x="319" y="645" on="1"/>
        <pt x="342" y="598" on="0"/>
        <pt x="375" y="480" on="0"/>
        <pt x="382" y="420" on="1"/>
        <pt x="391" y="357" on="0"/>
        <pt x="391" y="274" on="1"/>
        <pt x="391" y="145" on="0"/>
        <pt x="374" y="38" on="0"/>
        <pt x="304" y="-8" on="0"/>
        <pt x="220" y="-8" on="1"/>
      </contour>
      <contour>
        <pt x="277" y="43" on="0"/>
        <pt x="322" y="75" on="0"/>
        <pt x="332" y="153" on="0"/>
        <pt x="332" y="254" on="1"/>
        <pt x="332" y="344" on="0"/>
        <pt x="321" y="425" on="0"/>
        <pt x="274" y="467" on="0"/>
        <pt x="220" y="467" on="1"/>
        <pt x="163" y="467" on="0"/>
        <pt x="119" y="437" on="0"/>
        <pt x="109" y="359" on="0"/>
        <pt x="109" y="254" on="1"/>
        <pt x="109" y="153" on="0"/>
        <pt x="119" y="75" on="0"/>
        <pt x="164" y="43" on="0"/>
        <pt x="220" y="43" on="1"/>
      </contour>
    </TTGlyph>
    <TTGlyph name="exclam" xMin="64" yMin="0" xMax="134" yMax="688">
      <contour>
        <pt x="72" y="345" on="1"/>
        <pt x="65" y="497" on="0"/>
        <pt x="65" y="566" on="1"/>
        <pt x="65" y="688" on="1"/>
        <pt x="133" y="688" on="1"/>
        <pt x="133" y="566" on="1"/>
        <pt x="133" y="497" on="0"/>
        <pt x="126" y="345" on="1"/>
        <pt x="121" y="185" on="1"/>
        <pt x="77" y="185" on="1"/>
      </contour>
      <contour>
        <pt x="64" y="82" on="1"/>
        <pt x="134" y="82" on="1"/>
        <pt x="134" y="0" on="1"/>
        <pt x="64" y="0" on="1"/>
      </contour>
    </TTGlyph>
    <TTGlyph name="exclam.case" xMin="64" yMin="0" xMax="134" yMax="688">
      <component glyphName=".ttfautohint" x="64" y="0" flags="0x0"/>
      <component glyphName="exclam" x="0" y="0" flags="0x0"/>
    </TTGlyph>
    <TTGlyph name="exclam.ss02" xMin="45" yMin="-8" xMax="749" yMax="696">
      <contour>
        <pt x="302" y="-8" on="0"/>
        <pt x="140" y="87" on="0"/>
        <pt x="45" y="249" on="0"/>
        <pt x="45" y="344" on="1"/>
        <pt x="45" y="439" on="0"/>
        <pt x="140" y="601" on="0"/>
        <pt x="302" y="696" on="0"/>
        <pt x="397" y="696" on="1"/>
        <pt x="492" y="696" on="0"/>
        <pt x="654" y="601" on="0"/>
        <pt x="749" y="439" on="0"/>
        <pt x="749" y="344" on="1"/>
        <pt x="749" y="249" on="0"/>
        <pt x="654" y="87" on="0"/>
        <pt x="492" y="-8" on="0"/>
        <pt x="397" y="-8" on="1"/>
      </contour>
      <contour>
        <pt x="480" y="37" on="0"/>
        <pt x="621" y="120" on="0"/>
        <pt x="704" y="261" on="0"/>
        <pt x="704" y="344" on="1"/>
        <pt x="704" y="427" on="0"/>
        <pt x="621" y="568" on="0"/>
        <pt x="480" y="651" on="0"/>
        <pt x="397" y="651" on="1"/>
        <pt x="314" y="651" on="0"/>
        <pt x="173" y="568" on="0"/>
        <pt x="90" y="427" on="0"/>
        <pt x="90" y="344" on="1"/>
        <pt x="90" y="261" on="0"/>
        <pt x="173" y="120" on="0"/>
        <pt x="314" y="37" on="0"/>
        <pt x="397" y="37" on="1"/>
      </contour>
      <contour>
        <pt x="371" y="307" on="0"/>
        <pt x="363" y="427" on="0"/>
        <pt x="363" y="480" on="1"/>
        <pt x="363" y="579" on="1"/>
        <pt x="431" y="579" on="1"/>
        <pt x="431" y="480" on="1"/>
        <pt x="431" y="427" on="0"/>
        <pt x="423" y="307" on="0"/>
        <pt x="417" y="268" on="1"/>
        <pt x="377" y="268" on="1"/>
      </contour>
      <contour>
        <pt x="363" y="191" on="1"/>
        <pt x="431" y="191" on="1"/>
        <pt x="431" y="109" on="1"/>
        <pt x="363" y="109" on="1"/>
      </contour>
    </TTGlyph>
    <TTGlyph name="exclamdbl" xMin="64" yMin="0" xMax="304" yMax="688">
      <component glyphName=".ttfautohint" x="64" y="0" flags="0x0"/>
      <component glyphName="exclam" x="170" y="0" flags="0x0"/>
      <component glyphName="exclam" x="0" y="0" flags="0x0"/>
    </TTGlyph>
    <TTGlyph name="exclamdown" xMin="62" yMin="-178" xMax="132" yMax="510">
      <contour>
        <pt x="62" y="510" on="1"/>
        <pt x="132" y="510" on="1"/>
        <pt x="132" y="428" on="1"/>
        <pt x="62" y="428" on="1"/>
      </contour>
      <contour>
        <pt x="63" y="-56" on="1"/>
        <pt x="63" y="13" on="0"/>
        <pt x="70" y="165" on="1"/>
        <pt x="75" y="325" on="1"/>
        <pt x="119" y="325" on="1"/>
        <pt x="124" y="165" on="1"/>
        <pt x="131" y="13" on="0"/>
        <pt x="131" y="-56" on="1"/>
        <pt x="131" y="-178" on="1"/>
        <pt x="63" y="-178" on="1"/>
      </contour>
    </TTGlyph>
    <TTGlyph name="exclamdown.case" xMin="62" yMin="0" xMax="132" yMax="688">
      <component glyphName=".ttfautohint" x="62" y="0" flags="0x0"/>
      <component glyphName="exclamdown" x="0" y="178" flags="0x4"/>
    </TTGlyph>
    <TTGlyph name="f" xMin="21" yMin="0" xMax="252" yMax="743">
      <contour>
        <pt x="97" y="459" on="1"/>
        <pt x="21" y="459" on="1"/>
        <pt x="21" y="510" on="1"/>
        <pt x="97" y="510" on="1"/>
        <pt x="97" y="606" on="1"/>
        <pt x="97" y="667" on="0"/>
        <pt x="127" y="725" on="0"/>
        <pt x="190" y="743" on="0"/>
        <pt x="252" y="743" on="1"/>
        <pt x="252" y="696" on="1"/>
        <pt x="211" y="696" on="0"/>
        <pt x="172" y="684" on="0"/>
        <pt x="156" y="651" on="0"/>
        <pt x="156" y="616" on="1"/>
        <pt x="156" y="510" on="1"/>
        <pt x="252" y="510" on="1"/>
        <pt x="252" y="459" on="1"/>
        <pt x="156" y="459" on="1"/>
        <pt x="156" y="0" on="1"/>
        <pt x="97" y="0" on="1"/>
      </contour>
    </TTGlyph>
    <TTGlyph name="f_f" xMin="21" yMin="0" xMax="527" yMax="743">
      <component glyphName=".ttfautohint" x="21" y="0" flags="0x0"/>
      <component glyphName="f" x="0" y="0" flags="0x0"/>
      <component glyphName="f" x="275" y="0" flags="0x0"/>
    </TTGlyph>
    <TTGlyph name="fi" xMin="21" yMin="0" xMax="402" yMax="743">
      <component glyphName=".ttfautohint" x="21" y="0" flags="0x0"/>
      <component glyphName="f" x="0" y="0" flags="0x0"/>
      <component glyphName="i" x="275" y="0" flags="0x0"/>
    </TTGlyph>
    <TTGlyph name="five" xMin="56" yMin="-8" xMax="394" yMax="688">
      <contour>
        <pt x="146" y="47" on="0"/>
        <pt x="198" y="47" on="1"/>
        <pt x="254" y="47" on="0"/>
        <pt x="311" y="75" on="0"/>
        <pt x="332" y="140" on="0"/>
        <pt x="332" y="201" on="1"/>
        <pt x="332" y="267" on="0"/>
        <pt x="309" y="327" on="0"/>
        <pt x="250" y="348" on="0"/>
        <pt x="187" y="348" on="1"/>
        <pt x="137" y="348" on="0"/>
        <pt x="62" y="334" on="1"/>
        <pt x="62" y="688" on="1"/>
        <pt x="357" y="688" on="1"/>
        <pt x="357" y="633" on="1"/>
        <pt x="120" y="633" on="1"/>
        <pt x="120" y="393" on="1"/>
        <pt x="163" y="403" on="0"/>
        <pt x="226" y="403" on="1"/>
        <pt x="297" y="403" on="0"/>
        <pt x="370" y="361" on="0"/>
        <pt x="394" y="280" on="0"/>
        <pt x="394" y="209" on="1"/>
        <pt x="394" y="126" on="0"/>
        <pt x="363" y="34" on="0"/>
        <pt x="282" y="-8" on="0"/>
        <pt x="205" y="-8" on="1"/>
        <pt x="171" y="-8" on="0"/>
        <pt x="88" y="0" on="0"/>
        <pt x="56" y="7" on="1"/>
        <pt x="56" y="58" on="1"/>
      </contour>
    </TTGlyph>
    <TTGlyph name="five.dnom" xMin="36" yMin="-4" xMax="241" yMax="378">
      <contour>
        <pt x="76" y="37" on="0"/>
        <pt x="118" y="37" on="1"/>
        <pt x="151" y="37" on="0"/>
        <pt x="183" y="50" on="0"/>
        <pt x="195" y="81" on="0"/>
        <pt x="195" y="112" on="1"/>
        <pt x="195" y="145" on="0"/>
        <pt x="182" y="175" on="0"/>
        <pt x="148" y="186" on="0"/>
        <pt x="113" y="186" on="1"/>
        <pt x="85" y="186" on="0"/>
        <pt x="39" y="179" on="1"/>
        <pt x="39" y="378" on="1"/>
        <pt x="220" y="378" on="1"/>
        <pt x="220" y="337" on="1"/>
        <pt x="82" y="337" on="1"/>
        <pt x="82" y="222" on="1"/>
        <pt x="105" y="227" on="0"/>
        <pt x="141" y="227" on="1"/>
        <pt x="183" y="227" on="0"/>
        <pt x="226" y="203" on="0"/>
        <pt x="241" y="156" on="0"/>
        <pt x="241" y="118" on="1"/>
        <pt x="241" y="72" on="0"/>
        <pt x="222" y="20" on="0"/>
        <pt x="173" y="-4" on="0"/>
        <pt x="127" y="-4" on="1"/>
        <pt x="78" y="-4" on="0"/>
        <pt x="36" y="4" on="1"/>
        <pt x="36" y="43" on="1"/>
      </contour>
    </TTGlyph>
    <TTGlyph name="five.numr" xMin="36" yMin="304" xMax="241" yMax="686">
      <contour>
        <pt x="76" y="345" on="0"/>
        <pt x="118" y="345" on="1"/>
        <pt x="151" y="345" on="0"/>
        <pt x="183" y="358" on="0"/>
        <pt x="195" y="389" on="0"/>
        <pt x="195" y="420" on="1"/>
        <pt x="195" y="453" on="0"/>
        <pt x="182" y="483" on="0"/>
        <pt x="148" y="494" on="0"/>
        <pt x="113" y="494" on="1"/>
        <pt x="85" y="494" on="0"/>
        <pt x="39" y="487" on="1"/>
        <pt x="39" y="686" on="1"/>
        <pt x="220" y="686" on="1"/>
        <pt x="220" y="645" on="1"/>
        <pt x="82" y="645" on="1"/>
        <pt x="82" y="530" on="1"/>
        <pt x="105" y="535" on="0"/>
        <pt x="141" y="535" on="1"/>
        <pt x="183" y="535" on="0"/>
        <pt x="226" y="511" on="0"/>
        <pt x="241" y="464" on="0"/>
        <pt x="241" y="426" on="1"/>
        <pt x="241" y="380" on="0"/>
        <pt x="222" y="328" on="0"/>
        <pt x="173" y="304" on="0"/>
        <pt x="127" y="304" on="1"/>
        <pt x="78" y="304" on="0"/>
        <pt x="36" y="312" on="1"/>
        <pt x="36" y="351" on="1"/>
      </contour>
    </TTGlyph>
    <TTGlyph name="five.tnum" xMin="78" yMin="-8" xMax="415" yMax="688">
      <contour>
        <pt x="168" y="47" on="0"/>
        <pt x="220" y="47" on="1"/>
        <pt x="276" y="47" on="0"/>
        <pt x="332" y="75" on="0"/>
        <pt x="353" y="139" on="0"/>
        <pt x="353" y="201" on="1"/>
        <pt x="353" y="267" on="0"/>
        <pt x="330" y="327" on="0"/>
        <pt x="271" y="348" on="0"/>
        <pt x="208" y="348" on="1"/>
        <pt x="159" y="348" on="0"/>
        <pt x="83" y="334" on="1"/>
        <pt x="83" y="688" on="1"/>
        <pt x="379" y="688" on="1"/>
        <pt x="379" y="633" on="1"/>
        <pt x="142" y="633" on="1"/>
        <pt x="142" y="393" on="1"/>
        <pt x="184" y="403" on="0"/>
        <pt x="247" y="403" on="1"/>
        <pt x="319" y="403" on="0"/>
        <pt x="391" y="361" on="0"/>
        <pt x="415" y="280" on="0"/>
        <pt x="415" y="209" on="1"/>
        <pt x="415" y="126" on="0"/>
        <pt x="384" y="34" on="0"/>
        <pt x="303" y="-8" on="0"/>
        <pt x="226" y="-8" on="1"/>
        <pt x="193" y="-8" on="0"/>
        <pt x="109" y="0" on="0"/>
        <pt x="78" y="7" on="1"/>
        <pt x="78" y="58" on="1"/>
      </contour>
    </TTGlyph>
    <TTGlyph name="fiveeighths" xMin="36" yMin="-4" xMax="650" yMax="688">
      <component glyphName=".ttfautohint" x="36" y="0" flags="0x0"/>
      <component glyphName="five.numr" x="0" y="0" flags="0x0"/>
      <component glyphName="fraction" x="268" y="0" flags="0x0"/>
      <component glyphName="eight.dnom" x="385" y="0" flags="0x0"/>
    </TTGlyph>
    <TTGlyph name="fl" xMin="21" yMin="0" xMax="400" yMax="743">
      <component glyphName=".ttfautohint" x="21" y="0" flags="0x0"/>
      <component glyphName="f" x="0" y="0" flags="0x0"/>
      <component glyphName="l" x="275" y="0" flags="0x0"/>
    </TTGlyph>
    <TTGlyph name="florin" xMin="-113" yMin="-191" xMax="335" yMax="743">
      <contour>
        <pt x="281" y="696" on="0"/>
        <pt x="239" y="676" on="0"/>
        <pt x="210" y="608" on="0"/>
        <pt x="194" y="528" on="1"/>
        <pt x="190" y="510" on="1"/>
        <pt x="285" y="510" on="1"/>
        <pt x="275" y="459" on="1"/>
        <pt x="179" y="459" on="1"/>
        <pt x="83" y="9" on="1"/>
        <pt x="63" y="-84" on="0"/>
        <pt x="17" y="-168" on="0"/>
        <pt x="-49" y="-191" on="0"/>
        <pt x="-113" y="-191" on="1"/>
        <pt x="-102" y="-144" on="1"/>
        <pt x="-62" y="-144" on="0"/>
        <pt x="-21" y="-131" on="0"/>
        <pt x="2" y="-94" on="0"/>
        <pt x="11" y="-54" on="1"/>
        <pt x="120" y="459" on="1"/>
        <pt x="44" y="459" on="1"/>
        <pt x="55" y="510" on="1"/>
        <pt x="131" y="510" on="1"/>
        <pt x="133" y="521" on="1"/>
        <pt x="155" y="624" on="0"/>
        <pt x="203" y="717" on="0"/>
        <pt x="270" y="743" on="0"/>
        <pt x="335" y="743" on="1"/>
        <pt x="325" y="696" on="1"/>
      </contour>
    </TTGlyph>
    <TTGlyph name="four" xMin="34" yMin="0" xMax="431" yMax="688">
      <contour>
        <pt x="295" y="167" on="1"/>
        <pt x="34" y="167" on="1"/>
        <pt x="34" y="217" on="1"/>
        <pt x="220" y="688" on="1"/>
        <pt x="286" y="688" on="1"/>
        <pt x="99" y="222" on="1"/>
        <pt x="296" y="222" on="1"/>
        <pt x="305" y="493" on="1"/>
        <pt x="357" y="493" on="1"/>
        <pt x="357" y="222" on="1"/>
        <pt x="431" y="222" on="1"/>
        <pt x="431" y="167" on="1"/>
        <pt x="357" y="167" on="1"/>
        <pt x="357" y="0" on="1"/>
        <pt x="295" y="0" on="1"/>
      </contour>
    </TTGlyph>
    <TTGlyph name="four.dnom" xMin="21" yMin="0" xMax="260" yMax="378">
      <contour>
        <pt x="173" y="87" on="1"/>
        <pt x="21" y="87" on="1"/>
        <pt x="21" y="123" on="1"/>
        <pt x="125" y="378" on="1"/>
        <pt x="173" y="378" on="1"/>
        <pt x="68" y="128" on="1"/>
        <pt x="173" y="128" on="1"/>
        <pt x="182" y="261" on="1"/>
        <pt x="218" y="261" on="1"/>
        <pt x="218" y="128" on="1"/>
        <pt x="260" y="128" on="1"/>
        <pt x="260" y="87" on="1"/>
        <pt x="218" y="87" on="1"/>
        <pt x="218" y="0" on="1"/>
        <pt x="173" y="0" on="1"/>
      </contour>
    </TTGlyph>
    <TTGlyph name="four.numr" xMin="21" yMin="308" xMax="260" yMax="686">
      <component glyphName=".ttfautohint" x="21" y="308" flags="0x0"/>
      <component glyphName="four.dnom" x="0" y="308" flags="0x4"/>
    </TTGlyph>
    <TTGlyph name="four.ss01" xMin="34" yMin="0" xMax="432" yMax="688">
      <contour>
        <pt x="432" y="222" on="1"/>
        <pt x="432" y="167" on="1"/>
        <pt x="357" y="167" on="1"/>
        <pt x="357" y="0" on="1"/>
        <pt x="295" y="0" on="1"/>
        <pt x="295" y="167" on="1"/>
        <pt x="34" y="167" on="1"/>
        <pt x="34" y="216" on="1"/>
        <pt x="280" y="688" on="1"/>
        <pt x="357" y="688" on="1"/>
        <pt x="357" y="222" on="1"/>
      </contour>
      <contour>
        <pt x="296" y="222" on="1"/>
        <pt x="296" y="601" on="1"/>
        <pt x="97" y="222" on="1"/>
      </contour>
    </TTGlyph>
    <TTGlyph name="four.tnum" xMin="38" yMin="0" xMax="447" yMax="688">
      <contour>
        <pt x="311" y="167" on="1"/>
        <pt x="38" y="167" on="1"/>
        <pt x="38" y="217" on="1"/>
        <pt x="236" y="688" on="1"/>
        <pt x="302" y="688" on="1"/>
        <pt x="104" y="222" on="1"/>
        <pt x="312" y="222" on="1"/>
        <pt x="322" y="493" on="1"/>
        <pt x="373" y="493" on="1"/>
        <pt x="373" y="222" on="1"/>
        <pt x="447" y="222" on="1"/>
        <pt x="447" y="167" on="1"/>
        <pt x="373" y="167" on="1"/>
        <pt x="373" y="0" on="1"/>
        <pt x="311" y="0" on="1"/>
      </contour>
    </TTGlyph>
    <TTGlyph name="fraction" xMin="-131" yMin="0" xMax="248" yMax="688">
      <contour>
        <pt x="201" y="688" on="1"/>
        <pt x="248" y="688" on="1"/>
        <pt x="-84" y="0" on="1"/>
        <pt x="-131" y="0" on="1"/>
      </contour>
    </TTGlyph>
    <TTGlyph name="g" xMin="49" yMin="-199" xMax="386" yMax="518">
      <contour>
        <pt x="123" y="-199" on="0"/>
        <pt x="65" y="-193" on="1"/>
        <pt x="65" y="-144" on="1"/>
        <pt x="143" y="-148" on="0"/>
        <pt x="191" y="-148" on="1"/>
        <pt x="253" y="-148" on="0"/>
        <pt x="309" y="-115" on="0"/>
        <pt x="327" y="-33" on="0"/>
        <pt x="327" y="54" on="1"/>
        <pt x="327" y="66" on="1"/>
        <pt x="322" y="66" on="1"/>
        <pt x="309" y="27" on="0"/>
        <pt x="249" y="-6" on="0"/>
        <pt x="199" y="-6" on="1"/>
        <pt x="136" y="-6" on="0"/>
        <pt x="73" y="37" on="0"/>
        <pt x="49" y="147" on="0"/>
        <pt x="49" y="256" on="1"/>
        <pt x="49" y="365" on="0"/>
        <pt x="73" y="475" on="0"/>
        <pt x="136" y="518" on="0"/>
        <pt x="199" y="518" on="1"/>
        <pt x="247" y="518" on="0"/>
        <pt x="312" y="485" on="0"/>
        <pt x="326" y="437" on="1"/>
        <pt x="331" y="437" on="1"/>
        <pt x="335" y="510" on="1"/>
        <pt x="386" y="510" on="1"/>
        <pt x="386" y="75" on="1"/>
        <pt x="386" y="-35" on="0"/>
        <pt x="361" y="-148" on="0"/>
        <pt x="282" y="-199" on="0"/>
        <pt x="201" y="-199" on="1"/>
      </contour>
      <contour>
        <pt x="260" y="46" on="0"/>
        <pt x="307" y="79" on="0"/>
        <pt x="316" y="116" on="1"/>
        <pt x="327" y="161" on="0"/>
        <pt x="327" y="256" on="1"/>
        <pt x="327" y="304" on="0"/>
        <pt x="324" y="365" on="0"/>
        <pt x="318" y="388" on="1"/>
        <pt x="308" y="430" on="0"/>
        <pt x="261" y="465" on="0"/>
        <pt x="218" y="465" on="1"/>
        <pt x="167" y="465" on="0"/>
        <pt x="124" y="437" on="0"/>
        <pt x="109" y="353" on="0"/>
        <pt x="109" y="256" on="1"/>
        <pt x="109" y="158" on="0"/>
        <pt x="124" y="74" on="0"/>
        <pt x="167" y="46" on="0"/>
        <pt x="218" y="46" on="1"/>
      </contour>
    </TTGlyph>
    <TTGlyph name="g_tilde.loclGUA" xMin="49" yMin="-199" xMax="386" yMax="743">
      <component glyphName=".ttfautohint" x="49" y="0" flags="0x0"/>
      <component glyphName="g" x="0" y="0" flags="0x0"/>
      <component glyphName="tildecomb" x="371" y="0" flags="0x0"/>
    </TTGlyph>
    <TTGlyph name="gbreve" xMin="49" yMin="-199" xMax="386" yMax="743">
      <component glyphName=".ttfautohint" x="49" y="0" flags="0x0"/>
      <component glyphName="g" x="0" y="0" flags="0x0"/>
      <component glyphName="uni0306" x="342" y="0" flags="0x0"/>
    </TTGlyph>
    <TTGlyph name="gcaron" xMin="49" yMin="-199" xMax="386" yMax="743">
      <component glyphName=".ttfautohint" x="49" y="0" flags="0x0"/>
      <component glyphName="g" x="0" y="0" flags="0x0"/>
      <component glyphName="uni030C" x="344" y="0" flags="0x0"/>
    </TTGlyph>
    <TTGlyph name="gcircumflex" xMin="49" yMin="-199" xMax="386" yMax="743">
      <component glyphName=".ttfautohint" x="49" y="0" flags="0x0"/>
      <component glyphName="g" x="0" y="0" flags="0x0"/>
      <component glyphName="uni0302" x="344" y="0" flags="0x0"/>
    </TTGlyph>
    <TTGlyph name="gcommaaccent" xMin="49" yMin="-199" xMax="386" yMax="787">
      <component glyphName=".ttfautohint" x="49" y="0" flags="0x0"/>
      <component glyphName="g" x="0" y="0" flags="0x0"/>
      <component glyphName="uni0312" x="566" y="0" flags="0x0"/>
    </TTGlyph>
    <TTGlyph name="gdotaccent" xMin="49" yMin="-199" xMax="386" yMax="730">
      <component glyphName=".ttfautohint" x="49" y="0" flags="0x0"/>
      <component glyphName="g" x="0" y="0" flags="0x0"/>
      <component glyphName="uni0307" x="274" y="0" flags="0x0"/>
    </TTGlyph>
    <TTGlyph name="germandbls" xMin="66" yMin="0" xMax="415" yMax="750">
      <contour>
        <pt x="201" y="0" on="1"/>
        <pt x="201" y="51" on="1"/>
        <pt x="238" y="51" on="1"/>
        <pt x="294" y="51" on="0"/>
        <pt x="340" y="74" on="0"/>
        <pt x="356" y="148" on="0"/>
        <pt x="356" y="238" on="1"/>
        <pt x="356" y="310" on="0"/>
        <pt x="337" y="384" on="0"/>
        <pt x="292" y="413" on="0"/>
        <pt x="249" y="413" on="1"/>
        <pt x="223" y="413" on="1"/>
        <pt x="223" y="464" on="1"/>
        <pt x="249" y="464" on="1"/>
        <pt x="305" y="464" on="0"/>
        <pt x="349" y="517" on="0"/>
        <pt x="349" y="581" on="1"/>
        <pt x="349" y="648" on="0"/>
        <pt x="300" y="699" on="0"/>
        <pt x="237" y="699" on="1"/>
        <pt x="195" y="699" on="0"/>
        <pt x="147" y="674" on="0"/>
        <pt x="124" y="612" on="0"/>
        <pt x="124" y="555" on="1"/>
        <pt x="124" y="0" on="1"/>
        <pt x="66" y="0" on="1"/>
        <pt x="66" y="553" on="1"/>
        <pt x="66" y="626" on="0"/>
        <pt x="101" y="712" on="0"/>
        <pt x="176" y="750" on="0"/>
        <pt x="239" y="750" on="1"/>
        <pt x="332" y="750" on="0"/>
        <pt x="408" y="674" on="0"/>
        <pt x="408" y="584" on="1"/>
        <pt x="408" y="517" on="0"/>
        <pt x="365" y="453" on="0"/>
        <pt x="317" y="444" on="1"/>
        <pt x="317" y="440" on="1"/>
        <pt x="368" y="429" on="0"/>
        <pt x="415" y="340" on="0"/>
        <pt x="415" y="244" on="1"/>
        <pt x="415" y="147" on="0"/>
        <pt x="391" y="46" on="0"/>
        <pt x="322" y="0" on="0"/>
        <pt x="252" y="0" on="1"/>
      </contour>
    </TTGlyph>
    <TTGlyph name="grave" xMin="7" yMin="603" xMax="125" yMax="743">
      <contour>
        <pt x="7" y="738" on="1"/>
        <pt x="7" y="743" on="1"/>
        <pt x="70" y="743" on="1"/>
        <pt x="125" y="608" on="1"/>
        <pt x="125" y="603" on="1"/>
        <pt x="82" y="603" on="1"/>
      </contour>
    </TTGlyph>
    <TTGlyph name="gravecomb" xMin="-125" yMin="603" xMax="-7" yMax="743">
      <contour>
        <pt x="-125" y="738" on="1"/>
        <pt x="-125" y="743" on="1"/>
        <pt x="-62" y="743" on="1"/>
        <pt x="-7" y="608" on="1"/>
        <pt x="-7" y="603" on="1"/>
        <pt x="-50" y="603" on="1"/>
      </contour>
    </TTGlyph>
    <TTGlyph name="gravecomb.case" xMin="-125" yMin="748" xMax="-7" yMax="888">
      <contour>
        <pt x="-125" y="883" on="1"/>
        <pt x="-125" y="888" on="1"/>
        <pt x="-62" y="888" on="1"/>
        <pt x="-7" y="753" on="1"/>
        <pt x="-7" y="748" on="1"/>
        <pt x="-50" y="748" on="1"/>
      </contour>
    </TTGlyph>
    <TTGlyph name="greater" xMin="62" yMin="66" xMax="422" yMax="440">
      <contour>
        <pt x="62" y="120" on="1"/>
        <pt x="368" y="253" on="1"/>
        <pt x="62" y="386" on="1"/>
        <pt x="62" y="440" on="1"/>
        <pt x="422" y="283" on="1"/>
        <pt x="422" y="222" on="1"/>
        <pt x="62" y="66" on="1"/>
      </contour>
    </TTGlyph>
    <TTGlyph name="greaterequal" xMin="62" yMin="30" xMax="423" yMax="561">
      <contour>
        <pt x="62" y="241" on="1"/>
        <pt x="368" y="374" on="1"/>
        <pt x="62" y="507" on="1"/>
        <pt x="62" y="561" on="1"/>
        <pt x="422" y="404" on="1"/>
        <pt x="422" y="343" on="1"/>
        <pt x="62" y="187" on="1"/>
      </contour>
      <contour>
        <pt x="63" y="80" on="1"/>
        <pt x="423" y="80" on="1"/>
        <pt x="423" y="30" on="1"/>
        <pt x="63" y="30" on="1"/>
      </contour>
    </TTGlyph>
    <TTGlyph name="guillemotleft" xMin="32" yMin="102" xMax="302" yMax="510">
      <contour>
        <pt x="32" y="305" on="1"/>
        <pt x="130" y="510" on="1"/>
        <pt x="175" y="510" on="1"/>
        <pt x="91" y="305" on="1"/>
        <pt x="175" y="102" on="1"/>
        <pt x="130" y="102" on="1"/>
      </contour>
      <contour>
        <pt x="160" y="305" on="1"/>
        <pt x="257" y="510" on="1"/>
        <pt x="302" y="510" on="1"/>
        <pt x="219" y="305" on="1"/>
        <pt x="302" y="102" on="1"/>
        <pt x="257" y="102" on="1"/>
      </contour>
    </TTGlyph>
    <TTGlyph name="guillemotright" xMin="55" yMin="102" xMax="324" yMax="510">
      <contour>
        <pt x="138" y="305" on="1"/>
        <pt x="55" y="510" on="1"/>
        <pt x="99" y="510" on="1"/>
        <pt x="197" y="305" on="1"/>
        <pt x="99" y="102" on="1"/>
        <pt x="55" y="102" on="1"/>
      </contour>
      <contour>
        <pt x="266" y="305" on="1"/>
        <pt x="182" y="510" on="1"/>
        <pt x="226" y="510" on="1"/>
        <pt x="324" y="305" on="1"/>
        <pt x="226" y="102" on="1"/>
        <pt x="182" y="102" on="1"/>
      </contour>
    </TTGlyph>
    <TTGlyph name="guilsinglleft" xMin="32" yMin="102" xMax="174" yMax="510">
      <contour>
        <pt x="32" y="305" on="1"/>
        <pt x="130" y="510" on="1"/>
        <pt x="174" y="510" on="1"/>
        <pt x="91" y="305" on="1"/>
        <pt x="174" y="102" on="1"/>
        <pt x="130" y="102" on="1"/>
      </contour>
    </TTGlyph>
    <TTGlyph name="guilsinglright" xMin="55" yMin="102" xMax="197" yMax="510">
      <contour>
        <pt x="138" y="305" on="1"/>
        <pt x="55" y="510" on="1"/>
        <pt x="99" y="510" on="1"/>
        <pt x="197" y="305" on="1"/>
        <pt x="99" y="102" on="1"/>
        <pt x="55" y="102" on="1"/>
      </contour>
    </TTGlyph>
    <TTGlyph name="h" xMin="66" yMin="0" xMax="391" yMax="743">
      <contour>
        <pt x="332" y="305" on="1"/>
        <pt x="332" y="378" on="0"/>
        <pt x="318" y="443" on="0"/>
        <pt x="278" y="465" on="0"/>
        <pt x="234" y="465" on="1"/>
        <pt x="183" y="465" on="0"/>
        <pt x="136" y="417" on="0"/>
        <pt x="125" y="339" on="0"/>
        <pt x="125" y="265" on="1"/>
        <pt x="125" y="0" on="1"/>
        <pt x="66" y="0" on="1"/>
        <pt x="66" y="743" on="1"/>
        <pt x="125" y="743" on="1"/>
        <pt x="125" y="447" on="1"/>
        <pt x="130" y="447" on="1"/>
        <pt x="142" y="478" on="0"/>
        <pt x="199" y="518" on="0"/>
        <pt x="256" y="518" on="1"/>
        <pt x="314" y="518" on="0"/>
        <pt x="371" y="479" on="0"/>
        <pt x="391" y="398" on="0"/>
        <pt x="391" y="322" on="1"/>
        <pt x="391" y="0" on="1"/>
        <pt x="332" y="0" on="1"/>
      </contour>
    </TTGlyph>
    <TTGlyph name="hbar" xMin="11" yMin="0" xMax="391" yMax="743">
      <contour>
        <pt x="314" y="518" on="0"/>
        <pt x="371" y="479" on="0"/>
        <pt x="391" y="398" on="0"/>
        <pt x="391" y="322" on="1"/>
        <pt x="391" y="0" on="1"/>
        <pt x="332" y="0" on="1"/>
        <pt x="332" y="305" on="1"/>
        <pt x="332" y="378" on="0"/>
        <pt x="318" y="443" on="0"/>
        <pt x="278" y="465" on="0"/>
        <pt x="234" y="465" on="1"/>
        <pt x="183" y="465" on="0"/>
        <pt x="136" y="417" on="0"/>
        <pt x="125" y="339" on="0"/>
        <pt x="125" y="265" on="1"/>
        <pt x="125" y="0" on="1"/>
        <pt x="66" y="0" on="1"/>
        <pt x="66" y="638" on="1"/>
        <pt x="11" y="638" on="1"/>
        <pt x="11" y="688" on="1"/>
        <pt x="66" y="688" on="1"/>
        <pt x="66" y="743" on="1"/>
        <pt x="125" y="743" on="1"/>
        <pt x="125" y="688" on="1"/>
        <pt x="245" y="688" on="1"/>
        <pt x="245" y="638" on="1"/>
        <pt x="125" y="638" on="1"/>
        <pt x="125" y="447" on="1"/>
        <pt x="130" y="447" on="1"/>
        <pt x="142" y="478" on="0"/>
        <pt x="199" y="518" on="0"/>
        <pt x="256" y="518" on="1"/>
      </contour>
    </TTGlyph>
    <TTGlyph name="hcircumflex" xMin="-15" yMin="0" xMax="391" yMax="921">
      <component glyphName=".ttfautohint" x="0" y="0" flags="0x0"/>
      <component glyphName="h" x="0" y="0" flags="0x0"/>
      <component glyphName="uni0302" x="214" y="178" flags="0x4"/>
    </TTGlyph>
    <TTGlyph name="hookabovecomb" xMin="-209" yMin="610" xMax="-15" yMax="789">
      <contour>
        <pt x="-155" y="620" on="1"/>
        <pt x="-155" y="643" on="0"/>
        <pt x="-138" y="661" on="0"/>
        <pt x="-116" y="668" on="1"/>
        <pt x="-101" y="672" on="1"/>
        <pt x="-77" y="680" on="0"/>
        <pt x="-61" y="695" on="0"/>
        <pt x="-61" y="713" on="1"/>
        <pt x="-61" y="728" on="0"/>
        <pt x="-70" y="743" on="0"/>
        <pt x="-96" y="748" on="0"/>
        <pt x="-125" y="748" on="1"/>
        <pt x="-157" y="748" on="0"/>
        <pt x="-209" y="743" on="1"/>
        <pt x="-209" y="782" on="1"/>
        <pt x="-141" y="789" on="0"/>
        <pt x="-119" y="789" on="1"/>
        <pt x="-60" y="789" on="0"/>
        <pt x="-15" y="758" on="0"/>
        <pt x="-15" y="719" on="1"/>
        <pt x="-15" y="689" on="0"/>
        <pt x="-32" y="659" on="0"/>
        <pt x="-61" y="649" on="1"/>
        <pt x="-76" y="644" on="1"/>
        <pt x="-103" y="635" on="0"/>
        <pt x="-114" y="625" on="0"/>
        <pt x="-114" y="610" on="1"/>
        <pt x="-155" y="610" on="1"/>
      </contour>
    </TTGlyph>
    <TTGlyph name="hookabovecomb.case" xMin="-209" yMin="735" xMax="-15" yMax="914">
      <contour>
        <pt x="-155" y="745" on="1"/>
        <pt x="-155" y="768" on="0"/>
        <pt x="-138" y="786" on="0"/>
        <pt x="-116" y="793" on="1"/>
        <pt x="-101" y="798" on="1"/>
        <pt x="-77" y="806" on="0"/>
        <pt x="-61" y="821" on="0"/>
        <pt x="-61" y="839" on="1"/>
        <pt x="-61" y="854" on="0"/>
        <pt x="-70" y="868" on="0"/>
        <pt x="-96" y="873" on="0"/>
        <pt x="-125" y="873" on="1"/>
        <pt x="-147" y="873" on="0"/>
        <pt x="-209" y="869" on="1"/>
        <pt x="-209" y="907" on="1"/>
        <pt x="-158" y="914" on="0"/>
        <pt x="-119" y="914" on="1"/>
        <pt x="-60" y="914" on="0"/>
        <pt x="-15" y="883" on="0"/>
        <pt x="-15" y="844" on="1"/>
        <pt x="-15" y="815" on="0"/>
        <pt x="-32" y="784" on="0"/>
        <pt x="-61" y="774" on="1"/>
        <pt x="-76" y="769" on="1"/>
        <pt x="-103" y="760" on="0"/>
        <pt x="-114" y="750" on="0"/>
        <pt x="-114" y="735" on="1"/>
        <pt x="-155" y="735" on="1"/>
      </contour>
    </TTGlyph>
    <TTGlyph name="house" xMin="34" yMin="0" xMax="490" yMax="696">
      <contour>
        <pt x="34" y="376" on="1"/>
        <pt x="237" y="696" on="1"/>
        <pt x="286" y="696" on="1"/>
        <pt x="490" y="376" on="1"/>
        <pt x="490" y="0" on="1"/>
        <pt x="34" y="0" on="1"/>
      </contour>
      <contour>
        <pt x="435" y="47" on="1"/>
        <pt x="436" y="366" on="1"/>
        <pt x="262" y="641" on="1"/>
        <pt x="88" y="366" on="1"/>
        <pt x="88" y="47" on="1"/>
      </contour>
    </TTGlyph>
    <TTGlyph name="hungarumlaut" xMin="20" yMin="609" xMax="262" yMax="733">
      <contour>
        <pt x="20" y="614" on="1"/>
        <pt x="72" y="733" on="1"/>
        <pt x="130" y="733" on="1"/>
        <pt x="130" y="728" on="1"/>
        <pt x="59" y="609" on="1"/>
        <pt x="20" y="609" on="1"/>
      </contour>
      <contour>
        <pt x="152" y="614" on="1"/>
        <pt x="204" y="733" on="1"/>
        <pt x="262" y="733" on="1"/>
        <pt x="262" y="728" on="1"/>
        <pt x="191" y="609" on="1"/>
        <pt x="152" y="609" on="1"/>
      </contour>
    </TTGlyph>
    <TTGlyph name="hyphen" xMin="58" yMin="258" xMax="250" yMax="313">
      <contour>
        <pt x="58" y="313" on="1"/>
        <pt x="250" y="313" on="1"/>
        <pt x="250" y="258" on="1"/>
        <pt x="58" y="258" on="1"/>
      </contour>
    </TTGlyph>
</ttFont>
